<?xml version="1.0" encoding="UTF-8"?><svg id="_レイヤー_2" xmlns="http://www.w3.org/2000/svg" viewBox="0 0 102.74 67.62"><defs><style>.cls-1{fill:#5b86c4;}.cls-1,.cls-2{stroke-width:0px;}.cls-2{fill:#76b0e0;}</style></defs><g id="_レイヤー_1-2"><path class="cls-1" d="M29.01,5.14c.8,3.01-.99,6.1-3.99,6.91-3.01.81-6.1-.98-6.91-3.99-.8-3.02.98-6.11,3.99-6.91,3.01-.81,6.1.97,6.91,3.99"/><path class="cls-1" d="M54.38,43.41c-1.12.28-2.26.52-3.4.72-1.34,2.99-2.42,6.07-3.16,9.2-2.18-2.68-4.22-5.48-6.08-8.37-3.61,0-7.23-.37-10.78-1.13,4.54,8.22,10.24,15.8,16.95,22.51,1.69,1.7,4.44,1.7,6.14,0,.6-.59.99-1.33,1.16-2.1l.04-.13h0s.08-.72.08-.72v-.14c-.02-5.68,1.08-11.08,3.07-16.07-3,3.73-7.04,9.56-7.04,9.56-.15-4.45,1-9,3.04-13.34M102.54,15.14c-.57-2.11-2.26-3.62-4.26-4.05-15.2-3.89-36.54,11.26-46.35,31.02,1.09-.05,2.19-.15,3.24-.3,7.95-15.14,26.41-27.22,37.93-22.74,0,0-5.27,2.79-9.86,6.94l.33-.22c4.46-1.83,8.34-3.22,13.69-3.55h0c.38,0,.81-.05,1.29-.18,3.01-.81,4.8-3.9,3.99-6.91M29.78,17.35c-.57-2.33-2.92-3.75-5.25-3.17-2.33.57-3.75,2.93-3.17,5.26,1.15,4.64,2.63,9.17,4.42,13.58,2.29,1.89,6.97,5.3,13.3,7.57-4.13-7.26-7.27-15.08-9.29-23.23M39.1,40.63h0s-.04-.01-.04-.01h.04"/><path class="cls-2" d="M11.1,15.15c.8,3.01-.98,6.09-3.99,6.9-3.01.81-6.1-.98-6.91-3.99-.8-3.01.98-6.1,4-6.91,3.01-.81,6.1.98,6.91,4"/><path class="cls-2" d="M65.85,39.04h.02s.02-.02.02-.02l-.04.02M25.29,49.57c-2.25-3.12-4.29-6.37-6.11-9.73,2.2,1.06,4.47,1.95,6.76,2.67-.37,2.32-.59,4.68-.65,7.06M39.15,40.64c-6.55-1.83-13.54-5.45-21.14-11.41-1.88-1.23-3.71-2.61-5.44-4.16l-.39-.32c-1.02-.79-2.38-1.13-3.72-.8-2.33.58-3.75,2.93-3.17,5.26.21.85.43,1.7.67,2.55l.19-.07-.16.15c4.9,12.81,12.41,24.66,22.22,34.5,1.12,1.12,2.7,1.5,4.13,1.13h.04c.72-.2,1.41-.57,1.97-1.13,1.15-1.15,1.52-2.79,1.11-4.26h0s-.01-.06-.01-.06c-1.16-4.36-1.61-8.75-1.43-13.04-1.07-1.69-2.08-3.4-3.05-5.15,11.76,2.49,24.13.86,34.91-4.79-8.34,3.16-17.05,4.31-26.7,1.6M64.5,0l-.29.06c-14.19,3.8-25.45,13.1-32.16,24.99,1.09,3.15,2.34,6.24,3.76,9.26,3.91-17.78,15-29.96,28.68-34.3"/></g></svg>