<?xml version="1.0" encoding="UTF-8"?><svg id="_レイヤー_2" xmlns="http://www.w3.org/2000/svg" viewBox="0 0 334.36 53.22"><defs><style>.cls-1{fill:#3086c4;}.cls-1,.cls-2{stroke-width:0px;}.cls-2{fill:#fff;}</style></defs><g id="_レイヤー_1-2"><path class="cls-1" d="M26.61,52.72C12.21,52.72.5,41.01.5,26.61S12.21.5,26.61.5h281.14c14.4,0,26.11,11.71,26.11,26.11s-11.71,26.11-26.11,26.11H26.61Z"/><path class="cls-2" d="M307.75,1c14.12,0,25.61,11.49,25.61,25.61s-11.49,25.61-25.61,25.61H26.61c-14.12,0-25.61-11.49-25.61-25.61S12.49,1,26.61,1h281.14M307.75,0H26.61C11.91,0,0,11.91,0,26.61s11.91,26.61,26.61,26.61h281.14c14.7,0,26.61-11.91,26.61-26.61S322.45,0,307.75,0h0Z"/><path class="cls-2" d="M29.64,31.15l-.99-1.84c.33-.12.74-.3,1.24-.55.5-.25,1.02-.53,1.56-.84.54-.31,1.05-.63,1.54-.96.48-.33.88-.63,1.18-.9l.64,1.63c-.42.38-.92.79-1.52,1.23-.6.44-1.22.85-1.87,1.25-.65.39-1.24.72-1.79.99ZM32.45,23.83c-.23-.26-.54-.56-.92-.9-.38-.34-.78-.66-1.18-.96-.41-.3-.76-.53-1.07-.7l1.23-1.43c.24.13.51.3.81.51.3.21.61.43.92.67.31.24.6.47.87.69s.48.42.65.58c-.22.18-.46.42-.71.73-.26.31-.46.58-.6.81ZM32.63,33.75c-.13-.24-.31-.53-.53-.85-.22-.33-.43-.59-.64-.77,1.11-.41,2.06-.95,2.86-1.63.8-.68,1.42-1.45,1.85-2.31.43-.86.65-1.77.65-2.74v-1.56h1.96v1.56c0,.96.22,1.87.65,2.73.43.85,1.05,1.61,1.86,2.28.8.66,1.76,1.2,2.87,1.6-.21.2-.43.47-.66.81-.23.35-.41.64-.53.88-1.12-.5-2.13-1.16-3.05-1.96-.92-.81-1.62-1.78-2.11-2.92-.47,1.12-1.16,2.08-2.07,2.88-.91.8-1.95,1.47-3.11,2.01ZM41.34,26.91c-.12-.09-.29-.18-.51-.29-.22-.1-.44-.2-.67-.3s-.41-.16-.57-.19c.14-.2.32-.47.52-.82.2-.35.4-.71.59-1.09.19-.38.34-.7.45-.98h-4.73c-.3.47-.61.92-.94,1.35s-.67.82-1.02,1.17c-.22-.19-.47-.38-.75-.58-.28-.2-.57-.37-.86-.5.39-.36.78-.79,1.15-1.28.37-.49.72-1.02,1.04-1.57.32-.55.59-1.1.83-1.64.24-.54.42-1.05.55-1.52l1.87.54c-.12.37-.25.75-.4,1.12-.15.37-.32.75-.5,1.12h5.42l.9.61c-.15.46-.36.99-.63,1.59s-.56,1.19-.86,1.77c-.31.58-.6,1.08-.89,1.5Z"/><path class="cls-2" d="M46.67,33.15v-13.74h14.04v13.74h-14.04ZM48.61,31.48h10.16v-10.36h-10.16v10.36ZM50.35,29.52v-6.48h6.66v6.48h-6.66ZM52.31,27.83h2.76v-3.06h-2.76v3.06Z"/><path class="cls-2" d="M63.96,33.75v-14.56h6.43v5.52h-4.57v9.04h-1.86ZM65.82,21.35h2.78v-.82h-2.78v.82ZM65.82,23.36h2.78v-.82h-2.78v.82ZM67.09,33.63c-.11-.22-.25-.45-.42-.69-.17-.24-.35-.44-.54-.59.76-.33,1.33-.68,1.71-1.04.38-.37.64-.88.76-1.54h-2.07v-1.53h2.17v-1.28h-1.68v-1.43h7.96v1.43h-1.61v1.28h2.09v1.53h-2.09v3.62h-1.73v-3.62h-1.36c-.17,1.02-.53,1.83-1.08,2.43-.54.6-1.25,1.08-2.11,1.43ZM70.37,28.24h1.27v-1.28h-1.27v1.28ZM74.84,33.73c-.02-.27-.06-.59-.12-.96-.05-.37-.13-.67-.23-.9h1.1c.22,0,.36-.04.44-.12s.11-.21.11-.41v-6.64h-4.6v-5.52h6.46v12.87c0,.57-.15.99-.45,1.27-.3.27-.79.41-1.47.41h-1.23ZM73.33,21.35h2.81v-.82h-2.81v.82ZM73.33,23.36h2.81v-.82h-2.81v.82Z"/><path class="cls-2" d="M82.73,33.75v-7.79c-.26.39-.53.76-.79,1.08-.21-.19-.46-.37-.76-.55-.3-.18-.58-.34-.83-.48.39-.45.78-.98,1.15-1.6.37-.62.71-1.27,1.02-1.96s.57-1.35.78-2c.21-.65.36-1.22.45-1.71l1.92.38c-.14.55-.3,1.09-.49,1.64s-.38,1.08-.58,1.6v4.64c.36-.35.71-.76,1.06-1.22.35-.47.67-.95.97-1.44.3-.49.55-.95.73-1.38h-1.31v-3.76h1.86v2.27h1.71v-2.71h1.87v2.71h1.84v-2.2h1.86v3.7h-3.76l1.4.44c-.08.21-.18.44-.31.71-.13.26-.27.52-.41.77h3.44v1.46h-3.48v.94h2.78v1.45h-2.78v.94h2.78v1.46h-2.78v.94h3.52v1.48h-9.24v-5.82c-.14.15-.28.3-.41.44-.13.14-.26.27-.38.39-.09-.12-.22-.27-.39-.46-.18-.19-.36-.35-.54-.49v6.16h-1.87ZM88.35,24.87h1.76c.16-.31.33-.64.49-.99.17-.35.3-.66.39-.94h-2.89l1.04.43c-.1.23-.22.47-.35.72-.14.25-.28.51-.44.77ZM88.22,27.27h1.94v-.94h-1.94v.94ZM88.22,29.65h1.94v-.94h-1.94v.94ZM88.22,32.05h1.94v-.94h-1.94v.94Z"/><path class="cls-2" d="M106.49,32.69c-.04-.18-.13-.38-.25-.62-.12-.24-.26-.47-.42-.7-.16-.22-.32-.41-.47-.55,1.5-.23,2.64-.72,3.43-1.47.78-.75,1.2-1.64,1.24-2.65.04-.81-.1-1.53-.44-2.17-.34-.64-.8-1.15-1.39-1.54-.59-.39-1.23-.63-1.93-.71-.09,1.02-.25,2.06-.49,3.12-.24,1.06-.57,2.06-.98,2.99s-.91,1.72-1.5,2.37c-.45.48-.88.76-1.31.84-.42.08-.87.02-1.34-.18-.46-.2-.87-.51-1.22-.94s-.62-.93-.8-1.52c-.19-.59-.26-1.21-.23-1.88.05-1,.29-1.91.71-2.74.42-.83.97-1.54,1.68-2.15.7-.6,1.51-1.06,2.42-1.36.91-.31,1.88-.43,2.91-.38.83.04,1.62.23,2.35.56s1.38.78,1.93,1.36c.55.58.98,1.24,1.28,2,.3.76.42,1.58.37,2.48-.08,1.5-.6,2.76-1.58,3.77-.98,1.01-2.3,1.71-3.96,2.08ZM101.14,29.37c.12.09.25.13.38.13s.26-.07.39-.2c.39-.39.76-.95,1.09-1.68s.61-1.54.84-2.45.37-1.84.44-2.78c-.76.18-1.43.49-2.01.95-.59.46-1.05,1.02-1.39,1.67-.34.65-.53,1.37-.58,2.15-.02.52.05.96.21,1.34.16.38.37.67.63.86Z"/><path class="cls-2" d="M117.03,32.56c-.07-.14-.17-.33-.32-.56-.15-.23-.31-.46-.48-.69-.17-.23-.33-.41-.49-.54,2.09-.68,3.82-1.62,5.18-2.84,1.36-1.21,2.34-2.75,2.94-4.63-.51.01-1.1.03-1.75.05-.65.02-1.32.04-2.01.07s-1.35.04-1.98.07-1.18.04-1.65.06c-.47.02-.82.03-1.04.04l-.13-2.2c.32.02.74.04,1.26.05.52.01,1.09.02,1.72.02s1.27,0,1.94,0c.67,0,1.31-.02,1.93-.03s1.18-.04,1.69-.06c.5-.02.9-.05,1.2-.08l1.33.71c-.36,1.75-.97,3.32-1.83,4.71-.86,1.39-1.92,2.58-3.19,3.57-1.27.99-2.7,1.76-4.31,2.31ZM127.51,21.93c-.45,0-.84-.16-1.16-.48-.32-.32-.49-.71-.49-1.16s.16-.83.49-1.15c.32-.32.71-.48,1.16-.48s.83.16,1.15.48c.32.32.48.7.48,1.15s-.16.84-.48,1.16c-.32.32-.7.48-1.15.48ZM127.51,21.22c.25,0,.47-.09.65-.27.18-.18.27-.4.27-.67s-.09-.47-.27-.65-.4-.27-.65-.27-.48.09-.67.27c-.18.18-.27.4-.27.65s.09.48.27.67c.18.18.4.27.67.27Z"/><path class="cls-2" d="M131.97,30.8v-8.81h9.99v8.81h-9.99ZM134.01,28.93h5.92v-5.06h-5.92v5.06Z"/><path class="cls-2" d="M147.72,33.3c-.08-.18-.19-.37-.34-.59-.15-.22-.31-.44-.48-.65s-.33-.38-.47-.5c1.33-.5,2.56-1.15,3.7-1.93,1.14-.78,2.16-1.67,3.05-2.67s1.62-2.06,2.18-3.19c-.46.02-.95.05-1.47.07-.52.03-1,.05-1.43.07-.43.02-.75.02-.96.02-1.07,1.42-2.34,2.63-3.8,3.62-.1-.13-.24-.29-.41-.46-.18-.18-.36-.35-.56-.52s-.38-.3-.54-.4c.81-.47,1.58-1.06,2.31-1.78.73-.71,1.37-1.48,1.93-2.31.56-.83.99-1.65,1.28-2.46l1.89.67c-.25.61-.54,1.21-.87,1.79.35-.01.73-.02,1.14-.03s.81-.02,1.2-.04c.39-.02.73-.04,1.04-.06.3-.02.52-.04.67-.07l1.25.69c-.53,1.56-1.29,3.02-2.29,4.39-1,1.37-2.19,2.59-3.55,3.67s-2.85,1.96-4.46,2.65ZM158.48,22.37c-.15-.22-.34-.45-.57-.68-.22-.24-.45-.46-.68-.68-.23-.22-.44-.4-.64-.54l.84-.79c.18.12.39.3.63.53.25.24.49.48.73.72s.43.46.56.63l-.87.81ZM159.88,21.04c-.24-.33-.55-.68-.92-1.04-.37-.37-.7-.65-.99-.86l.84-.79c.18.12.39.3.64.53.25.24.5.47.74.71.24.24.43.45.56.62l-.87.82Z"/><path class="cls-2" d="M165.01,33.22c-.07-.15-.16-.34-.27-.56-.12-.22-.24-.44-.39-.66s-.28-.4-.41-.54c1.9-.55,3.49-1.35,4.77-2.39s2.24-2.31,2.88-3.79c-.55.02-1.17.05-1.87.08-.7.03-1.4.07-2.12.1-.72.03-1.4.07-2.04.1-.64.03-1.19.06-1.66.09s-.79.05-.96.07l-.17-2.05c.29.01.69.02,1.22.02s1.12,0,1.78-.02c.66-.01,1.34-.03,2.04-.05s1.38-.05,2.05-.07c.66-.03,1.26-.06,1.78-.1.53-.04.93-.07,1.22-.11l1.12.67c-.57,2.19-1.58,4.07-3.04,5.63s-3.43,2.75-5.92,3.58ZM164.54,21.88v-1.97c.42.03.96.05,1.63.07.67.01,1.44.02,2.32.02s1.6-.01,2.27-.03c.67-.02,1.21-.04,1.61-.05v1.97c-.42-.03-.94-.05-1.57-.07s-1.4-.02-2.31-.02c-.49,0-.99,0-1.5,0s-.98.01-1.41.02c-.43.01-.78.03-1.03.05Z"/><path class="cls-2" d="M188.01,31.89c-.11-.24-.25-.51-.43-.81-.17-.3-.37-.62-.59-.96-.29.03-.7.08-1.25.16-.55.07-1.17.15-1.86.24-.69.09-1.4.18-2.13.28s-1.42.19-2.09.28c-.66.09-1.24.17-1.73.24-.49.07-.84.12-1.05.16l-.56-2.07c.17,0,.47-.02.89-.06.42-.04.9-.08,1.46-.12.22-.42.47-.93.76-1.55.29-.61.58-1.27.88-1.97.3-.7.59-1.4.86-2.09.27-.69.51-1.31.71-1.87.2-.56.33-1,.41-1.31l2.24.64c-.11.23-.27.57-.48,1.03-.21.46-.44.98-.71,1.56-.26.59-.54,1.2-.83,1.83-.29.64-.58,1.26-.85,1.87s-.53,1.16-.76,1.65c.9-.09,1.79-.18,2.68-.29.89-.1,1.64-.19,2.27-.27-.32-.43-.63-.82-.93-1.19-.3-.37-.57-.65-.8-.86l1.5-1c.5.44,1.02.96,1.54,1.56.52.6,1.01,1.23,1.48,1.89.47.66.87,1.28,1.21,1.87-.19.08-.39.19-.62.33-.23.14-.45.29-.67.44s-.39.29-.53.41Z"/><path class="cls-2" d="M199.89,33.42c-.9,0-1.71-.09-2.43-.26-.72-.18-1.29-.46-1.71-.85-.42-.39-.62-.9-.62-1.54,0-.53.16-1.01.48-1.44.32-.43.76-.83,1.32-1.18s1.19-.68,1.91-.98v-.13c0-.38-.1-.67-.29-.85-.19-.18-.44-.28-.73-.3-.5-.03-.99.04-1.45.21-.46.18-.92.49-1.37.95-.13.13-.3.3-.51.5-.21.2-.42.4-.62.6s-.39.36-.54.49l-1.43-1.41c.77-.5,1.49-1.14,2.17-1.91s1.25-1.58,1.73-2.45c-.61.02-1.17.04-1.68.06-.5.02-.88.02-1.13,0l-.07-1.89c.37.03.89.05,1.55.05s1.38-.02,2.16-.05c.25-.72.39-1.4.43-2.04l1.96.1c-.03.58-.14,1.18-.33,1.81.81-.07,1.56-.14,2.26-.22.7-.08,1.23-.18,1.6-.29l.11,1.82c-.31.06-.71.11-1.2.17-.49.06-1.04.12-1.64.17-.6.06-1.21.1-1.83.15-.14.31-.3.62-.49.93-.18.31-.37.61-.57.9.44-.18.88-.26,1.33-.26.65,0,1.19.17,1.64.51.44.34.72.9.83,1.68.61-.21,1.24-.4,1.88-.57.64-.17,1.26-.33,1.87-.47l.56,1.81c-.77.11-1.51.24-2.24.4s-1.4.34-2.02.53v2.19h-1.94v-1.45c-.55.26-.99.53-1.31.81-.33.28-.49.55-.49.8,0,.37.22.63.67.78s1.13.22,2.05.22c.37,0,.79-.02,1.26-.07.46-.05.93-.12,1.4-.2s.87-.17,1.22-.27c-.02.14-.04.35-.06.62-.02.27-.02.53-.02.8s0,.46.02.59c-.54.13-1.14.23-1.81.3-.67.07-1.29.11-1.87.11Z"/><path class="cls-2" d="M210.68,32.92c-.07-.18-.16-.38-.28-.62-.12-.24-.25-.47-.39-.69-.14-.22-.27-.4-.39-.52,1.5-.33,2.65-.85,3.44-1.56.79-.71,1.26-1.68,1.39-2.89-.95.01-1.86.03-2.73.05-.87.02-1.6.04-2.21.06s-1,.04-1.19.06l-.13-1.89c.12.01.38.02.76.02s.87,0,1.46,0c.58,0,1.22-.01,1.92-.02.7-.01,1.42-.02,2.17-.03v-2.27c-1.32.19-2.53.3-3.63.33-.02-.18-.07-.38-.13-.62-.07-.24-.14-.47-.22-.7-.08-.23-.16-.41-.24-.54.71.01,1.47-.02,2.27-.08s1.6-.16,2.4-.28,1.56-.27,2.27-.45c.71-.18,1.33-.38,1.86-.6l.77,1.68c-.44.18-.94.34-1.5.49-.56.15-1.16.3-1.78.43v2.56c.85-.02,1.65-.04,2.4-.07.75-.02,1.38-.05,1.89-.07.52-.03.84-.05.99-.07v1.97c-.16-.01-.51-.02-1.03-.02s-1.15,0-1.9,0c-.75,0-1.54.01-2.38.02-.13,1.65-.68,2.99-1.66,4.01s-2.37,1.79-4.17,2.3Z"/><path class="cls-2" d="M225.22,31.07v-1.64c.27.02.78.04,1.53.05s1.64.02,2.68.02v-3.12c-.69,0-1.32,0-1.89,0-.57,0-.94.02-1.12.04v-1.63c.25.02.72.04,1.39.04.67,0,1.5,0,2.47,0s1.75,0,2.42-.02c.67-.01,1.12-.02,1.34-.03v1.63c-.18-.02-.52-.04-1.04-.04-.51,0-1.16,0-1.94,0v3.12c1-.01,1.86-.02,2.59-.03.73-.01,1.2-.02,1.41-.03v1.64c-.26-.02-.82-.04-1.67-.05-.85-.01-1.91-.02-3.18-.02-.71,0-1.42,0-2.12,0-.7,0-1.31.01-1.83.02-.52,0-.87.02-1.04.04Z"/><path class="cls-2" d="M240.49,27.71c-.03-.22-.1-.5-.21-.84-.11-.34-.23-.67-.37-1s-.26-.58-.37-.76l1.5-.54c.11.19.23.45.36.79.13.34.25.68.37,1.03s.2.64.25.88l-1.53.44ZM241.51,32.76c-.09-.23-.22-.5-.39-.8-.17-.3-.34-.53-.51-.7,1.9-.45,3.43-1.25,4.59-2.4s1.89-2.71,2.16-4.68l1.59.26c-.24,1.59-.7,2.93-1.37,4.01-.67,1.08-1.52,1.97-2.55,2.65-1.02.69-2.2,1.24-3.53,1.65ZM243.3,27.09c-.02-.22-.08-.5-.18-.85s-.21-.68-.33-1.02c-.12-.33-.24-.59-.34-.76l1.5-.49c.1.2.21.47.34.81.13.34.24.68.34,1.03.1.34.18.64.22.88l-1.54.41Z"/><path class="cls-2" d="M254.87,33.17c-.08-.16-.19-.36-.35-.58s-.32-.44-.48-.65c-.17-.21-.33-.38-.47-.5,1.33-.5,2.56-1.15,3.71-1.93,1.14-.78,2.16-1.67,3.06-2.67.89-1,1.61-2.06,2.16-3.19-.46.02-.95.05-1.47.07s-.99.05-1.42.07c-.43.02-.75.02-.95.02-.54.7-1.13,1.36-1.77,1.96-.64.61-1.32,1.15-2.03,1.64-.1-.12-.24-.27-.42-.44-.18-.18-.37-.35-.56-.53-.19-.17-.37-.31-.53-.41.81-.47,1.58-1.06,2.3-1.77.72-.71,1.36-1.47,1.92-2.3.56-.83.99-1.65,1.28-2.46l1.91.67c-.13.31-.27.61-.41.9-.14.3-.3.59-.46.87.47-.01.98-.02,1.54-.04.55-.02,1.06-.04,1.52-.07.46-.03.79-.06.99-.09l1.23.71c-.52,1.56-1.27,3.02-2.28,4.39-1,1.37-2.19,2.59-3.55,3.67-1.36,1.07-2.85,1.96-4.46,2.65Z"/><path class="cls-2" d="M272.72,33.55c-.38,0-.71-.14-.99-.41-.27-.27-.41-.6-.41-.99s.14-.71.41-.99c.27-.27.6-.41.99-.41s.71.14.99.41c.27.27.41.6.41.99s-.14.71-.41.99c-.27.27-.6.41-.99.41ZM271.92,29.49c-.02-.34-.05-.79-.08-1.34-.03-.55-.07-1.15-.11-1.79-.04-.64-.07-1.27-.1-1.89s-.05-1.17-.07-1.64c-.02-.48-.03-.82-.03-1.03v-2.55h2.37v2.55c0,.21,0,.55-.02,1.03s-.04,1.02-.07,1.64c-.03.62-.06,1.25-.1,1.89-.04.64-.07,1.24-.11,1.79-.03.55-.06,1-.08,1.34h-1.61Z"/><circle class="cls-2" cx="296.17" cy="26.61" r="9.95"/><polygon class="cls-1" points="298.11 26.61 294.24 23.74 294.24 29.48 298.11 26.61"/></g></svg>