<?xml version="1.0" encoding="UTF-8"?><svg id="_レイヤー_2" xmlns="http://www.w3.org/2000/svg" width="230.82" height="230.82" viewBox="0 0 230.82 230.82"><g id="_レイヤー_1-2"><circle cx="115.41" cy="115.41" r="115.41" fill="#222"/><path d="M55.29,53.44c.49-3.54,1.71-5.66,6.2-8.95,2.91-2.12,3.78-3.21,3.78-4.95,0-1.88-1.31-3.29-3.1-3.29-2.75,0-2.83,2.86-2.86,4.33h-3.46c.05-1.77.27-7.35,6.42-7.35,4.08,0,6.72,2.83,6.72,6.31,0,3.18-2.26,4.98-4.84,6.77-2.67,1.85-3.35,2.61-4.19,4.27h9.2v2.86h-13.88Z" fill="#fff"/><path d="M79.46,53.82c-6.31,0-6.91-7.4-6.91-9.96,0-3.26.57-10.64,6.91-10.64,2.5,0,4.16,1.22,5.22,2.91,1.36,2.18,1.69,4.82,1.69,7.37s-.41,10.31-6.91,10.31ZM79.41,36.16c-1.82,0-3.13,1.33-3.13,7.35-.03,6.28,1.42,7.37,3.18,7.37,1.99,0,3.16-1.52,3.16-7.37,0-6.28-1.42-7.35-3.21-7.35Z" fill="#fff"/><path d="M89.6,53.44c.49-3.54,1.71-5.66,6.2-8.95,2.91-2.12,3.78-3.21,3.78-4.95,0-1.88-1.31-3.29-3.1-3.29-2.75,0-2.83,2.86-2.86,4.33h-3.46c.05-1.77.27-7.35,6.42-7.35,4.08,0,6.72,2.83,6.72,6.31,0,3.18-2.26,4.98-4.84,6.77-2.67,1.85-3.35,2.61-4.19,4.27h9.2v2.86h-13.88Z" fill="#fff"/><path d="M113.58,53.82c-3.97,0-6.47-2.5-6.75-5.77h3.56c.11,1.33,1.25,2.67,3.1,2.67s3.21-1.47,3.21-3.67c0-2.8-2.01-3.78-3.43-3.78-.44,0-1.88,0-2.56,1.77l-3.35-.3,1.42-11.15h10.99v2.94h-8.54l-.49,3.92-.3,1.41c.46-.54,1.41-1.61,3.7-1.61,2.94,0,6.31,2.2,6.31,6.56,0,3.07-1.88,7.02-6.88,7.02Z" fill="#fff"/><path d="M139.75,49.47v5.36h-3.43v-5.36h-11.59v-2.88h3.92v-6.48h7.67v-3.26h-6.26c-1.55,2.48-2.39,3.37-3.05,4.08l-2.94-1.55c2.53-2.56,4.3-5.52,5.28-8.27l3.35,1.25c.14.05.19.16.19.24s-.05.19-.14.24c-.08.03-.52.14-.57.22-.05,0-.54.92-.6,1.03h15.07v2.75h-7.02v3.26h4.73v2.8h-4.73v3.67h8.33v2.88h-8.22ZM136.32,42.91h-4.38v3.67h4.38v-3.67Z" fill="#fff"/><path d="M170.18,35.48v1.58h4.49v2.42h-4.49v3.94h-10.04v-3.94h-2.86c-.05,2.64-.08,5.74-.82,9.47-.57,2.97-1.17,4.19-1.82,5.52l-2.99-.79c.6-1.06,1.01-1.82,1.47-3.51.82-2.91,1.17-6.09,1.17-10.23,0-2.23-.05-4.68-.22-6.88h8.38v-1.74l3.62.24c.05,0,.52.05.52.33,0,.22-.11.27-.27.35-.16.08-.3.22-.3.3v.52h9.66v2.42h-5.5ZM173.34,54.91c-3.46-.49-5.6-1.14-8.46-2.67-2.1,1.03-3.81,1.69-7.07,2.45l-1.61-2.39c2.07-.35,3.89-.82,6.15-1.74-.65-.54-1.58-1.28-2.88-2.8l2.48-.84h-4.24v-2.5h13.6l1.2,1.22c-1.5,2.09-2.72,3.35-4.79,4.87,1.52.6,3.35,1.25,7.18,1.66l-1.55,2.75ZM160.15,35.48h-2.86v1.58h2.86v-1.58ZM162.59,46.91c.74.95,1.42,1.61,2.48,2.23,1.47-1.03,2.12-1.77,2.53-2.23h-5.01ZM167.22,35.48h-4.16v1.58h4.16v-1.58ZM167.22,39.48h-4.16v1.66h4.16v-1.66Z" fill="#fff"/><path d="M98.18,85.69c-1.22-.95-3.56-2.75-5.79-6.23-2.18-3.43-2.86-6.34-3.24-7.94-2.07,6.39-4.98,11.05-9.69,14.31l-2.91-2.07c1.47-.95,4.24-2.78,6.61-6.5,2.48-3.94,2.91-7.51,3.13-9.33l2.39.6c-.08-.82-.11-1.33-.14-2.42h-5.5v-3.24h8.73c-.08.84-.11,1.88-.11,2.75,0,2.88.49,6.58,2.5,10.34,2.48,4.6,5.63,6.42,7.1,7.24l-3.1,2.5Z" fill="#fff"/><path d="M123.67,73.89v-3.26h-16.13v3.4h-2.94v-5.93h13.49c1.31-1.58,2.5-3.24,3.32-5.11l2.69.9c.16.05.46.24.46.46,0,.11-.05.14-.11.16-.08.08-.68.22-.79.33-.57,1.06-1.12,1.93-2.12,3.26h5.12v5.79h-2.99ZM117.31,79.68v4.11c0,1.9-1.58,2.37-3.24,2.37h-1.71l-1.2-2.88c.33.03,1.85.16,2.18.16.46,0,.65-.41.65-.82v-2.94h-9.39v-2.67h9.39v-1.69l1.31.22c.6-.52.82-.82,1.03-1.14h-7.26v-2.53h12.32l.76,1.2c-1.22,1.12-3.37,2.88-4.84,3.94h9.22v2.67h-9.22ZM108.76,67.85c-.65-1.33-1.28-2.34-2.34-3.62l2.5-1.52c.9,1.03,1.69,2.07,2.42,3.51l-2.58,1.63ZM114.94,67.3c-.68-1.39-1.39-2.53-2.53-3.92l2.48-1.47c1.28,1.5,2.04,2.75,2.67,4l-2.61,1.39Z" fill="#fff"/><path d="M146.78,72.04c-.54.52-1.28,1.2-2.72,2.29h8.05v11.37h-2.99v-.57h-9.22v.71h-2.94v-7.7c-1.22.52-1.93.79-3.51,1.39l-1.69-2.64c3.54-1.01,6.69-2.26,10.42-4.84h-10.34v-2.64h9.39v-2.07h-7.1v-2.56h7.1v-2.34l3.48.14c.25,0,.38.11.38.22,0,.19-.16.27-.27.35-.16.08-.38.19-.38.35v1.28h3.1v1.96c1.14-1.58,1.79-2.69,2.5-4.08l3.05,1.8c.08.05.22.16.22.33,0,.22-.22.27-.76.33-.38.05-.46.08-1.33,1.55-.19.3-1.17,1.69-2.04,2.75h5.82v2.64h-8.22ZM149.12,76.66h-9.22v1.77h9.22v-1.77ZM149.12,80.77h-9.22v1.93h9.22v-1.93ZM144.44,67.33v2.07h.84c.95-.98,1.42-1.61,1.77-2.07h-2.61Z" fill="#fff"/><path d="M87.22,181.87v13.03h-17.06v2.62h19.17c-.35,9.16-.55,12.93-1.71,14.59-1.11,1.61-2.77,1.96-3.88,1.96h-8.66l-1.36-7.15h5.99c1.66,0,1.71-.35,1.91-3.72h-11.47v13.18h-7.3v-9.96c-6.95,6.19-14.39,8.2-17.31,8.96l-3.37-7.35c3.72-.65,8.71-1.66,14.44-4.83h-12.68c1.71-4.48,2.47-7.95,3.17-13.18h15.75v-2.67h-17.87v-5.49h.6l-3.52-4.28c3.37-2.31,5.94-5.69,7.5-9.16l7.7.81c-.3,1.06-.4,1.41-.81,2.26h9.31v4.38c3.17-3.42,4.03-5.64,4.68-7.4l7.5.81c-.3.96-.45,1.31-.75,2.21h13.08v6.49h-7.8c.25.4,1.06,1.56,1.61,2.77l-3.47,1.11h6.59ZM54.36,181.87c-.55-1.81-.7-2.26-1.36-3.88h-.6c-1.81,2.26-2.97,3.27-3.72,3.88h5.69ZM53.86,194.9c-.05.4-.15,1.61-.5,2.62h9.51v-2.62h-9.01ZM67.85,181.87l-4.33-3.67.25-.2h-3.42c.2.3.91,1.56,1.36,2.82l-3.67,1.06h9.81ZM76.3,181.87c-1.06-2.62-1.31-3.17-1.61-3.88h-1.16c-1.66,2.21-2.62,3.12-3.42,3.88h6.19ZM79.82,190.02v-2.67h-9.66v2.67h9.66Z" fill="none" stroke="#222" stroke-linecap="round" stroke-linejoin="round" stroke-width="13.4"/><path d="M107.83,148.76h-11.83v-13.81h27.86v82.21h-16.02v-68.41Z" fill="none" stroke="#222" stroke-linecap="round" stroke-linejoin="round" stroke-width="13.4"/><path d="M145.36,194.85c-1.31,1.56-1.76,2.01-2.47,2.67l-2.52-10.17c1.91-2.06,5.33-5.84,7.65-18.72l7.6.5c-.45,2.72-1.21,6.74-2.82,11.52v35.78h-7.45v-21.59ZM172.83,207.63c2.21-6.49,4.08-15.85,4.88-23.45l7.9,1.06c-.96,5.74-2.77,15.65-5.23,22.39h8.35v7.4h-34.02v-7.4h18.12ZM167.7,168.83h7.8v6.54h12.43v7.2h-32.26v-7.2h12.03v-6.54ZM161.46,205.97c-.25-6.79-1.81-14.8-3.42-19.98l7.04-1.56c1.96,5.89,3.42,12.98,4.03,20.08l-7.65,1.46Z" fill="none" stroke="#222" stroke-linecap="round" stroke-linejoin="round" stroke-width="13.4"/><path d="M87.22,181.87v13.03h-17.06v2.62h19.17c-.35,9.16-.55,12.93-1.71,14.59-1.11,1.61-2.77,1.96-3.88,1.96h-8.66l-1.36-7.15h5.99c1.66,0,1.71-.35,1.91-3.72h-11.47v13.18h-7.3v-9.96c-6.95,6.19-14.39,8.2-17.31,8.96l-3.37-7.35c3.72-.65,8.71-1.66,14.44-4.83h-12.68c1.71-4.48,2.47-7.95,3.17-13.18h15.75v-2.67h-17.87v-5.49h.6l-3.52-4.28c3.37-2.31,5.94-5.69,7.5-9.16l7.7.81c-.3,1.06-.4,1.41-.81,2.26h9.31v4.38c3.17-3.42,4.03-5.64,4.68-7.4l7.5.81c-.3.96-.45,1.31-.75,2.21h13.08v6.49h-7.8c.25.4,1.06,1.56,1.61,2.77l-3.47,1.11h6.59ZM54.36,181.87c-.55-1.81-.7-2.26-1.36-3.88h-.6c-1.81,2.26-2.97,3.27-3.72,3.88h5.69ZM53.86,194.9c-.05.4-.15,1.61-.5,2.62h9.51v-2.62h-9.01ZM67.85,181.87l-4.33-3.67.25-.2h-3.42c.2.3.91,1.56,1.36,2.82l-3.67,1.06h9.81ZM76.3,181.87c-1.06-2.62-1.31-3.17-1.61-3.88h-1.16c-1.66,2.21-2.62,3.12-3.42,3.88h6.19ZM79.82,190.02v-2.67h-9.66v2.67h9.66Z" fill="#dd9200"/><path d="M107.83,148.76h-11.83v-13.81h27.86v82.21h-16.02v-68.41Z" fill="#dd9200"/><path d="M145.36,194.85c-1.31,1.56-1.76,2.01-2.47,2.67l-2.52-10.17c1.91-2.06,5.33-5.84,7.65-18.72l7.6.5c-.45,2.72-1.21,6.74-2.82,11.52v35.78h-7.45v-21.59ZM172.83,207.63c2.21-6.49,4.08-15.85,4.88-23.45l7.9,1.06c-.96,5.74-2.77,15.65-5.23,22.39h8.35v7.4h-34.02v-7.4h18.12ZM167.7,168.83h7.8v6.54h12.43v7.2h-32.26v-7.2h12.03v-6.54ZM161.46,205.97c-.25-6.79-1.81-14.8-3.42-19.98l7.04-1.56c1.96,5.89,3.42,12.98,4.03,20.08l-7.65,1.46Z" fill="#dd9200"/><rect x="39.2" y="93.75" width="152.58" height="29.49" rx="5" ry="5" fill="#fff"/><path d="M57.42,112.11c-.29.09-.31.09-.36.27-.51,2.2-1.22,3.67-1.94,4.89l-2.49-1.31c1.05-1.82,1.67-3.45,2.2-5.38l2.2.82c.45.16.56.24.56.4,0,.22-.13.29-.18.31ZM63.65,103.84v2.54h6.23v2.6h-6.54c.96,1.18,1.6,2.25,2.14,3.29l-2.36,1.27c-.6-1.27-1.18-2.2-2.09-3.4l2.14-1.16h-8.5v-2.6h6.01v-2.54h-7.83v-2.56h7.83v-2.42l2.56.18c.47.02.91.2.91.47,0,.11-.09.18-.16.24-.31.2-.33.22-.33.36v1.18h8.16v2.56h-8.16ZM65.23,118.14h-4.78c-1.42,0-2.38-.51-2.38-1.98v-5.67l2.29.27c.8.09.8.2.8.33,0,.16-.13.24-.22.31-.2.09-.29.13-.29.24v3.25c0,.4.31.87.96.87h2.49c1.11,0,1.4-.8,1.49-2.31l2.54,1.16c-.27,1.8-.89,3.54-2.89,3.54ZM69.57,116.76c-.53-1.29-1.31-3.03-2.83-5.38l2.27-1.38c1.4,1.91,2.29,3.4,3.27,5.34l-2.71,1.42Z" fill="#222"/><path d="M74.42,117.65v-1.98h8.21v-1.09h-5.09v-1.74h5.09v-1.13h-6.85v-1.85h16.29v1.85h-6.81v1.13h5.03v1.74h-5.03v1.09h8.12v1.98h-18.96ZM92.15,107.62c-.76,1.62-2.05,1.85-3.69,1.87l-.87-2.11c2.31.02,2.38-.24,2.6-1h-3.31c-.47.93-1.07,2.09-2.45,3.47l-1.98-1.31c.2-.18.29-.27.38-.36-.4,0-1.58.04-2.38.04-3.67,0-4.49-.24-4.49-2.18v-3.43h-1.45v-1.96h4.16v-1.62l2.31.11c.2,0,.56.07.56.29,0,.09-.38.33-.38.42v.8h3.56v1.96h-6.47v2c0,1.11.29,1.51,1.49,1.51.25,0,1.98-.07,3.83-.31l-.38,1.98c1.6-1.8,2.25-3.72,2.29-8.12h7.74c-.04,1.71-.38,6.43-1.07,7.94ZM87.59,103.95c-.07.33-.11.56-.22.85h3.2c.11-.38.11-.49.18-.85h-3.16ZM87.79,101.61c0,.27,0,.47-.02.85h3.12c.02-.33.02-.53.02-.85h-3.11Z" fill="#222"/><path d="M112.13,113.23c-1.67,2.47-3.98,3.43-5.18,3.92l-1.65-2.29c1-.29,2.65-.76,4-2.38,1.36-1.6,1.6-3.45,1.6-4.43,0-1.22-.36-2.71-1.6-3.89-1.4-1.33-2.96-1.42-3.78-1.49-.71,5.29-2.03,8.41-2.76,9.9-.67,1.38-1.69,3.25-2.85,3.25-.8,0-4.45-2-4.45-5.98,0-4.94,4.07-9.43,9.81-9.43,4.63,0,8.28,3.14,8.28,8.1,0,1.96-.6,3.52-1.42,4.74ZM100.16,104.66c-1.58,1.51-2.22,3.58-2.22,4.94,0,1.8,1.02,2.74,1.42,2.74,1.16,0,3.07-5.81,3.52-9.28-.65.22-1.65.56-2.71,1.6Z" fill="#222"/><path d="M118.6,108.51c-1.09-.87-2.07-1.42-2.96-1.89l1.36-1.89c.6.31,1.74.91,2.94,1.89l-1.33,1.89ZM120.04,115.2c-.16.4-1,2.36-1.02,2.42-.02.09,0,.47,0,.56,0,.16-.04.18-.11.18-.16,0-.51-.2-.56-.22l-1.89-1.13c1.42-2.31,2.18-4.61,2.74-6.61l2.02,1.36c-.36,1.13-.69,2.11-1.18,3.45ZM120.38,102.72c-1.31-1.18-2.09-1.65-2.94-2.09l1.31-1.76c.84.44,1.53.89,2.94,2.07l-1.31,1.78ZM134.7,118.21c-.65-.33-2.11-1.07-3.63-2.56-1.54-1.49-2.25-2.83-2.6-3.47-.6,1.45-2.05,4.32-6.21,6.1l-1.71-2.09c2.85-.91,5.29-2.85,6.14-6.01h-4.49v-2.25h4.76c.04-.93.04-1.18.04-3.23h-3.89v-2.22h3.87c-.02-1.29-.04-2.16-.16-3.52l2.58.09c.24,0,.64.04.64.31,0,.09-.09.16-.16.2-.29.22-.33.24-.33.44,0,.33.02,2.07.02,2.47h5.34l-.29,5.45h1.58v2.25h-6.16c1.18,2.69,3.54,4.65,6.25,5.85l-1.6,2.18ZM129.54,104.7c0,.91,0,1.13-.07,3.23h2.67l.13-3.23h-2.74Z" fill="#222"/><path d="M153.76,115.34c-1.82,1.76-3.6,2.25-4.63,2.54l-1.54-2.14c1-.2,2.71-.56,4.23-1.98,1.31-1.27,1.8-2.83,1.8-4.14,0-1.94-1.45-3.89-4.14-4.2-.67,2.25-1.29,4.14-2.58,6.39.42.69.64,1.02,1.02,1.51l-1.85,2.02c-.33-.44-.56-.78-.89-1.36-.64.65-2.2,2.2-3.67,2.2-1.56,0-2.8-1.4-2.8-3.8,0-3.49,2.14-5.61,2.98-6.45-.62-1.8-.96-2.91-1.25-4.09l2.6-1.05c.13,1.33.33,2.22.73,3.63,1.29-.67,2.18-.96,3.65-1.2.27-1.74.31-2.65.31-3.85l2.58.24c.2.02.71.07.71.33,0,.11-.09.16-.31.31-.07.04-.18.13-.18.22-.27,1.56-.29,1.71-.51,2.71.98.16,2.56.4,4.03,1.65,1.71,1.47,2.25,3.47,2.25,5.03,0,2.65-1.58,4.54-2.56,5.47ZM142.57,108.31c-1.4,1.89-1.49,3.34-1.49,3.87,0,.65.27,1.25.87,1.25.93,0,1.85-1.13,2.16-1.54-.47-1-.82-1.78-1.54-3.58ZM144.55,106.73c.31.85.64,1.65,1.09,2.6.6-1.36.91-2.29,1.31-3.72-.8.2-1.29.4-2.4,1.11Z" fill="#222"/><path d="M170.09,111.42v3.72c0,2.6-1,3-4.61,3.03l-1.09-2.76c.36.09,1.29.27,1.85.27.69,0,1.02-.36,1.02-1.05v-3.2h-8.19v-2.36h8.19v-2.14h-6.81v-2.34h6.81v-2.2c-2.16.18-3.63.27-5.92.29l-1.16-2.42c.82.04,1.74.11,3.16.11,2.98,0,7.59-.36,10.9-1.82l1.76,2.22c.07.09.24.29.24.47,0,.16-.16.27-.31.27-.36,0-.67-.2-.89-.31-.36.07-.84.18-1.09.22-.47.09-1.58.36-3.87.67v2.51h6.83v2.34h-6.83v2.14h8.25v2.36h-8.25Z" fill="#222"/></g></svg>