<?xml version="1.0" encoding="UTF-8"?><svg id="_レイヤー_2" xmlns="http://www.w3.org/2000/svg" viewBox="0 0 230.82 230.82"><defs><style>.cls-1{fill:#222;}.cls-1,.cls-2,.cls-3{stroke-width:0px;}.cls-2{fill:#dd9200;}.cls-4{fill:none;stroke:#222;stroke-linecap:round;stroke-linejoin:round;stroke-width:13.4px;}.cls-3{fill:#fff;}</style></defs><g id="_レイヤー_1-2"><circle class="cls-1" cx="115.41" cy="115.41" r="115.41"/><path class="cls-3" d="M55.2,60.44c.49-3.54,1.71-5.66,6.2-8.95,2.91-2.12,3.78-3.21,3.78-4.95,0-1.88-1.31-3.29-3.1-3.29-2.75,0-2.83,2.86-2.86,4.33h-3.46c.05-1.77.27-7.35,6.42-7.35,4.08,0,6.72,2.83,6.72,6.31,0,3.18-2.26,4.98-4.84,6.77-2.67,1.85-3.35,2.61-4.19,4.27h9.2v2.86h-13.88Z"/><path class="cls-3" d="M79.37,60.82c-6.31,0-6.91-7.4-6.91-9.96,0-3.26.57-10.64,6.91-10.64,2.5,0,4.16,1.22,5.22,2.91,1.36,2.18,1.69,4.82,1.69,7.37s-.41,10.31-6.91,10.31ZM79.32,43.16c-1.82,0-3.13,1.33-3.13,7.35-.03,6.28,1.42,7.37,3.18,7.37,1.99,0,3.16-1.52,3.16-7.37,0-6.28-1.42-7.35-3.21-7.35Z"/><path class="cls-3" d="M89.51,60.44c.49-3.54,1.71-5.66,6.2-8.95,2.91-2.12,3.78-3.21,3.78-4.95,0-1.88-1.31-3.29-3.1-3.29-2.75,0-2.83,2.86-2.86,4.33h-3.46c.05-1.77.27-7.35,6.42-7.35,4.08,0,6.72,2.83,6.72,6.31,0,3.18-2.26,4.98-4.84,6.77-2.67,1.85-3.35,2.61-4.19,4.27h9.2v2.86h-13.88Z"/><path class="cls-3" d="M118.12,56.19v4.24h-3.59v-4.24h-8.27v-2.86l7.84-12.76h4.03v12.98h2.67v2.64h-2.67ZM114.12,44.77l-4.95,8.05-.76.93.76-.19h5.36v-8.19l.14-1.8-.54,1.2Z"/><path class="cls-3" d="M139.84,56.47v5.36h-3.43v-5.36h-11.59v-2.88h3.92v-6.48h7.67v-3.26h-6.26c-1.55,2.48-2.39,3.37-3.05,4.08l-2.94-1.55c2.53-2.56,4.3-5.52,5.28-8.27l3.35,1.25c.14.05.19.16.19.24s-.05.19-.14.24c-.08.03-.52.14-.57.22-.05,0-.54.92-.6,1.03h15.07v2.75h-7.02v3.26h4.73v2.8h-4.73v3.67h8.33v2.88h-8.22ZM136.42,49.91h-4.38v3.67h4.38v-3.67Z"/><path class="cls-3" d="M170.28,42.48v1.58h4.49v2.42h-4.49v3.94h-10.04v-3.94h-2.86c-.05,2.64-.08,5.74-.82,9.47-.57,2.97-1.17,4.19-1.82,5.52l-2.99-.79c.6-1.06,1.01-1.82,1.47-3.51.82-2.91,1.17-6.09,1.17-10.23,0-2.23-.05-4.68-.22-6.88h8.38v-1.74l3.62.24c.05,0,.52.05.52.33,0,.22-.11.27-.27.35-.16.08-.3.22-.3.3v.52h9.66v2.42h-5.5ZM173.43,61.91c-3.46-.49-5.6-1.14-8.46-2.67-2.1,1.03-3.81,1.69-7.07,2.45l-1.61-2.39c2.07-.35,3.89-.82,6.15-1.74-.65-.54-1.58-1.28-2.88-2.8l2.48-.84h-4.24v-2.5h13.6l1.2,1.22c-1.5,2.09-2.72,3.35-4.79,4.87,1.52.6,3.35,1.25,7.18,1.66l-1.55,2.75ZM160.24,42.48h-2.86v1.58h2.86v-1.58ZM162.69,53.91c.74.95,1.42,1.61,2.48,2.23,1.47-1.03,2.12-1.77,2.53-2.23h-5.01ZM167.31,42.48h-4.16v1.58h4.16v-1.58ZM167.31,46.48h-4.16v1.66h4.16v-1.66Z"/><path class="cls-3" d="M98.18,92.69c-1.22-.95-3.56-2.75-5.79-6.23-2.18-3.43-2.86-6.34-3.24-7.94-2.07,6.39-4.98,11.05-9.69,14.31l-2.91-2.07c1.47-.95,4.24-2.78,6.61-6.5,2.48-3.94,2.91-7.51,3.13-9.33l2.39.6c-.08-.82-.11-1.33-.14-2.42h-5.5v-3.24h8.73c-.08.84-.11,1.88-.11,2.75,0,2.88.49,6.58,2.5,10.34,2.48,4.6,5.63,6.42,7.1,7.24l-3.1,2.5Z"/><path class="cls-3" d="M123.67,80.89v-3.26h-16.13v3.4h-2.94v-5.93h13.49c1.31-1.58,2.5-3.24,3.32-5.11l2.69.9c.16.05.46.24.46.46,0,.11-.05.14-.11.16-.08.08-.68.22-.79.33-.57,1.06-1.12,1.93-2.12,3.26h5.12v5.79h-2.99ZM117.31,86.68v4.11c0,1.9-1.58,2.37-3.24,2.37h-1.71l-1.2-2.88c.33.03,1.85.16,2.18.16.46,0,.65-.41.65-.82v-2.94h-9.39v-2.67h9.39v-1.69l1.31.22c.6-.52.82-.82,1.03-1.14h-7.26v-2.53h12.32l.76,1.2c-1.22,1.12-3.37,2.88-4.84,3.94h9.22v2.67h-9.22ZM108.76,74.85c-.65-1.33-1.28-2.34-2.34-3.62l2.5-1.52c.9,1.03,1.69,2.07,2.42,3.51l-2.58,1.63ZM114.94,74.3c-.68-1.39-1.39-2.53-2.53-3.92l2.48-1.47c1.28,1.5,2.04,2.75,2.67,4l-2.61,1.39Z"/><path class="cls-3" d="M146.78,79.04c-.54.52-1.28,1.2-2.72,2.29h8.05v11.37h-2.99v-.57h-9.22v.71h-2.94v-7.7c-1.22.52-1.93.79-3.51,1.39l-1.69-2.64c3.54-1.01,6.69-2.26,10.42-4.84h-10.34v-2.64h9.39v-2.07h-7.1v-2.56h7.1v-2.34l3.48.14c.25,0,.38.11.38.22,0,.19-.16.27-.27.35-.16.08-.38.19-.38.35v1.28h3.1v1.96c1.14-1.58,1.79-2.69,2.5-4.08l3.05,1.8c.08.05.22.16.22.33,0,.22-.22.27-.76.33-.38.05-.46.08-1.33,1.55-.19.3-1.17,1.69-2.04,2.75h5.82v2.64h-8.22ZM149.12,83.66h-9.22v1.77h9.22v-1.77ZM149.12,87.77h-9.22v1.93h9.22v-1.93ZM144.44,74.33v2.07h.84c.95-.98,1.42-1.61,1.77-2.07h-2.61Z"/><path class="cls-4" d="M35.71,131.63c1.48-14.91,12.7-23.3,26.75-23.3,15.78,0,25.76,8.87,25.76,22.68,0,4.31-.86,12.45-9.49,17.26,3.33,1.36,12.57,6.04,12.57,19.6,0,16.89-13.07,26.38-29.34,26.38s-28.23-9.74-29.58-25.51h16.02c.99,6.78,5.79,11.71,13.68,11.71,9.24,0,13.19-6.78,13.19-13.07s-3.7-12.82-13.68-12.82h-2.1v-11.59h2.22c7.89,0,11.22-5.55,11.22-11.22,0-6.53-4.31-10.85-10.85-10.85-5.67,0-10.97,3.7-11.34,10.72h-15.04Z"/><path class="cls-4" d="M103.89,182.51c2.85,0,5.05,2.2,5.05,5.05s-2.2,5.05-5.05,5.05-5.05-2.2-5.05-5.05,2.2-5.05,5.05-5.05Z"/><path class="cls-4" d="M112.64,170.15c0-14.82,8.09-22.52,16.7-22.52s16.7,7.7,16.7,22.58-8.09,22.52-16.7,22.52-16.7-7.7-16.7-22.58ZM121.06,170.15c0,11.26,4.59,15.34,8.28,15.34s8.28-4.08,8.28-15.34-4.66-15.27-8.28-15.27-8.28,4.08-8.28,15.27Z"/><path class="cls-4" d="M196.47,149.28v43.63h-44.23v-43.63h44.23ZM159.68,156.28v29.59h29.14v-29.59h-29.14ZM185.24,159.75v22.49h-22.09v-22.49h22.09ZM169.59,165.74v10.42h9.01v-10.42h-9.01Z"/><path class="cls-2" d="M35.71,131.63c1.48-14.91,12.7-23.3,26.75-23.3,15.78,0,25.76,8.87,25.76,22.68,0,4.31-.86,12.45-9.49,17.26,3.33,1.36,12.57,6.04,12.57,19.6,0,16.89-13.07,26.38-29.34,26.38s-28.23-9.74-29.58-25.51h16.02c.99,6.78,5.79,11.71,13.68,11.71,9.24,0,13.19-6.78,13.19-13.07s-3.7-12.82-13.68-12.82h-2.1v-11.59h2.22c7.89,0,11.22-5.55,11.22-11.22,0-6.53-4.31-10.85-10.85-10.85-5.67,0-10.97,3.7-11.34,10.72h-15.04Z"/><path class="cls-2" d="M103.89,182.51c2.85,0,5.05,2.2,5.05,5.05s-2.2,5.05-5.05,5.05-5.05-2.2-5.05-5.05,2.2-5.05,5.05-5.05Z"/><path class="cls-2" d="M112.64,170.15c0-14.82,8.09-22.52,16.7-22.52s16.7,7.7,16.7,22.58-8.09,22.52-16.7,22.52-16.7-7.7-16.7-22.58ZM121.06,170.15c0,11.26,4.59,15.34,8.28,15.34s8.28-4.08,8.28-15.34-4.66-15.27-8.28-15.27-8.28,4.08-8.28,15.27Z"/><path class="cls-2" d="M196.47,149.28v43.63h-44.23v-43.63h44.23ZM159.68,156.28v29.59h29.14v-29.59h-29.14ZM185.24,159.75v22.49h-22.09v-22.49h22.09ZM169.59,165.74v10.42h9.01v-10.42h-9.01Z"/><rect class="cls-3" x="102.18" y="105.63" width="104.28" height="29.49" rx="6.03" ry="6.03"/><path class="cls-1" d="M123.96,123.22v6.47h-2.78v-6.47h-8.12v-2.38h8.12v-7.23h-7.23v-2.31h17.38v2.31h-7.36v7.23h8.08v2.38h-8.08ZM117.46,119.97c-.27-.82-.96-2.83-2.16-4.63l2.23-.98c1.13,1.65,1.76,3.36,2.11,4.72l-2.18.89ZM129.92,115.66c-.38.16-.45.2-.51.36-.69,2-1.2,3.11-1.78,4.18l-2.18-.91c.71-1.6,1.38-3.27,1.98-4.96l2.22.73c.16.04.42.16.42.36,0,.16-.09.2-.16.24Z"/><path class="cls-1" d="M152.75,126.87c-.6,2.05-1.45,3.14-3.38,3.14h-1.85l-.98-2.71c.31.02,1.87.16,2.22.16.6,0,1.29-.44,1.58-1.74.73-3.14.76-6.36.78-9.57h-6.61c-.4.89-.67,1.38-1.13,2.11h4.81v2.45h-4.98v-2.16c-.42.62-.71.96-1.05,1.31l-2.25-1.13c.4-.44.67-.78,1.11-1.38h-1.85v5.16c.98-.4,1.45-.6,2.34-1.02v2.6c-1.65.85-3.03,1.4-5.43,2.42-.73.31-.82.33-.98.53-.16.18-.4.47-.53.47-.18,0-.31-.2-.33-.47l-.22-2.98c1-.18,1.71-.4,2.65-.69v-6.03h-2.22v-2.42h2.22v-4.25l2.47.31c.13.02.56.07.56.33,0,.11-.04.2-.13.29s-.38.38-.38.49v2.83h2.36v1.6c1.13-2.07,1.56-3.92,1.74-5.94l2.67.36c.22.02.4.13.4.33,0,.13-.11.27-.22.33-.22.16-.24.2-.27.27-.04.29-.16.82-.45,1.87h8.23c-.04,6.23-.07,10.37-.89,13.13ZM143.54,126.89c-.31.13-.82.33-.91.47-.18.22-.25.31-.4.31-.13,0-.25-.13-.29-.29l-.78-2.42c2.89-.8,5.72-2.16,7.92-3.4l.31,2.31c-2.4,1.42-5.25,2.78-5.85,3.03Z"/><path class="cls-1" d="M163.55,119.11c-1.09,1.33-1.82,2.05-2.94,2.94,2.18-.4,3.74-.93,5.7-2.36l1.49,1.45c.09.07.16.18.16.24,0,.11-.13.18-.2.18-.09,0-.18-.02-.27-.07-.09.02-.16.07-.31.16-2.62,1.58-4.47,2.11-6.03,2.43l-.93-1.74c-.98.71-1.62,1.11-2.51,1.58l-1.74-1.65c1.76-.89,2.94-1.74,4.4-3.16h-4.25v-2.11h5.94c.42-.69.56-.96.64-1.25l-4.05.13c-.47.02-.51.02-.58.11-.13.2-.16.24-.25.24-.04,0-.16-.02-.2-.18l-.62-2.47c1.49.07,2.83.09,4.27.09.69-1.33,1-1.96,1.38-2.96l2.91.33c.16.02.27.11.27.2,0,.13-.11.2-.18.22-.07.04-.33.16-.49.22-.16.29-.85,1.69-1,2,.87,0,3.47-.02,4.85-.04-.44-.36-.71-.51-1.47-1l1.49-1.45c2.62,1.67,3.85,2.87,4.83,3.98l-1.58,1.6c-.27-.31-.51-.62-1.38-1.47-1.94.16-4.69.33-5.81.31.51.13.71.18.71.38,0,.24-.33.29-.49.31-.16.29-.22.4-.38.67h9.74v2.11h-4.25c1.02,1.49,2.89,2.29,4.81,2.94l-1.78,1.87c-2.54-1.11-4.27-2.42-6.07-4.81h-3.85ZM157.17,127.92c7.76-.07,11.1-1.49,14.28-3.65l2.14,1.51c.09.07.13.11.13.22,0,.09-.09.16-.18.16-.09.02-.62.09-.73.11-5.16,2.87-7.54,3.65-14.48,3.76l-1.16-2.11ZM158.88,125.16c4.23-.33,6.81-1.2,9.68-3.18l1.74,1.29c.11.07.18.13.18.27s-.18.18-.27.18c-.42.02-.47.02-.56.09-1.96,1.62-5.96,2.98-9.88,3.25l-.89-1.89Z"/><path class="cls-1" d="M186.13,125.71c-.49,3.34-1.31,3.96-4.12,4.07l-.89-2.42c.51.09.85.11,1.16.11.98,0,1.33-.31,1.65-2.34.44-2.8.56-5.63.58-8.48h-2.05c-.16,2.45-.51,8.25-3.65,12.5l-2.71-.89c2.67-3.36,3.58-6.72,4.07-11.61h-2.78v-2.18h2.8c0-1.11-.02-2-.11-3.58l2.4.09c.22,0,.51.04.51.29,0,.16-.07.22-.25.38-.24.2-.27.27-.27.49v2.34h4.34c-.02,2.8-.04,6.96-.69,11.23ZM193.54,129.25v-1.11h-3.18v1.2h-2.23v-15.8h7.63v15.71h-2.22ZM193.54,115.86h-3.18v9.97h3.18v-9.97Z"/></g></svg>