<?xml version="1.0" encoding="UTF-8"?><svg id="_レイヤー_2" xmlns="http://www.w3.org/2000/svg" xmlns:xlink="http://www.w3.org/1999/xlink" viewBox="0 0 1204.89 294.85"><defs><style>.cls-1{filter:url(#drop-shadow-1);}.cls-2{fill:#fff;stroke-width:0px;}</style><filter id="drop-shadow-1" filterUnits="userSpaceOnUse"><feOffset dx="0" dy="0"/><feGaussianBlur result="blur" stdDeviation="10.46"/><feFlood flood-color="#000" flood-opacity=".26"/><feComposite in2="blur" operator="in"/><feComposite in="SourceGraphic"/></filter></defs><g id="_レイヤー_1-2"><g class="cls-1"><path class="cls-2" d="M22.49,71.48h-13.49v61.96H0V62.72h22.49v8.76ZM20.16,65.05H2.33v65.99h4.34v-61.88h13.49v-4.11Z"/><path class="cls-2" d="M95.15,130.5c-2.09-1.4-6.59-4.27-11.79-9.46-5.82-5.74-8.84-10.55-10.47-13.11v25.2h-8.92v-24.97c-4.81,7.44-12.02,15.51-21.95,22.02l-8.14-6.82c12.1-5.43,21.56-16.05,25.51-22.95h-24.43v-8.37h29v-8.22h-24.27v-8.53h24.27v-9.46l8.22.31c.54,0,2.33.23,2.33,1.16,0,.39-.46.78-.7,1.01-.7.62-.93.78-.93,1.16v5.82h24.5v8.53h-24.5v8.22h29v8.37h-24.43c7.68,11.48,14.35,17.29,25.67,22.8l-7.99,7.29Z"/><path class="cls-2" d="M157.56,104.91c5.51,8.84,14.11,14.97,23.42,19.7l-6.36,6.67c-12.17-6.51-18.15-14.58-21.95-20.01v21.48h-8.38v-22.72c-5.51,7.91-12.02,14.73-23.57,21.87l-6.59-6.28c10.7-5.82,18.77-12.72,24.19-20.7h-23.42v-7.75h15.59c-1.4-3.33-4.19-9.69-6.13-12.87l5.97-2.79h-11.63v-7.52h25.59v-8.14l8.45.93c.85.08,1.4.31,1.4.85,0,.39-.31.7-.7,1.01-.54.47-.78.7-.78.93v4.42h25.59v7.52h-13.42l5.66,2.48c.39.16,1.32.62,1.32,1.32,0,.23-.23.47-.54.62-.85.39-.93.39-1.08.78-1.4,3.41-2.09,4.96-5.12,10.47h16.59v7.75h-24.12ZM144.3,81.49h-12.1c1.55,2.09,4.65,8.76,6.05,12.95l-4.96,2.71h11.01v-15.66ZM152.68,81.49v15.66h8.76l-3.96-2.4c2.71-4.5,4.19-8.69,5.74-13.26h-10.55Z"/><path class="cls-2" d="M253.13,115.84c-5.82,8.61-13.88,11.94-18.07,13.65l-5.74-7.99c3.49-1.01,9.23-2.64,13.96-8.3,4.73-5.58,5.58-12.02,5.58-15.43,0-4.27-1.24-9.46-5.58-13.57-4.89-4.65-10.31-4.96-13.18-5.2-2.48,18.46-7.06,29.31-9.62,34.51-2.33,4.81-5.89,11.32-9.93,11.32-2.79,0-15.51-6.98-15.51-20.86,0-17.22,14.19-32.88,34.2-32.88,16.13,0,28.85,10.93,28.85,28.23,0,6.82-2.09,12.25-4.96,16.52ZM211.41,85.98c-5.51,5.27-7.75,12.48-7.75,17.21,0,6.28,3.57,9.54,4.96,9.54,4.03,0,10.7-20.24,12.25-32.34-2.25.78-5.74,1.94-9.46,5.58Z"/><path class="cls-2" d="M289.08,99.86c-4.89-3.26-9.69-5.74-15.43-7.52l4.26-7.83c5.89,1.86,11.01,4.42,15.9,8.06l-4.73,7.29ZM312.8,113.05c-7.91,6.82-16.75,12.48-26.05,17.14-1.01.54-1.16.54-1.32,1.16-.23,1.01-.39,1.4-.78,1.4-.7,0-1.55-1.63-1.78-2.09l-4.11-7.6c21.4-9.15,36.21-23.11,45.75-37.92l6.2,7.68c-2.48,3.8-7.37,11.24-17.91,20.24ZM296.99,81.72c-5.12-3.88-12.17-6.13-15.2-6.98l4.11-7.44c4.27,1.16,10.78,3.18,15.66,6.9l-4.58,7.52ZM320.64,79.7c-2.33-2.4-4.73-4.19-7.6-5.82l3.26-4.26c2.33,1.32,5.27,3.18,7.83,5.82l-3.49,4.26ZM328.55,73.42c-2.33-2.4-5.66-4.5-8.07-5.89l3.26-4.27c1.4.78,5.43,3.02,8.22,5.89l-3.41,4.27Z"/><path class="cls-2" d="M397.84,84.2c-2.95,7.99-6.44,17.53-14.11,27.3-8.3,10.47-17.29,15.43-22.72,18.38l-8.14-6.67c8.61-4.03,26.21-13.03,35.28-39.78h-41.33v-9h43.89c.85,0,1.63-.62,2.56-1.24l7.6,7.13c-1.24,1.09-2.4,2.25-3.02,3.88ZM392.65,71.56c-1.16-1.47-3.57-4.5-6.44-6.82l3.8-3.41c2.79,2.25,5.51,5.58,6.44,6.82l-3.8,3.41ZM404.05,71.17c-1.86-2.56-3.8-4.96-6.36-6.98l3.8-3.41c2.71,2.17,5.12,5.12,6.59,7.06l-4.03,3.33Z"/><path class="cls-2" d="M434.65,87.85c-4.42-3.64-9.69-6.98-15.9-9.77l4.73-7.29c5.12,2.25,11.4,5.58,16.28,9.62l-5.12,7.44ZM457.37,108.94c-12.25,9.93-19.62,13.18-29.23,17.29-.39,1.09-.54,2.4-1.16,2.4-.46,0-1.16-.47-1.71-1.47l-5.43-9.31c6.2-1.47,16.36-4.11,28.77-13.42,11.86-8.84,19.31-19.08,22.72-23.73l5.35,7.75c-3.02,4.03-9.07,12.17-19.31,20.47Z"/><path class="cls-2" d="M492.11,127.47h13.49v-61.96h9v70.72h-22.49v-8.76ZM494.44,133.91h17.83v-65.99h-4.34v61.88h-13.49v4.11Z"/><path class="cls-2" d="M578.19,125.3c-1.63,1.63-4.19,3.02-8.84,3.02-2.33,0-4.42-.16-5.82-.31l-1.86-8.37c1.4.31,3.02.62,5.27.62,2.4,0,3.96-.47,5.35-2.17,3.49-4.34,4.11-14.11,4.11-17.84,0-5.97-1.47-7.83-6.28-7.83-1.71,0-3.26.23-4.19.39-3.96,15.9-7.68,25.2-14.73,35.9l-8.07-3.64c7.29-10.39,10.93-18.07,14.04-30.24-4.19,1.32-6.67,2.33-10.55,4.19l-2.87-9.31c5.89-.93,8.53-1.47,14.89-2.87.62-4.96.85-8.22.78-14.73l9.31,1.32c1.01.16,1.86.54,1.86,1.16,0,.31-.08.39-.85.85q-.93.62-1.09,1.63c-.39,3.1-.54,4.5-1.16,7.99,1.24-.23,3.41-.54,5.66-.54,10.47,0,11.4,9.23,11.4,16.13,0,11.17-2.71,21.17-6.36,24.66ZM592.61,107.77l-4.11-7.37c2.79-.39,4.42-.78,4.42-2.64s-2.95-8.3-11.17-17.84l6.28-4.34c3.57,4.27,14.11,16.75,14.11,24.97,0,5.89-6.67,6.82-9.54,7.21ZM599.36,82.96c-1.94-2.79-3.72-4.73-6.13-6.82l4.19-3.1c2.17,1.94,4.26,4.34,5.97,6.59l-4.03,3.33ZM607.27,78.38c-1.55-2.56-3.41-4.73-5.5-6.67l4.03-2.95c2.09,1.71,4.11,3.88,6.05,6.51l-4.58,3.1Z"/><path class="cls-2" d="M628.05,110.18c6.51,3.8,12.41,8.69,17.21,16.83l-8.06,6.44c-4.03-6.75-8.92-12.33-14.97-17.21l5.82-6.05Z"/><path class="cls-2" d="M712.11,95.13c4.81,9.15,7.29,12.48,10.24,16.13l-4.73,5.89c-3.72-2.02-11.4-5.89-20.32-5.89-5.12,0-9.38,2.17-9.38,6.36,0,6.59,10.08,6.59,12.72,6.59,7.37,0,11.79-1.16,15.51-2.09l-.78,9.15c-2.17.31-6.13.93-12.25.93-13.96,0-23.57-4.42-23.57-14.66s8.38-13.49,17.14-13.49c3.88,0,7.29.54,11.09,1.24-1.86-3.33-2.56-4.73-4.03-7.6-8.14,2.02-14.81,3.26-24.89,3.41l-2.71-7.83c11.01-.08,16.05-.54,24.43-2.33-1.16-2.64-2.02-4.58-2.79-6.36-7.83,1.55-12.17,2.02-18.46,2.09l-2.4-7.44c7.44-.08,11.4-.39,18.07-1.55-1.78-4.81-2.64-7.29-3.88-10.93l8.84-1.01c.62-.08,2.56-.31,2.56.62,0,.39-.23.62-.62,1.01-.62.62-.7.85-.7,1.09,0,.54,1.32,4.34,2.33,7.13,5.27-1.86,8.22-3.18,13.26-5.97l1.71,7.52c-4.42,2.79-8.69,4.11-12.25,5.27,1.01,2.4,1.32,3.18,2.56,5.89,5.66-2.25,8.84-3.88,14.11-6.98l1.4,7.75c-4.26,2.79-7.37,4.19-12.17,6.05Z"/><path class="cls-2" d="M761.95,127.39l-4.03-8.14c2.87.23,4.42.31,5.66.31,6.44,0,22.41-2.87,22.41-14.58,0-8.3-7.13-10.24-11.17-10.24-3.49,0-11.17,2.33-15.12,3.57-1.55.47-6.59,2.09-13.96,4.73l-3.8-8.14c7.44-1.01,12.72-2.56,20.78-4.89,4.81-1.4,9.31-2.09,12.48-2.09,9.62,0,18.3,5.2,18.3,17.53,0,17.45-18.38,20.47-31.56,21.95Z"/><path class="cls-2" d="M838.36,130.88c-9.15,0-13.18-1.09-17.06-3.1-5.58-2.95-7.91-8.37-7.91-13.26,0-9.69,7.52-14.66,16.05-19.7-2.17-2.33-3.64-4.81-4.58-6.98-1.09-2.56-1.47-4.81-3.96-19.62l9.93-1.47c.08,4.34.16,12.56,2.25,18.38,1.09,2.95,2.71,4.19,4.5,5.27,8.92-4.19,9.93-4.65,19.46-9.15l2.87,9.46c-12.25,3.33-23.73,9.07-28.69,12.25-3.49,2.17-9.23,6.13-9.23,11.32,0,5.58,6.13,8.3,14.27,8.3s16.13-1.55,23.96-3.49v9.93c-4.65.7-12.17,1.86-21.87,1.86Z"/><path class="cls-2" d="M931.57,132.05h-10.47c-5.12,0-8.45-2.33-8.45-6.98v-17.6h-9.23l5.12,2.64c.31.16.54.54.54.78,0,.31-.31.54-.46.62-1.47.78-1.55.78-1.94,1.55-2.33,4.5-7.99,15.59-22.49,20.47l-6.2-6.75c2.25-.47,8.14-1.78,13.8-7.06,4.96-4.5,6.67-9.46,7.6-12.25h-12.41v-40.17h47.15v40.17h-12.87v14.5c0,1.47,1.09,2.02,2.33,2.02h7.68c1.94,0,2.87,0,5.04-8.37l7.37,4.58c-2.79,9.46-4.96,11.86-12.1,11.86ZM924.91,74.82h-28.69v4.11h28.69v-4.11ZM924.91,85.21h-28.69v4.11h28.69v-4.11ZM924.91,95.6h-28.69v4.34h28.69v-4.34Z"/><path class="cls-2" d="M1000.1,118.55c-8.14,4.11-17.29,5.58-26.37,5.89l-3.96-10.16c2.33.31,5.2.39,7.6.39,13.26,0,27.61-5.43,27.61-17.76,0-9.77-8.37-12.72-14.27-12.72-4.42,0-11.79,1.94-17.21,3.49-2.87.78-15.59,4.5-18.22,5.2l-4.19-9.77c7.37-.78,14.81-2.48,19.93-3.72,9.31-2.33,14.11-3.49,19.39-3.49,10.39,0,23.81,5.27,23.81,21.95,0,11.32-7.29,17.21-14.11,20.7Z"/><path class="cls-2" d="M1066.46,122.43c-3.33,5.66-8.3,5.97-11.63,5.97-2.09,0-4.5-.16-6.67-.47l-1.09-9.38c1.71.54,3.96,1.24,6.98,1.24,2.33,0,3.57-.39,4.65-1.94,1.47-2.09,4.73-11.48,4.73-19.31,0-4.11-.85-6.59-6.44-6.59-1.4,0-2.95.16-4.42.39-4.03,14.19-8.14,23.26-16.05,36.14l-8.84-3.95c6.82-8.69,10.78-15.59,15.35-30.32-3.8.93-6.98,1.86-11.01,3.33l-3.1-9.38c5.66-.47,12.79-1.78,16.21-2.33.93-4.96,1.63-9.07,1.71-15.51l9.46,1.32c.62.08,2.17.54,2.17,1.24,0,.31-.16.54-1.01,1.09-1.4.85-1.55.93-1.63,1.71-.39,2.79-.93,5.51-1.47,8.45,1.71-.31,4.03-.62,6.13-.62,10.55,0,11.4,8.61,11.4,13.34,0,6.44-1.32,18.46-5.43,25.59ZM1080.5,107.46l-5.27-7.99c3.33-.31,5.12-.47,5.12-2.33,0-2.4-4.34-10.16-8.61-15.04l6.44-4.65c10.16,10.86,12.1,20.01,12.1,22.8,0,4.42-4.81,6.28-9.77,7.21Z"/><path class="cls-2" d="M1131.3,130.42c-9.69,0-14.66-4.89-14.66-10.62,0-4.42,3.8-10.31,11.4-10.31,8.06,0,13.1,6.36,15.28,9.07,1.71-1.55,5.12-4.81,5.12-10.31,0-7.68-7.52-10.16-12.56-10.16-3.33,0-6.98.93-8.84,1.94-4.81,2.56-11.63,9.46-15.97,13.88l-6.51-6.82c8.06-6.05,16.28-12.95,28.69-27.99-4.65,1.09-8.92,1.86-18.15,1.94l-1.78-8.69c1.86.16,6.28.47,8.68.47,2.95,0,16.13-1.01,23.5-3.88l4.03,6.28c-4.65,3.88-5.97,5.12-17.21,16.59,2.56-.39,6.36-.47,7.52-.47,10.55,0,17.21,8.61,17.21,17.14,0,12.87-12.1,21.95-25.75,21.95ZM1128.35,116.3c-3.18,0-3.88,2.25-3.88,3.26,0,2.71,3.57,3.49,6.36,3.49,2.48,0,4.19-.47,5.27-.7-1.01-1.78-3.33-6.05-7.75-6.05Z"/><path class="cls-2" d="M1204.89,121.42c0,6.59-5.35,11.94-11.94,12.02-6.59,0-12.02-5.43-12.02-12.02s5.43-11.94,12.02-11.94,11.94,5.27,11.94,11.94ZM1184.65,121.42c0,4.58,3.72,8.3,8.3,8.22,4.58,0,8.22-3.64,8.22-8.22s-3.72-8.22-8.22-8.22-8.3,3.64-8.3,8.22Z"/><path class="cls-2" d="M23.33,206.1l.29,15.55c.08,5.15-2.58,5.6-8.14,5.65l-2-5.03c.49.08,1.84.29,3.11.29,1.68,0,2.13-.41,2.13-1.23l-.16-11.09c-3.31,4.87-8.34,8.88-13.29,12.07l-3.56-3.56c6.34-3.03,11.17-7.9,14.11-12.64H3.04v-4.38h15.38l-.16-7.73,4.75.25c.25,0,.94.04.94.53,0,.12-.04.25-.33.45-.45.33-.53.41-.53.61l.16,5.89h8.26v4.38h-8.18Z"/><path class="cls-2" d="M40.68,213.38v-5.2h29.09v5.2h-29.09Z"/><path class="cls-2" d="M104.4,203.03c-1.55,4.13-3.31,8.8-7.2,13.83-4.38,5.69-9.29,8.43-12.11,9.98l-4.46-3.6c2.78-1.27,8.59-3.97,13.58-10.72,3.11-4.17,4.38-7.9,5.11-10.02h-21.8v-4.75h23.15c.49,0,.94-.33,1.35-.65l4.05,3.68c-.65.57-1.27,1.19-1.68,2.25ZM107.14,198.37c-2.09,0-3.8-1.76-3.8-3.93s1.68-3.89,3.8-3.89,3.85,1.76,3.85,3.89-1.72,3.93-3.85,3.93ZM107.14,192.15c-1.19,0-2.25.98-2.25,2.29s1.1,2.33,2.25,2.33,2.25-.94,2.25-2.33c0-1.31-1.02-2.29-2.25-2.29Z"/><path class="cls-2" d="M125.96,204.67c-2.33-1.92-5.11-3.68-8.39-5.15l2.5-3.85c2.7,1.19,6.01,2.95,8.59,5.07l-2.7,3.93ZM137.95,215.8c-6.46,5.24-10.35,6.95-15.42,9.12-.21.57-.29,1.27-.61,1.27-.25,0-.61-.25-.9-.78l-2.86-4.91c3.27-.78,8.63-2.17,15.18-7.08,6.26-4.66,10.19-10.06,11.99-12.52l2.82,4.09c-1.6,2.13-4.79,6.42-10.19,10.8Z"/><path class="cls-2" d="M174.57,214.41l2.25,12.72-4.75.94-2.21-13.05-13.29,1.72-.61-4.46,13.13-1.72-.9-5.28-9.9,1.31-.57-4.25,9.78-1.23-1.27-7.32,4.3-.25c.9-.04,1.23.08,1.23.41,0,.16-.7.9-.65,1.1l.98,5.4,8.92-1.15.61,4.25-8.79,1.15.94,5.24,11.9-1.55.57,4.5-11.66,1.51Z"/><path class="cls-2" d="M217.02,217.92l-3.72-1.6c.7-1.19.82-1.43,1.96-3.31.78-1.27.86-1.39,1.64-2.74l-7.45,1.51,3.07,15.63-4.38,1.02-2.82-15.79-7.49,1.55-1.47-3.68,8.26-1.6-1.35-7.32,3.89-.45c.2-.04,1.06-.08,1.06.37,0,.08,0,.16-.33.57-.08.12-.29.41-.25.61l1.1,5.4,9.57-1.84c.7-.12,1.19-.78,1.39-1.06l3.31,2.41c-1.8,2.99-3.19,5.36-6.01,10.31Z"/><path class="cls-2" d="M237.79,204.67c-2.33-1.92-5.11-3.68-8.39-5.15l2.5-3.85c2.7,1.19,6.01,2.95,8.59,5.07l-2.7,3.93ZM249.78,215.8c-6.46,5.24-10.35,6.95-15.42,9.12-.21.57-.29,1.27-.61,1.27-.25,0-.61-.25-.9-.78l-2.86-4.91c3.27-.78,8.63-2.17,15.18-7.08,6.26-4.66,10.19-10.06,11.99-12.52l2.82,4.09c-1.6,2.13-4.79,6.42-10.19,10.8Z"/><path class="cls-2" d="M278.69,201.15c-.12.12-.86.49-.98.65-.16.16-.82,2.95-.98,3.48-2.99,10.06-7.04,15.5-8.92,18.04l-5.2-2.05c5.65-6.1,9.08-14.65,10.39-22.21l4.95,1.1c.12.04.98.25.98.65,0,.16-.12.25-.25.33ZM293.99,222.06c-1.43-6.63-5.44-15.87-9.53-20.95l4.25-2.41c3.64,4.75,8.1,13.38,10.39,21.03l-5.11,2.33ZM296.65,202.71c-2.09,0-3.85-1.76-3.85-3.97s1.72-3.93,3.85-3.93,3.89,1.8,3.89,3.93-1.76,3.97-3.89,3.97ZM296.65,196.45c-1.31,0-2.25,1.1-2.25,2.29,0,1.27,1.02,2.33,2.25,2.33s2.29-1.02,2.29-2.33c0-1.23-.98-2.29-2.29-2.29Z"/><path class="cls-2" d="M333.7,225.33c-3.72-4.58-6.63-7.53-9.98-10.23-3.27,3.64-6.3,6.75-13.99,10.51l-3.6-3.72c2.66-1.15,7.85-3.31,13.05-8.84,4.42-4.7,6.01-8.84,6.96-11.17h-15.59v-4.75h17.63c.78,0,1.39-.41,2.13-.9l3.15,3.48c-.82.57-1.72,1.27-2.21,2.45-1.39,3.27-2.17,5.15-4.75,9.16,3.97,2.99,7.49,6.46,10.84,10.1l-3.64,3.89Z"/><path class="cls-2" d="M362.16,205.32c-3.03,3.03-4.99,6.71-4.99,9.82,0,2.82,1.8,4.5,2.95,5.32,2.66,1.88,5.52,2,7.2,2.09l-1.6,4.99c-2.17-.37-6.75-1.23-10.06-4.54-1.96-1.92-3.03-4.58-3.03-7.36s1.02-5.48,2.78-8.14c1.92-2.99,3.97-4.91,5.4-6.22-5.48.45-11.5.94-15.59,1.51l-.7-4.58c8.84.08,21.52-.9,29.25-3.27v4.75c-1.92.12-6.42.41-11.62,5.65ZM370.71,212.32c-.9-1.1-1.76-1.92-3.35-3.15l1.68-1.96c1.35,1.02,2.37,1.88,3.4,3.15l-1.72,1.96ZM374.02,208.6c-1.06-1.23-2.04-2.13-3.4-3.11l1.72-1.96c1.72,1.27,2.54,2.13,3.4,3.11l-1.72,1.96Z"/><path class="cls-2" d="M20.87,294.48l-2.99-3.76c1.68-.2,4.62-.65,7-2.9,1.47-1.39,2.37-3.4,2.37-5.65,0-3.93-2.95-5.15-4.09-5.65-2.04,4.3-3.6,6.95-6.67,10.31.29.98.37,1.15.78,2.45l-3.93,2.13c-.29-.61-.33-.74-.57-1.51-1.1.7-3.35,2.05-5.85,2.05s-4.5-2-4.5-5.32c0-2.78,1.51-8.51,8.92-12.6.08-1.6.2-2.62.41-4.54-2.58.12-3.64.12-5.85.12l-1.35-4.05c1.47.16,4.79.41,7.77.29.49-2.9.86-4.42,1.51-6.91l4.25,1.15c1.02.29,1.02.49,1.02.61,0,.37-.49.49-.94.61-.45,1.02-.78,2.21-1.27,4.01,5.36-.9,7.65-1.76,10.02-2.74v4.38c-3.93,1.15-6.5,1.68-10.8,2.17-.25,1.51-.29,1.72-.49,3.35,1.76-.33,2.66-.37,4.46-.33.21-.82.33-1.35.49-2.13l4.7,1.02-.65,1.88c4.58,1.55,7.36,4.58,7.36,9.41,0,9-8.3,11.33-11.13,12.15ZM11.26,278.45c-3.68,3.07-4.7,5.65-4.7,7.32s.82,1.92,1.51,1.92c1.6,0,2.91-1.06,3.8-1.76-.41-2.9-.53-4.62-.61-7.49ZM15.31,276.12c-.08,3.07.08,4.58.21,5.89,1.59-2.41,2.41-4.05,3.35-6.34-1.43-.04-2.21.04-3.56.45Z"/><path class="cls-2" d="M53.36,269.49c-3.31,9.57-5.44,13.66-7.57,17.55l-4.38-1.88c3.27-4.99,5.32-10.27,7-14.89-1.88.25-3.03.37-4.95.49l-.61-4.25c2.7-.04,4.42-.2,6.95-.53.7-2.45,1.19-4.25,1.47-6.75l4.46.98c.21.04.98.25.98.7,0,.41-.7.65-.94.9-.04.04-.82,2.66-.98,3.19,2.41-.61,3.64-1.02,4.7-1.39v4.58c-1.39.37-2.66.7-6.14,1.31ZM67.84,291.25c-1.39-1.15-2.45-1.84-4.05-2.7-.37,3.27-1.6,4.99-6.96,4.99-2.62,0-4.95-.41-6.67-1.92-.65-.57-1.51-1.76-1.51-3.48,0-2.21,1.6-5.81,7.24-5.81,1.35,0,2.37.12,3.19.25-.08-.94-.57-5.11-.57-5.97,0-1.96.94-3.19,1.76-4.17l4.25,2.29c-1.31,1.06-1.55,2.09-1.55,3.27,0,.86.08,2.66.53,5.69,2.7,1.06,4.46,2.09,7.04,3.72l-2.7,3.85ZM55.73,286.06c-2.13,0-3.11,1.15-3.11,1.96,0,.9,1.15,1.84,3.4,1.84,3.31,0,3.27-1.72,3.27-3.19-.74-.2-2.17-.61-3.56-.61ZM69.68,273.78c-2.7-1.64-4.91-2.7-8.96-3.72l1.84-3.52c3.03.53,6.1,1.47,9.12,3.76l-2,3.48Z"/><path class="cls-2" d="M93.2,271.08c-2,6.79-4.13,13.38-8.43,21.76l-4.99-1.51c2.45-3.97,5.07-8.39,8.3-19.47-3.27.41-4.66.45-6.1.49l-.33-4.25c.45.08,1.31.25,3.31.25.57,0,3.15-.04,4.05-.25.61-2.78,1.31-5.93,1.39-8.67l5.03,1.19c.08,0,1.02.2,1.02.65,0,.29-.12.41-.49.57-.53.25-.61.29-.7.7-.37,1.84-.7,3.31-.98,4.46,2.41-.53,4.87-1.64,6.5-2.41v4.54c-1.39.45-3.11,1.1-7.61,1.96ZM103.55,293.13c-7.36,0-10.51-2.05-10.51-6.22,0-.2,0-1.51.49-2.95l4.05.86c-.16.78-.16,1.43-.16,1.51,0,.53.08.86.49,1.23,1.15,1.06,4.25,1.1,5.2,1.1,3.8,0,6.01-.61,7.2-.9l.41,4.75c-2.09.37-4.29.61-7.16.61ZM104.45,276.89c-2.62,0-5.15.33-6.14.45v-4.3c2.13-.16,4.17-.29,6.34-.29,2.86,0,4.17.12,5.4.25v4.34c-3.07-.41-4.99-.45-5.6-.45Z"/><path class="cls-2" d="M149.54,285.32c-3.07,4.54-7.32,6.3-9.53,7.2l-3.03-4.21c1.84-.53,4.87-1.39,7.36-4.38,2.5-2.95,2.95-6.34,2.95-8.14,0-2.25-.65-4.99-2.95-7.16-2.58-2.45-5.44-2.62-6.96-2.74-1.31,9.74-3.72,15.46-5.07,18.2-1.23,2.54-3.11,5.97-5.24,5.97-1.47,0-8.18-3.68-8.18-11,0-9.08,7.49-17.35,18.04-17.35,8.51,0,15.22,5.77,15.22,14.89,0,3.6-1.1,6.46-2.62,8.71ZM127.54,269.57c-2.91,2.78-4.09,6.59-4.09,9.08,0,3.31,1.88,5.03,2.62,5.03,2.13,0,5.64-10.68,6.46-17.06-1.19.41-3.03,1.02-4.99,2.95Z"/><path class="cls-2" d="M163.9,268.75v-5.28c0-.78,0-5.24,5.52-5.85v2.78c-2.78.12-2.95,1.88-3.03,2.74h3.03v5.6h-5.52ZM171.27,268.75v-5.28c0-.78,0-5.24,5.48-5.85v2.78c-2.74.12-2.9,1.88-3.03,2.74h3.03v5.6h-5.48Z"/><path class="cls-2" d="M214.71,276.4v-4.91h-24.26v5.11h-4.42v-8.92h20.29c1.96-2.37,3.76-4.87,4.99-7.69l4.05,1.35c.25.08.7.37.7.7,0,.16-.08.2-.16.25-.12.12-1.02.33-1.19.49-.86,1.6-1.68,2.9-3.19,4.91h7.69v8.71h-4.5ZM205.14,285.12v6.18c0,2.86-2.37,3.56-4.87,3.56h-2.58l-1.8-4.34c.49.04,2.78.25,3.27.25.7,0,.98-.61.98-1.23v-4.42h-14.11v-4.01h14.11v-2.54l1.96.33c.9-.78,1.23-1.23,1.55-1.72h-10.92v-3.8h18.53l1.15,1.8c-1.84,1.68-5.07,4.34-7.28,5.93h13.87v4.01h-13.87ZM192.29,267.32c-.98-2-1.92-3.52-3.52-5.44l3.76-2.29c1.35,1.55,2.54,3.11,3.64,5.28l-3.89,2.45ZM201.58,266.5c-1.02-2.09-2.09-3.8-3.8-5.89l3.72-2.21c1.92,2.25,3.07,4.13,4.01,6.01l-3.93,2.09Z"/><path class="cls-2" d="M241.21,264.87c-1.92,3.07-5.69,9.04-5.69,15.95,0,4.25,2.33,7.2,6.42,7.2,7.77,0,7.77-9.61,7.77-11.58,0-6.5-2.04-10.76-3.31-13.5l4.34-2.09c2.82,5.56,5.73,10.1,11.13,14.69l-3.11,3.76c-2.5-2.62-4.05-4.95-5.73-7.98.21,1.02.66,3.52.66,6.71,0,10.51-5.4,14.69-11.54,14.69-6.96,0-11.17-5.24-11.17-11.17,0-4.54,1.96-9.49,3.44-12.8-2.21,1.19-3.6,1.68-5.4,2.21l-2.33-4.3c4.87-1.02,7.49-2.29,10.96-4.95l3.56,3.15ZM258.64,266.3c-.94-1.27-2.13-2.41-3.23-3.4l1.64-1.84c1.27.98,2.33,2.05,3.35,3.31l-1.76,1.92ZM261.38,262.41c-.94-1.06-1.96-2.09-3.19-2.99l1.76-1.96c1.15.94,2.13,1.84,3.11,2.9l-1.68,2.05Z"/><path class="cls-2" d="M280.89,271.08c-2,6.79-4.13,13.38-8.43,21.76l-4.99-1.51c2.45-3.97,5.07-8.39,8.3-19.47-3.27.41-4.66.45-6.1.49l-.33-4.25c.45.08,1.31.25,3.31.25.57,0,3.15-.04,4.05-.25.61-2.78,1.31-5.93,1.39-8.67l5.03,1.19c.08,0,1.02.2,1.02.65,0,.29-.12.41-.49.57-.53.25-.61.29-.7.7-.37,1.84-.7,3.31-.98,4.46,2.41-.53,4.87-1.64,6.5-2.41v4.54c-1.39.45-3.11,1.1-7.61,1.96ZM291.24,293.13c-7.36,0-10.51-2.05-10.51-6.22,0-.2,0-1.51.49-2.95l4.05.86c-.16.78-.16,1.43-.16,1.51,0,.53.08.86.49,1.23,1.15,1.06,4.25,1.1,5.2,1.1,3.8,0,6.01-.61,7.2-.9l.41,4.75c-2.09.37-4.29.61-7.16.61ZM292.14,276.89c-2.62,0-5.15.33-6.14.45v-4.3c2.13-.16,4.17-.29,6.34-.29,2.86,0,4.17.12,5.4.25v4.34c-3.07-.41-4.99-.45-5.6-.45Z"/><path class="cls-2" d="M314.23,290.35c-1.31,0-2.33-.7-3.03-1.35-2.86-2.78-4.17-7.57-4.17-15.34,0-5.24.57-7.9,1.23-10.64l4.5,1.23c.29.08.94.29.94.78,0,.45-.49.61-1.19.86-.45,2.25-.78,4.62-.78,9.12,0,7.98,1.96,9.45,2.78,9.45,1.47,0,3.15-4.34,3.93-6.3l3.4,3.03c-2.25,4.83-4.3,9.16-7.61,9.16ZM334.97,283.07c-1.19-8.51-3.89-13.34-6.01-16.61l4.21-2.05c1.96,2.78,5.6,7.94,6.71,17.39l-4.91,1.27Z"/><path class="cls-2" d="M354.11,257.63v5.32c0,.78,0,5.24-5.48,5.81v-2.74c2.74-.12,2.9-1.88,3.03-2.74h-3.03v-5.65h5.48ZM361.48,257.63v5.32c0,.78-.04,5.24-5.52,5.81v-2.74c2.78-.12,2.95-1.88,3.03-2.74h-3.03v-5.65h5.52Z"/><path class="cls-2" d="M395.92,279.18c0,1.6.08,6.67.08,8.06h-4.75c.12-2.33.16-4.34.2-6.14-1.55.78-5.81,2.9-5.81,5.77,0,2.66,3.15,3.19,6.14,3.19,3.52,0,7-.53,10.43-1.31v4.62c-3.89.61-8.43.61-9.74.61-2.29,0-7.04,0-9.61-2.74-1.55-1.64-1.55-3.44-1.55-4.01,0-5.07,3.76-7,9.9-10.15-.25-1.23-.74-2.7-3.11-2.7-4.01,0-6.46,3.72-8.71,7.4l-4.01-2.5c3.23-3.48,5.28-6.38,8.06-11.25-2.33.12-3.6.16-5.32.16l-.49-4.25c2.45.2,4.25.29,7.81.16,1.02-2.21,1.55-3.64,2.05-5.44l5.11.9c.12.04.82.12.82.41,0,.25-.16.37-.41.45-.08.04-.9.41-.94.41-.04.04-1.06,2.33-1.27,2.78,3.76-.61,5.6-1.15,8.02-2.09l-.29,4.58c-3.68.86-7.04,1.23-9.78,1.55-1.31,2.41-1.64,2.99-2.33,4.05.53-.25,1.76-.86,3.52-.86,2.82,0,4.62,1.43,5.56,4.13,4.79-2.25,5.32-2.5,7.24-3.35l1.39,4.66c-3.23,1.02-5.2,1.72-8.22,2.86Z"/><path class="cls-2" d="M440.33,293.87h-5.52c-2.7,0-4.46-1.23-4.46-3.68v-9.29h-4.87l2.7,1.39c.16.08.29.29.29.41,0,.16-.16.29-.25.33-.78.41-.82.41-1.02.82-1.23,2.37-4.21,8.22-11.86,10.8l-3.27-3.56c1.19-.25,4.3-.94,7.28-3.72,2.62-2.37,3.52-4.99,4.01-6.46h-6.54v-21.19h24.87v21.19h-6.79v7.65c0,.78.57,1.06,1.23,1.06h4.05c1.02,0,1.51,0,2.66-4.42l3.89,2.41c-1.47,4.99-2.62,6.26-6.38,6.26ZM436.81,263.68h-15.14v2.17h15.14v-2.17ZM436.81,269.16h-15.14v2.17h15.14v-2.17ZM436.81,274.64h-15.14v2.29h15.14v-2.29Z"/><path class="cls-2" d="M477.05,286.75c-4.29,2.17-9.12,2.95-13.91,3.11l-2.09-5.36c1.23.16,2.74.2,4.01.2,7,0,14.56-2.86,14.56-9.37,0-5.15-4.42-6.71-7.53-6.71-2.33,0-6.22,1.02-9.08,1.84-1.51.41-8.22,2.37-9.61,2.74l-2.21-5.15c3.89-.41,7.81-1.31,10.51-1.96,4.91-1.23,7.45-1.84,10.23-1.84,5.48,0,12.56,2.78,12.56,11.58,0,5.97-3.84,9.08-7.45,10.92Z"/><path class="cls-2" d="M500.84,291.17l-3.93.61c-1.1-2.54-3.27-7.4-3.27-17.43,0-5.2.61-8.84,1.64-14.52l4.13,1.19c.12.04,1.19.33,1.19.74,0,.16-.12.25-.65.65-.86.7-1.96,7.57-1.96,13.17,0,2.41.12,5.11.82,7.73.57-1.51.82-2.09,1.64-3.93l3.07,2.13c-1.39,3.19-2.17,6.38-2.66,9.65ZM518.8,272.56c.04,1.23.04,1.76.04,2.45,0,10.35-3.19,15.26-5.48,18.78l-4.62-2.37c1.6-2.05,2.86-3.72,4.01-6.83.94-2.58,1.51-4.01,1.51-8.96v-2.17c-3.11.45-5.15.57-8.47.61l-.94-4.7c1.31.08,1.88.08,2.62.08,3.07,0,5.15-.29,6.59-.45-.25-3.15-.53-5.4-1.19-8.84l4.79.16c.37,0,1.06,0,1.06.49,0,.16-.25.45-.37.61-.29.37-.37.53-.37.74s.08,1.06.12,1.27c0,.16.21,2.58.37,4.62,2.21-.61,3.48-1.06,5.56-1.96l.16,4.7c-1.68.65-2.99,1.1-5.4,1.76Z"/><path class="cls-2" d="M555.88,291.46c-2.78-2.13-4.83-3.48-8.47-4.99.25,4.01-1.02,6.38-7.69,6.38-7.45,0-9.7-2.99-9.7-5.77,0-3.56,3.56-6.38,9.53-6.38,1.35,0,2.33.12,2.99.2-.29-9.49-.25-10.55-.25-17.71v-2.9l4.91.7c.2.04.98.16.98.53,0,.16-.04.2-.53.53-.25.16-.45.29-.49.61-.08.53-.21,3.52-.21,4.95.57.08.82.08,1.72.08,4.79,0,7.04-.9,8.3-1.39v4.75c-2.95.74-5.6.98-7.45.98-.82,0-1.92-.04-2.74-.12-.04,3.48-.04,4.79.29,9.98,4.71,1.47,7.45,2.78,11.37,5.44l-2.58,4.13ZM539.02,284.67c-2.58,0-4.01.94-4.01,2.13,0,1.72,3.03,2.09,4.38,2.09,3.27,0,3.23-2.05,3.23-3.85-.74-.12-2.09-.37-3.6-.37Z"/><path class="cls-2" d="M587.55,287.94c-3.48,4.21-7.86,5.77-10.64,6.79l-3.15-3.93c2.41-.7,6.83-2,10.23-6.14,1.72-2.13,2.99-4.83,2.99-7.81,0-3.6-2.41-4.34-3.68-4.34-3.4,0-9.98,3.27-12.97,4.75l-1.88-4.75c3.03-1.19,10.84-4.3,16.08-4.3,1.06,0,3.6.2,5.44,2.25,1.47,1.64,1.76,4.09,1.76,5.81,0,4.25-1.47,8.39-4.17,11.66ZM585.88,264.62c-2.58-.08-7.12-.41-11.33-1.02l-.37-5.03c4.75,1.15,7.57,1.35,12.27,1.43l-.57,4.62Z"/><path class="cls-2" d="M6.7,26.03c-.35-.07-.62-.26-.82-.55-.19-.3-.25-.62-.18-.97l1.22-5.91h-3.33c-.35,0-.66-.13-.92-.39-.26-.26-.39-.56-.39-.91s.13-.65.39-.9c.26-.25.56-.37.92-.37h3.85l1.08-5.32h-3.44c-.35,0-.66-.12-.92-.37-.26-.25-.39-.55-.39-.9,0-.37.13-.68.39-.93.26-.25.56-.37.92-.37h3.96l1.14-5.52c.07-.35.25-.62.54-.82.29-.19.6-.25.96-.18.35.07.62.25.82.54.19.29.25.61.18.96l-1.03,5.02h4.02l1.14-5.52c.07-.35.25-.62.54-.82s.61-.25.96-.18c.35.07.63.25.83.54.2.29.27.61.19.96l-1.03,5.02h3.85c.37,0,.68.12.93.37.25.25.37.56.37.93s-.12.65-.37.9c-.25.25-.56.37-.93.37h-4.38l-1.11,5.32h3.99c.37,0,.68.12.93.37s.37.55.37.9-.12.66-.37.91c-.25.26-.56.39-.93.39h-4.52l-1.3,6.43c-.07.35-.26.62-.55.82s-.62.25-.97.18c-.35-.07-.62-.26-.82-.55-.19-.3-.25-.62-.18-.97l1.22-5.91h-4.02l-1.3,6.43c-.07.35-.26.62-.55.82-.3.19-.62.25-.97.18ZM10.05,16.02h4.02l1.08-5.32h-4.02l-1.08,5.32Z"/><path class="cls-2" d="M40.78,25.53c-2.22,0-3.96-.55-5.23-1.65-1.27-1.1-1.9-2.87-1.9-5.31V3.79c0-.46.16-.85.48-1.18.32-.32.72-.49,1.18-.49s.85.16,1.18.49c.32.32.49.72.49,1.18v14.78c0,1.37.31,2.32.93,2.86.62.54,1.58.8,2.87.8,1.15,0,2.22-.3,3.23-.91,1.01-.61,1.83-1.59,2.45-2.94.2-.42.53-.71.97-.86.44-.15.87-.12,1.28.08.42.19.71.5.85.94s.12.88-.07,1.3c-.81,1.83-2,3.23-3.56,4.21-1.56.98-3.28,1.47-5.14,1.47Z"/><path class="cls-2" d="M63.4,26.28c-.44.13-.87.12-1.29-.01s-.73-.41-.93-.82c-.19-.43-.2-.86-.06-1.3s.44-.75.89-.92c1.37-.54,2.44-1.13,3.23-1.77.79-.65,1.33-1.4,1.65-2.25-.63.3-1.25.44-1.86.44-1.46,0-2.65-.37-3.58-1.12-.92-.75-1.39-1.85-1.39-3.31,0-.98.22-1.82.67-2.51.44-.69,1.05-1.22,1.82-1.59.77-.37,1.63-.55,2.59-.55h.37c.12,0,.24,0,.35.03-.04-.28-.07-.56-.1-.86-.03-.3-.06-.59-.1-.89-1.85.07-3.67.18-5.48.3-1.8.13-3.47.27-5,.42-.46.06-.87-.06-1.22-.33-.35-.28-.55-.64-.58-1.08-.06-.44.06-.84.35-1.19.29-.35.65-.54,1.1-.58,1.57-.13,3.29-.24,5.16-.35,1.87-.1,3.75-.19,5.66-.26v-2.72c0-.46.16-.85.49-1.16.32-.31.72-.47,1.18-.47s.85.16,1.16.47c.31.31.47.7.47,1.16v2.61c1.02-.04,2.01-.06,2.97-.08.96-.02,1.89-.03,2.77-.03-.02-.04-.04-.08-.07-.14-.03-.06-.06-.11-.1-.17-.13-.31-.29-.69-.49-1.14-.19-.44-.38-.84-.57-1.19-.11-.22-.12-.47-.04-.75.08-.28.27-.48.57-.61.26-.15.52-.18.78-.1.26.08.47.25.64.51.2.28.43.64.69,1.1.26.45.45.86.58,1.23.2.44.15.85-.17,1.22h.67c.44,0,.82.16,1.14.49.31.32.46.72.44,1.18-.02.44-.19.82-.51,1.12-.32.3-.72.45-1.18.43-1.15-.06-2.41-.08-3.8-.07-1.39,0-2.82.03-4.3.07.02.59.05,1.19.08,1.8s.08,1.18.14,1.72c.87,1.07,1.3,2.5,1.3,4.3,0,2.31-.61,4.32-1.82,6.03-1.21,1.71-2.97,2.94-5.28,3.7ZM65.03,16.8c.54-.02.96-.16,1.26-.43.31-.27.46-.66.46-1.18,0-.15,0-.31-.03-.5-.02-.18-.05-.37-.08-.55-.39-.44-.91-.67-1.55-.67-.52,0-.96.15-1.32.44-.36.3-.54.71-.54,1.25s.17.95.51,1.23c.34.29.77.42,1.29.4ZM79.15,4.29c-.26.17-.55.2-.86.11-.31-.09-.55-.29-.69-.58-.15-.31-.34-.68-.57-1.11-.23-.42-.45-.81-.65-1.16-.13-.2-.16-.45-.1-.73.06-.29.23-.5.49-.65.26-.15.52-.19.79-.14.27.06.49.2.68.44.22.26.47.61.75,1.04.28.43.51.84.69,1.21.15.3.17.59.07.89-.1.3-.3.53-.6.69Z"/><path class="cls-2" d="M84.06,22.18c-.35.3-.75.43-1.21.4-.45-.03-.84-.22-1.15-.57-.3-.35-.43-.75-.39-1.21.04-.45.23-.83.58-1.12.33-.28.74-.61,1.22-1,.48-.39.98-.79,1.51-1.19.53-.41,1.03-.79,1.5-1.15.47-.36.85-.66,1.15-.9.37-.28.78-.39,1.23-.33s.82.27,1.1.64c.28.35.38.75.32,1.21-.06.45-.28.82-.65,1.1-.48.35-1.04.78-1.69,1.29-.65.51-1.29,1.02-1.91,1.52-.63.51-1.16.95-1.61,1.32ZM89.3,24.17c-.41-.18-.7-.49-.89-.9-.19-.42-.19-.84,0-1.26.17-.42.47-.73.9-.91.43-.18.85-.18,1.26.03,1.02.44,1.85.58,2.5.42s.97-.6.97-1.3c0-.85-.15-1.61-.46-2.27-.31-.67-.64-1.3-1.01-1.91-.31-.52-.6-1.04-.86-1.58-.26-.54-.43-1.12-.53-1.75-.09-.63-.04-1.35.17-2.16.11-.44.36-.79.75-1.03.39-.24.8-.3,1.25-.19s.78.36,1.01.75c.23.39.3.81.21,1.28-.17.8-.12,1.5.15,2.11.27.61.59,1.23.96,1.86.39.65.76,1.36,1.12,2.14s.54,1.74.54,2.88c0,1.05-.23,1.93-.69,2.62-.46.69-1.09,1.21-1.87,1.54-.79.33-1.65.47-2.59.42-.94-.06-1.9-.31-2.88-.75ZM95.43,9.01c-.78-.54-1.6-1.04-2.47-1.51-.87-.47-1.68-.85-2.44-1.15-.43-.15-.75-.42-.97-.82-.22-.4-.27-.81-.14-1.23.15-.44.42-.78.83-1.01.41-.23.82-.26,1.25-.1.63.24,1.3.54,2.02.89.72.35,1.42.73,2.11,1.12.68.4,1.28.78,1.8,1.15.37.28.58.64.64,1.1.06.45-.06.86-.33,1.23-.28.37-.64.58-1.08.64-.44.06-.85-.05-1.22-.3ZM105.82,22.12c-.39.24-.8.31-1.23.21-.43-.1-.78-.35-1.04-.73-.3-.48-.7-1.04-1.22-1.69-.52-.65-1.06-1.29-1.64-1.94-.57-.65-1.11-1.21-1.61-1.69-.33-.31-.51-.69-.53-1.14-.02-.44.13-.83.44-1.16.31-.33.7-.5,1.15-.51.45,0,.85.14,1.18.46.59.55,1.21,1.18,1.84,1.89.64.7,1.24,1.41,1.8,2.11.56.7,1.02,1.34,1.37,1.91.26.39.33.8.22,1.25-.11.44-.36.79-.75,1.05Z"/><path class="cls-2" d="M125.37,26.06c-.37.26-.79.35-1.25.26-.46-.08-.82-.3-1.08-.65-.63-.91-1.34-1.85-2.12-2.83-.79-.98-1.57-1.92-2.34-2.81-.78-.9-1.48-1.66-2.11-2.29-1.09-1.07-1.82-2.08-2.19-3.02-.37-.94-.36-1.88.03-2.81.39-.93,1.15-1.94,2.3-3.01.39-.35.85-.79,1.4-1.33.54-.54,1.12-1.11,1.73-1.72.61-.61,1.2-1.22,1.77-1.83.57-.61,1.09-1.16,1.55-1.64.31-.33.71-.5,1.18-.51.47,0,.87.14,1.21.46.33.3.5.68.51,1.15,0,.47-.14.87-.46,1.21-.65.7-1.36,1.45-2.15,2.23-.79.79-1.55,1.53-2.29,2.25-.74.71-1.38,1.31-1.91,1.79-.72.67-1.2,1.23-1.43,1.71-.23.47-.23.94,0,1.4.23.46.67,1.04,1.32,1.72.63.65,1.34,1.42,2.15,2.33.8.91,1.61,1.85,2.43,2.83.81.98,1.52,1.91,2.13,2.8.28.35.37.76.29,1.23-.08.47-.31.84-.68,1.1Z"/><path class="cls-2" d="M148.77,24.26c-.46.11-.9.05-1.3-.19-.41-.24-.67-.58-.78-1.03-.11-.44-.05-.86.19-1.26.24-.4.58-.65,1.03-.76,2.05-.54,3.56-1.4,4.53-2.61.97-1.2,1.46-2.73,1.46-4.57,0-1.16-.26-2.21-.78-3.13-.52-.92-1.25-1.67-2.2-2.25-.95-.57-2.09-.92-3.42-1.05-.33,3.11-.89,5.79-1.68,8.05-.79,2.26-1.71,4.01-2.77,5.24-1.06,1.23-2.18,1.84-3.34,1.84-.98,0-1.88-.29-2.69-.86-.81-.57-1.46-1.4-1.93-2.47-.47-1.07-.71-2.36-.71-3.85s.29-2.97.87-4.31c.58-1.34,1.41-2.52,2.48-3.54,1.07-1.02,2.33-1.81,3.78-2.38,1.45-.57,3.05-.86,4.78-.86,2.11,0,3.98.4,5.61,1.21,1.64.8,2.93,1.92,3.87,3.35.94,1.43,1.41,3.1,1.41,5,0,2.68-.72,4.91-2.15,6.7-1.43,1.78-3.53,3.03-6.28,3.73ZM139.73,19.13c.33,0,.72-.28,1.15-.85.43-.56.87-1.36,1.32-2.4.44-1.04.85-2.26,1.22-3.67.37-1.41.65-2.98.83-4.7-1.44.28-2.65.81-3.63,1.59-.98.79-1.72,1.72-2.22,2.8-.5,1.08-.76,2.21-.78,3.4,0,1.26.2,2.21.6,2.86.4.65.9.97,1.51.97Z"/><path class="cls-2" d="M174.76,24.89c-.46,0-.86-.17-1.21-.5-.34-.33-.51-.73-.51-1.19s.17-.88.51-1.21c.34-.32.74-.49,1.21-.51,1.05-.04,1.75-.19,2.09-.46.34-.27.49-.81.46-1.62-.02-.59-.05-1.34-.1-2.25-.05-.91-.09-1.87-.12-2.88-1.04,1.07-2.16,2.15-3.38,3.24-1.22,1.09-2.45,2.12-3.69,3.08-1.24.96-2.42,1.79-3.55,2.5-.41.24-.84.3-1.29.17-.45-.13-.8-.4-1.04-.8-.24-.41-.3-.84-.17-1.29.13-.45.4-.8.8-1.04.94-.59,2.02-1.35,3.23-2.29,1.21-.93,2.45-1.95,3.73-3.04,1.28-1.09,2.46-2.17,3.55-3.24h-8.9c-.46,0-.86-.16-1.18-.49-.32-.32-.48-.72-.48-1.18s.16-.85.48-1.18c.32-.32.72-.49,1.18-.49h10.43c-.02-.76-.04-1.42-.07-2-.03-.57-.05-1.02-.07-1.33-.02-.48.14-.89.47-1.22.33-.33.73-.51,1.19-.53.48-.02.88.13,1.21.46.32.32.49.73.51,1.21.02.35.04.82.06,1.41.02.59.05,1.26.08,2h4.24c.46,0,.85.16,1.18.49.32.32.49.72.49,1.18s-.16.86-.49,1.18c-.32.32-.72.49-1.18.49h-4.1c.04.96.08,1.92.12,2.88.05.96.09,1.86.14,2.69.05.83.08,1.53.1,2.11.09,2-.32,3.44-1.25,4.33-.92.89-2.49,1.33-4.69,1.33Z"/><path class="cls-2" d="M195.14,15.63c-.46,0-.86-.17-1.21-.51-.34-.34-.51-.74-.51-1.21s.17-.89.51-1.22c.34-.33.74-.5,1.21-.5h17.27c.48,0,.89.17,1.22.5.33.33.5.74.5,1.22s-.17.86-.5,1.21c-.33.34-.74.51-1.22.51h-17.27Z"/><path class="cls-2" d="M234.36,25.59c-.46.06-.88-.06-1.26-.35-.38-.29-.6-.66-.65-1.12-.06-.5-.17-1.34-.33-2.54s-.35-2.53-.55-4.01c-1.18.13-2.31.26-3.38.4-1.07.14-2,.25-2.79.35-.79.09-1.35.17-1.71.22-.46.06-.88-.06-1.25-.36-.37-.3-.57-.67-.61-1.14-.06-.48.06-.9.36-1.26.3-.36.67-.57,1.14-.62.3-.04.83-.1,1.61-.18.78-.08,1.7-.19,2.77-.32,1.07-.13,2.2-.26,3.38-.39l-.44-3.16c-1.22.13-2.32.26-3.31.39-.99.13-1.67.21-2.04.25-.46.06-.87-.07-1.23-.37-.36-.31-.57-.69-.62-1.15-.04-.46.09-.87.39-1.23s.67-.57,1.14-.62c.3-.04.93-.11,1.9-.21.97-.1,2.07-.23,3.31-.37-.22-1.44-.38-2.51-.47-3.22-.07-.48.04-.91.33-1.28.3-.37.67-.58,1.14-.64.48-.07.91.03,1.28.32.37.29.58.67.64,1.15.04.35.1.81.18,1.37.08.56.17,1.21.26,1.93,1.09-.13,2.09-.24,2.99-.35.91-.1,1.6-.18,2.08-.24.46-.06.87.06,1.23.36.36.3.56.68.6,1.16.04.46-.09.87-.37,1.23-.29.36-.67.56-1.15.6-.46.04-1.14.1-2.02.19-.89.09-1.86.2-2.91.33l.44,3.13c1.13-.15,2.19-.28,3.19-.39,1-.11,1.86-.21,2.58-.31.72-.09,1.21-.15,1.47-.17.59.24,1.04.47,1.36.69s.49.49.53.8c.06.46-.06.88-.36,1.25-.3.37-.67.57-1.14.61-.28.02-.77.07-1.47.15-.7.08-1.55.18-2.54.29-.99.11-2.04.24-3.15.39.2,1.5.39,2.83.57,4.01.18,1.17.3,1.99.37,2.45.09.46,0,.88-.3,1.26-.3.38-.68.61-1.16.68Z"/><path class="cls-2" d="M262.65,26.53c-.41.07-.79,0-1.14-.24-.35-.23-.56-.55-.64-.96-.11-.67-.26-1.49-.46-2.47-.19-.98-.42-2.03-.67-3.16-.25-1.13-.51-2.26-.79-3.38-1.02.18-1.97.36-2.86.51-.89.16-1.59.28-2.11.37-.41.06-.78-.04-1.11-.29-.33-.25-.54-.58-.61-.98-.06-.41.04-.77.29-1.1.25-.32.58-.51.98-.57.46-.07,1.11-.18,1.94-.32.83-.14,1.75-.29,2.75-.46-.31-1.28-.61-2.35-.89-3.22-.13-.39-.09-.77.11-1.14.2-.37.51-.61.91-.72.41-.11.79-.07,1.15.12s.6.49.71.9c.15.46.3,1,.44,1.61.15.61.3,1.26.47,1.94l4.19-.72c2.9-.5,4.59.34,5.07,2.52.26,1.22-.01,2.33-.82,3.33s-2.18,1.81-4.12,2.44c-.39.13-.76.11-1.12-.06-.36-.17-.61-.45-.76-.86-.13-.39-.11-.77.06-1.14.17-.37.45-.62.86-.75.85-.31,1.48-.59,1.89-.83.41-.24.67-.48.79-.71.12-.23.15-.46.1-.68-.04-.22-.16-.38-.36-.47-.2-.09-.53-.09-.97,0-.55.09-1.19.2-1.9.33-.71.13-1.45.27-2.2.42.28,1.13.54,2.25.79,3.37.25,1.12.48,2.16.69,3.12.21.96.38,1.77.51,2.44.07.41,0,.78-.24,1.12-.23.34-.55.56-.96.65Z"/><path class="cls-2" d="M283.69,12.33c-.7-.59-1.49-1.21-2.36-1.84-.87-.64-1.65-1.16-2.36-1.57-.41-.26-.67-.61-.78-1.07-.11-.45-.05-.88.19-1.29.26-.41.61-.67,1.07-.79.45-.12.88-.05,1.29.21.5.31,1.07.7,1.71,1.15.64.45,1.26.9,1.86,1.34.6.44,1.1.82,1.48,1.14.37.3.59.68.65,1.15.06.47-.05.89-.35,1.26-.3.37-.68.59-1.15.65-.47.07-.89-.05-1.26-.35ZM281.31,23.26c-.44.17-.88.15-1.32-.06-.43-.2-.73-.53-.9-.97-.17-.44-.15-.88.06-1.32.2-.43.53-.73.97-.9,1.48-.52,2.97-1.15,4.48-1.91,1.51-.76,2.95-1.58,4.33-2.48,1.38-.9,2.63-1.82,3.77-2.77,1.14-.95,2.07-1.87,2.79-2.76.31-.37.71-.58,1.18-.64.47-.06.88.07,1.23.39.37.3.58.68.64,1.15.06.47-.07.89-.39,1.26-.76.92-1.77,1.91-3.02,2.95-1.26,1.04-2.66,2.08-4.21,3.09-1.55,1.02-3.15,1.96-4.8,2.83-1.65.87-3.24,1.58-4.8,2.14Z"/></g></g></svg>