<?xml version="1.0" encoding="UTF-8"?><svg id="_レイヤー_2" xmlns="http://www.w3.org/2000/svg" viewBox="0 0 4884.3 239.19"><defs><style>.cls-1{fill:#5b86c4;stroke-width:0px;}</style></defs><g id="_レイヤー_1-2"><path class="cls-1" d="M1.66,204.31l15.61-27.57c2.66-4.32,8.97-3.65,11.3-1.99,1.33.66,25.25,18.27,47.17,18.27,13.29,0,22.92-8.31,22.92-19.93,0-13.95-11.63-24.58-34.22-33.55C35.88,128.23,0,105.98,0,66.11,0,33.22,25.58,0,76.74,0c34.55,0,61.13,17.61,71.09,24.92,3.99,2.33,3.32,8.31,1.99,10.63l-16.94,25.58c-2.33,3.65-8.31,6.64-11.29,4.32-2.99-1.66-27.24-19.93-47.51-19.93-11.96,0-20.93,7.97-20.93,16.94,0,12.29,9.97,21.59,36.21,32.22,25.91,10.3,67.11,30.56,67.11,75.74,0,34.22-29.57,68.77-78.4,68.77-43.19,0-67.11-17.94-74.75-25.58-3.32-3.32-4.32-4.65-1.66-9.3Z"/><path class="cls-1" d="M189.75,9.63c0-3.32,2.99-6.31,6.31-6.31h39.53c3.65,0,6.31,2.99,6.31,6.31v83.72h95.01V9.63c0-3.32,2.66-6.31,6.31-6.31h39.53c3.32,0,6.31,2.99,6.31,6.31v219.93c0,3.32-2.99,6.31-6.31,6.31h-39.53c-3.65,0-6.31-2.99-6.31-6.31v-87.37h-95.01v87.37c0,3.32-2.66,6.31-6.31,6.31h-39.53c-3.32,0-6.31-2.99-6.31-6.31V9.63Z"/><path class="cls-1" d="M437.35,9.63c0-3.32,2.99-6.31,6.31-6.31h39.87c3.32,0,6.31,2.99,6.31,6.31v219.93c0,3.32-2.99,6.31-6.31,6.31h-39.87c-3.32,0-6.31-2.99-6.31-6.31V9.63Z"/><path class="cls-1" d="M516.71,223.58l88.37-170.76v-.66h-72.42c-3.32,0-6.31-2.99-6.31-6.31V9.63c0-3.32,2.99-6.31,6.31-6.31h141.19c3.32,0,6.31,2.99,6.31,6.31v4.32l-85.38,172.42v.66h72.42c3.65,0,6.31,2.99,6.31,6.31v36.21c0,3.32-2.66,6.31-6.31,6.31h-144.18c-3.32,0-6.31-2.99-6.31-6.31v-5.98Z"/><path class="cls-1" d="M703.57,9.63c0-3.32,2.99-6.31,6.31-6.31h40.86c3.65,0,6.31,2.99,6.31,6.31v134.55c0,23.26,17.27,41.86,40.86,41.86s41.53-18.6,41.53-41.86V9.63c0-3.32,2.66-6.31,6.31-6.31h40.86c3.32,0,6.31,2.99,6.31,6.31v137.2c0,50.5-42.52,92.36-95.01,92.36s-94.35-41.86-94.35-92.36V9.63Z"/><path class="cls-1" d="M938.64,9.63c0-3.32,2.66-6.31,6.31-6.31h137.54c3.65,0,6.31,2.99,6.31,6.31v36.21c0,3.32-2.66,6.31-6.31,6.31h-92.02v47.84h75.74c3.32,0,6.31,2.99,6.31,6.31v36.21c0,3.32-2.99,6.31-6.31,6.31h-75.74v80.73c0,3.32-2.99,6.31-6.31,6.31h-39.2c-3.65,0-6.31-2.99-6.31-6.31V9.63Z"/><path class="cls-1" d="M1112.95,9.63c0-3.32,2.99-6.31,6.31-6.31h40.86c3.65,0,6.31,2.99,6.31,6.31v134.55c0,23.26,17.27,41.86,40.86,41.86s41.53-18.6,41.53-41.86V9.63c0-3.32,2.66-6.31,6.31-6.31h40.86c3.32,0,6.31,2.99,6.31,6.31v137.2c0,50.5-42.52,92.36-95.01,92.36s-94.35-41.86-94.35-92.36V9.63Z"/><path class="cls-1" d="M1348.02,11.3c0-4.32,3.32-7.97,7.97-7.97h38.87c4.32,0,7.97,3.65,7.97,7.97v87.37l73.75-92.02c1.33-1.66,4.32-3.32,6.31-3.32h41.86c6.31,0,9.63,7.31,5.98,12.29l-77.74,97.34,84.71,110.3c3.65,4.98,0,12.29-6.31,12.29h-45.85c-2.33,0-5.32-1.33-5.98-2.33l-76.74-104.32v99c0,4.32-3.65,7.97-7.97,7.97h-38.87c-4.65,0-7.97-3.65-7.97-7.97V11.3Z"/><path class="cls-1" d="M1555.71,9.63c0-3.32,2.99-6.31,6.31-6.31h40.86c3.65,0,6.31,2.99,6.31,6.31v134.55c0,23.26,17.27,41.86,40.86,41.86s41.53-18.6,41.53-41.86V9.63c0-3.32,2.66-6.31,6.31-6.31h40.86c3.32,0,6.31,2.99,6.31,6.31v137.2c0,50.5-42.52,92.36-95.01,92.36s-94.35-41.86-94.35-92.36V9.63Z"/><path class="cls-1" d="M1974.29,0c66.44,0,119.6,53.49,119.6,119.93s-53.15,119.26-119.6,119.26-119.27-52.82-119.27-119.26S1907.85,0,1974.29,0ZM1974.29,186.04c36.54,0,66.44-29.9,66.44-66.11s-29.9-66.78-66.44-66.78-66.11,30.23-66.11,66.78,29.9,66.11,66.11,66.11Z"/><path class="cls-1" d="M2126.63,9.63c0-3.32,2.66-6.31,6.31-6.31h80.06c40.86,0,74.42,33.22,74.42,73.42s-33.55,74.75-74.08,74.75h-34.88v78.07c0,3.32-2.99,6.31-6.31,6.31h-39.2c-3.65,0-6.31-2.99-6.31-6.31V9.63ZM2210.02,102.99c14.29,0,26.25-11.3,26.25-26.24,0-13.95-11.96-24.58-26.25-24.58h-31.56v50.83h31.56Z"/><path class="cls-1" d="M2311.31,9.63c0-3.32,2.66-6.31,6.31-6.31h137.54c3.65,0,6.31,2.99,6.31,6.31v36.21c0,3.32-2.66,6.31-6.31,6.31h-92.02v41.19h75.74c3.32,0,6.31,2.99,6.31,6.31v36.21c0,3.65-2.99,6.31-6.31,6.31h-75.74v44.85h92.02c3.65,0,6.31,2.99,6.31,6.31v36.21c0,3.32-2.66,6.31-6.31,6.31h-137.54c-3.65,0-6.31-2.99-6.31-6.31V9.63Z"/><path class="cls-1" d="M2500.13,5.98c0-3.32,2.99-5.98,6.31-5.98h8.31l132.55,127.57h.33V9.63c0-3.32,2.66-6.31,6.31-6.31h39.87c3.32,0,6.31,2.99,6.31,6.31v223.58c0,3.32-2.99,5.98-6.31,5.98h-5.32c-1,0-3.65-1-4.32-1.66l-131.23-131.89h-.33v123.92c0,3.32-2.66,6.31-6.31,6.31h-39.53c-3.32,0-6.31-2.99-6.31-6.31l-.33-223.58Z"/><path class="cls-1" d="M2933.66,0c33.22,0,57.81,10.3,80.4,30.9,2.99,2.66,2.99,6.64.33,9.3l-25.91,26.91c-2.33,2.33-5.98,2.33-8.31,0-12.29-10.96-28.57-16.94-44.85-16.94-37.54,0-65.11,31.23-65.11,68.44s27.91,67.44,65.45,67.44c15.61,0,32.56-5.65,44.52-15.95,2.33-1.99,6.64-1.99,8.64.33l25.91,27.57c2.33,2.33,1.99,6.64-.33,8.97-22.59,21.93-51.16,32.22-80.73,32.22-66.44,0-119.93-52.82-119.93-119.26S2867.22,0,2933.66,0Z"/><path class="cls-1" d="M3022.76,227.23L3126.74,3.65c1-1.99,3.32-3.65,5.65-3.65h3.32c2.33,0,4.65,1.66,5.65,3.65l103.98,223.58c1.99,4.32-.66,8.64-5.65,8.64h-36.88c-5.98,0-8.64-1.99-11.63-8.31l-11.96-26.24h-90.36l-11.96,26.58c-1.66,3.99-5.32,7.97-11.96,7.97h-36.54c-4.98,0-7.64-4.32-5.65-8.64ZM3159.3,156.14l-25.25-54.82h-.33l-24.92,54.82h50.5Z"/><path class="cls-1" d="M3296.09,5.32c.33-2.99,3.32-5.32,5.98-5.32h5.32c1.66,0,4.65,1.33,5.65,3.32l77.07,143.52h.67L3467.85,3.32c1-1.99,3.99-3.32,5.65-3.32h5.32c2.66,0,5.65,2.33,5.98,5.32l37.54,223.25c.66,4.32-2.33,7.31-6.31,7.31h-39.2c-2.99,0-5.98-2.66-6.31-5.32l-14.95-102.65h-.66l-55.81,107.64c-1,1.99-3.99,3.65-5.65,3.65h-5.98c-1.99,0-4.65-1.66-5.65-3.65l-56.14-107.64h-.67l-14.62,102.65c-.33,2.66-2.99,5.32-6.31,5.32h-39.2c-3.99,0-6.98-2.99-6.31-7.31l37.54-223.25Z"/><path class="cls-1" d="M3555.68,9.63c0-3.32,2.66-6.31,6.31-6.31h80.06c40.86,0,74.42,33.22,74.42,73.42s-33.55,74.75-74.08,74.75h-34.88v78.07c0,3.32-2.99,6.31-6.31,6.31h-39.2c-3.65,0-6.31-2.99-6.31-6.31V9.63ZM3639.06,102.99c14.29,0,26.25-11.3,26.25-26.24,0-13.95-11.96-24.58-26.25-24.58h-31.56v50.83h31.56Z"/><path class="cls-1" d="M3737.83,9.63c0-3.32,2.99-6.31,6.31-6.31h40.86c3.65,0,6.31,2.99,6.31,6.31v134.55c0,23.26,17.28,41.86,40.86,41.86s41.53-18.6,41.53-41.86V9.63c0-3.32,2.66-6.31,6.31-6.31h40.86c3.32,0,6.31,2.99,6.31,6.31v137.2c0,50.5-42.52,92.36-95.01,92.36s-94.35-41.86-94.35-92.36V9.63Z"/><path class="cls-1" d="M3959.61,204.31l15.61-27.57c2.66-4.32,8.97-3.65,11.3-1.99,1.33.66,25.25,18.27,47.17,18.27,13.29,0,22.92-8.31,22.92-19.93,0-13.95-11.63-24.58-34.22-33.55-28.57-11.3-64.45-33.55-64.45-73.42,0-32.89,25.58-66.11,76.74-66.11,34.55,0,61.13,17.61,71.09,24.92,3.99,2.33,3.32,8.31,1.99,10.63l-16.94,25.58c-2.33,3.65-8.31,6.64-11.3,4.32-2.99-1.66-27.24-19.93-47.51-19.93-11.96,0-20.93,7.97-20.93,16.94,0,12.29,9.97,21.59,36.21,32.22,25.91,10.3,67.11,30.56,67.11,75.74,0,34.22-29.57,68.77-78.4,68.77-43.19,0-67.11-17.94-74.75-25.58-3.32-3.32-4.32-4.65-1.66-9.3Z"/><path class="cls-1" d="M4207.43,222.92c19.27-25.25,68.44-92.02,88.04-121.92,4.32-6.64,8.64-15.95,8.64-25.25,0-12.62-10.63-23.92-29.24-23.92-13.62,0-25.91,9.63-32.22,16.61-2.66,2.66-6.64,2.66-9.3,0l-20.26-20.6c-2.33-1.99-2.66-5.98-.33-8.64,0,0,26.91-32.56,66.44-32.56,47.51,0,75.41,30.23,75.41,67.11,0,17.61-4.98,27.57-12.96,43.19-10.63,18.94-37.87,54.48-53.49,76.41h58.47c3.32,0,6.31,2.99,6.31,6.31v29.9c0,3.32-2.99,6.31-6.31,6.31h-132.89c-3.65,0-6.31-2.99-6.31-6.31v-6.64Z"/><path class="cls-1" d="M4380.14,122.92c0-72.75,30.9-116.28,85.05-116.28s85.05,43.52,85.05,116.28-30.9,116.27-85.05,116.27-85.05-43.52-85.05-116.27ZM4496.75,122.92c0-43.52-11.29-68.1-31.56-68.1s-31.56,24.58-31.56,68.1,11.29,68.1,31.56,68.1,31.56-24.25,31.56-68.1Z"/><path class="cls-1" d="M4560.86,222.92c19.27-25.25,68.44-92.02,88.04-121.92,4.32-6.64,8.64-15.95,8.64-25.25,0-12.62-10.63-23.92-29.24-23.92-13.62,0-25.91,9.63-32.22,16.61-2.66,2.66-6.64,2.66-9.3,0l-20.26-20.6c-2.33-1.99-2.66-5.98-.33-8.64,0,0,26.91-32.56,66.44-32.56,47.51,0,75.41,30.23,75.41,67.11,0,17.61-4.98,27.57-12.96,43.19-10.63,18.94-37.87,54.48-53.49,76.41h58.47c3.32,0,6.31,2.99,6.31,6.31v29.9c0,3.32-2.99,6.31-6.31,6.31h-132.89c-3.65,0-6.31-2.99-6.31-6.31v-6.64Z"/><path class="cls-1" d="M4735.8,200.33l20.93-20.6c1.99-1.99,5.32-2.66,7.97-1,0,0,23.59,15.95,39.53,15.95,17.94,0,31.56-13.29,31.56-31.56s-12.62-32.22-34.22-32.22h-51.16c-6.64,0-10.3-6.31-10.3-11.63V16.28c0-3.32,2.66-6.31,6.31-6.31h106.97c3.65,0,6.31,2.99,6.31,6.31v29.23c0,3.32-2.66,6.31-6.31,6.31h-68.44v35.55h23.59c45.85,0,75.75,32.22,75.75,75.74s-35.55,76.08-82.06,76.08c-34.55,0-57.47-17.61-65.78-27.57-4.32-4.98-4.65-7.31-.67-11.3Z"/></g></svg>