<?xml version="1.0" encoding="UTF-8"?><svg id="_レイヤー_2" xmlns="http://www.w3.org/2000/svg" width="230.82" height="230.82" viewBox="0 0 230.82 230.82"><g id="_レイヤー_1-2"><circle cx="115.41" cy="115.41" r="115.41" fill="#222"/><path d="M70.83,53.44c.49-3.54,1.71-5.66,6.2-8.95,2.91-2.12,3.78-3.21,3.78-4.95,0-1.88-1.31-3.29-3.1-3.29-2.75,0-2.83,2.86-2.86,4.33h-3.46c.05-1.77.27-7.35,6.42-7.35,4.08,0,6.72,2.83,6.72,6.31,0,3.18-2.26,4.98-4.84,6.77-2.67,1.85-3.35,2.61-4.19,4.27h9.2v2.86h-13.88Z" fill="#fff"/><path d="M95,53.82c-6.31,0-6.91-7.4-6.91-9.96,0-3.26.57-10.64,6.91-10.64,2.5,0,4.16,1.22,5.22,2.91,1.36,2.18,1.69,4.82,1.69,7.37s-.41,10.31-6.91,10.31ZM94.95,36.16c-1.82,0-3.13,1.33-3.13,7.35-.03,6.28,1.42,7.37,3.18,7.37,1.99,0,3.16-1.52,3.16-7.37,0-6.28-1.42-7.35-3.21-7.35Z" fill="#fff"/><path d="M105.14,53.44c.49-3.54,1.71-5.66,6.2-8.95,2.91-2.12,3.78-3.21,3.78-4.95,0-1.88-1.31-3.29-3.1-3.29-2.75,0-2.83,2.86-2.86,4.33h-3.46c.05-1.77.27-7.35,6.42-7.35,4.08,0,6.72,2.83,6.72,6.31,0,3.18-2.26,4.98-4.84,6.77-2.67,1.85-3.35,2.61-4.19,4.27h9.2v2.86h-13.88Z" fill="#fff"/><path d="M133.75,49.19v4.24h-3.59v-4.24h-8.27v-2.86l7.84-12.76h4.03v12.98h2.67v2.64h-2.67ZM129.75,37.77l-4.95,8.05-.76.93.76-.19h5.36v-8.19l.14-1.8-.54,1.2Z" fill="#fff"/><path d="M155.48,49.47v5.36h-3.43v-5.36h-11.59v-2.88h3.92v-6.48h7.67v-3.26h-6.26c-1.55,2.48-2.39,3.37-3.05,4.08l-2.94-1.55c2.53-2.56,4.3-5.52,5.28-8.27l3.35,1.25c.14.05.19.16.19.24s-.05.19-.14.24c-.08.03-.52.14-.57.22-.05,0-.54.92-.6,1.03h15.07v2.75h-7.02v3.26h4.73v2.8h-4.73v3.67h8.33v2.88h-8.22ZM152.05,42.91h-4.38v3.67h4.38v-3.67Z" fill="#fff"/><path d="M69,84.8c-5.47,0-6.96-5.31-6.96-9.39,0-2.09.19-11.21,7.29-11.21,1.63,0,3.1.57,4.24,1.66,1.09,1.03,1.42,1.9,1.77,3.7h-3.59c-.11-1.22-.98-2.34-2.5-2.34-2.91,0-3.35,3.48-3.67,6.15,1.03-1.8,2.96-2.12,4.05-2.12,3.32,0,6.01,2.75,6.01,6.42,0,3.26-2.29,7.13-6.64,7.13ZM69,74.24c-2.15,0-3.26,1.9-3.26,3.75,0,2.07,1.28,3.56,3.13,3.56,1.66,0,3.07-1.28,3.07-3.59,0-2.12-1.14-3.73-2.94-3.73Z" fill="#fff"/><path d="M93.26,85.8l-1.33-3.56c.46.08,1.09.16,2.15.16.79,0,1.01-.22,1.01-.82v-4.49h-8.19c-.9,3.86-2.09,5.99-5.22,8.38l-2.69-2.23c1.93-1.55,5.06-4.03,5.06-10.09v-10.15h14.2v20.05c0,2.56-2.2,2.75-4.98,2.75ZM95.08,71.41h-7.73c0,1.52-.05,2.23-.11,2.83h7.84v-2.83ZM95.08,65.86h-7.73v2.83h7.73v-2.83Z" fill="#fff"/><path d="M127.34,74.32c-.92,1.14-2.72,2.72-5.41,2.72-.63,0-1.2-.05-1.77-.22-1.6-.41-3.13-1.03-4.13-1.5-2.88-1.28-3.95-1.41-4.76-1.41-1.93,0-2.77,1.66-3.67,3.43l-2.67-1.33c1.52-2.5,3.1-4.98,6.07-4.98,1.69,0,4.24,1.01,5.99,1.74,1.41.63,3.73,1.55,5.09,1.55,2.53,0,3.43-2.2,3.95-3.51l2.61,1.31c-.46.98-.74,1.52-1.28,2.2Z" fill="#fff"/><path d="M139.13,84.8c-4.46.03-6.91-2.78-6.91-6.12,0-3.05,2.04-4.38,3.16-5.09-2.39-1.06-2.58-3.16-2.58-4.08,0-2.75,2.23-5.31,6.34-5.31s6.31,2.56,6.31,5.31c0,.98-.19,3.02-2.58,4.08,1.14.71,3.18,2.04,3.18,5.09,0,3.35-2.48,6.12-6.91,6.12ZM139.13,75.27c-2.48,0-3.24,1.99-3.24,3.29,0,1.55,1.01,3.29,3.24,3.29s3.24-1.74,3.24-3.29c0-1.31-.79-3.29-3.24-3.29ZM139.13,67.28c-1.82,0-2.75,1.33-2.75,2.69,0,1.28.76,2.67,2.75,2.67s2.72-1.39,2.72-2.67c0-1.36-.9-2.69-2.72-2.69Z" fill="#fff"/><path d="M163.8,85.8l-1.33-3.56c.46.08,1.09.16,2.15.16.79,0,1.01-.22,1.01-.82v-4.49h-8.19c-.9,3.86-2.09,5.99-5.22,8.38l-2.69-2.23c1.93-1.55,5.06-4.03,5.06-10.09v-10.15h14.2v20.05c0,2.56-2.2,2.75-4.98,2.75ZM165.62,71.41h-7.73c0,1.52-.05,2.23-.11,2.83h7.84v-2.83ZM165.62,65.86h-7.73v2.83h7.73v-2.83Z" fill="#fff"/><rect x="59.54" y="93.75" width="111.74" height="29.49" rx="5" ry="5" fill="#fff"/><path d="M75.25,117.45c-4.81,0-8.12-3.43-8.12-8.65s3.34-8.65,8.12-8.65,8.14,3.4,8.14,8.65-3.34,8.65-8.14,8.65ZM75.25,102.86c-2.78,0-4.96,2.09-4.96,5.94s2.16,5.96,4.96,5.96,4.98-2.27,4.98-5.96-2.07-5.94-4.98-5.94Z" fill="#222"/><path d="M92.98,117.45c-5.38,0-7.76-4.05-7.76-8.5s2.2-8.81,7.99-8.81c4.63,0,6.63,3.07,6.9,5.65h-3.18c-.62-3-3.2-3-3.65-3-2.54,0-4.87,2.05-4.87,6.12,0,3.8,2.05,5.92,4.54,5.92,1.07,0,2.14-.4,2.96-1.2.73-.71.89-1.27,1.02-2.18h3.18c-.29,2.71-2.36,6.01-7.12,6.01Z" fill="#222"/><path d="M109.79,107.22c-1.09,1.33-1.82,2.05-2.94,2.94,2.18-.4,3.74-.93,5.7-2.36l1.49,1.45c.09.07.16.18.16.24,0,.11-.13.18-.2.18-.09,0-.18-.02-.27-.07-.09.02-.16.07-.31.16-2.62,1.58-4.47,2.11-6.03,2.42l-.93-1.74c-.98.71-1.62,1.11-2.51,1.58l-1.74-1.65c1.76-.89,2.94-1.74,4.4-3.16h-4.25v-2.11h5.94c.42-.69.56-.96.64-1.25l-4.05.13c-.47.02-.51.02-.58.11-.13.2-.16.24-.25.24-.04,0-.16-.02-.2-.18l-.62-2.47c1.49.07,2.83.09,4.27.09.69-1.33,1-1.96,1.38-2.96l2.91.33c.16.02.27.11.27.2,0,.13-.11.2-.18.22-.07.04-.33.16-.49.22-.16.29-.85,1.69-1,2,.87,0,3.47-.02,4.85-.04-.44-.36-.71-.51-1.47-1l1.49-1.45c2.62,1.67,3.85,2.87,4.83,3.98l-1.58,1.6c-.27-.31-.51-.62-1.38-1.47-1.94.16-4.69.33-5.81.31.51.13.71.18.71.38,0,.24-.33.29-.49.31-.16.29-.22.4-.38.67h9.74v2.11h-4.25c1.02,1.49,2.89,2.29,4.81,2.94l-1.78,1.87c-2.54-1.11-4.27-2.42-6.07-4.81h-3.85ZM103.4,116.03c7.76-.07,11.1-1.49,14.28-3.65l2.14,1.51c.09.07.13.11.13.22,0,.09-.09.16-.18.16-.09.02-.62.09-.73.11-5.16,2.87-7.54,3.65-14.48,3.76l-1.16-2.11ZM105.11,113.27c4.23-.33,6.81-1.2,9.68-3.18l1.74,1.29c.11.07.18.13.18.27s-.18.18-.27.18c-.42.02-.47.02-.56.09-1.96,1.62-5.96,2.98-9.88,3.25l-.89-1.89Z" fill="#222"/><path d="M132.36,113.83c-.49,3.34-1.31,3.96-4.12,4.07l-.89-2.42c.51.09.85.11,1.16.11.98,0,1.33-.31,1.65-2.34.44-2.8.56-5.63.58-8.48h-2.05c-.16,2.45-.51,8.25-3.65,12.5l-2.71-.89c2.67-3.36,3.58-6.72,4.07-11.61h-2.78v-2.18h2.8c0-1.11-.02-2-.11-3.58l2.4.09c.22,0,.51.04.51.29,0,.16-.07.22-.25.38-.24.2-.27.27-.27.49v2.34h4.34c-.02,2.8-.04,6.96-.69,11.23ZM139.77,117.36v-1.11h-3.18v1.2h-2.23v-15.8h7.63v15.71h-2.22ZM139.77,103.97h-3.18v9.97h3.18v-9.97Z" fill="#222"/><path d="M156.98,106.8c-.45.42-1.05.98-2.22,1.87h6.58v9.3h-2.45v-.47h-7.54v.58h-2.4v-6.3c-1,.42-1.58.65-2.87,1.13l-1.38-2.16c2.89-.82,5.47-1.85,8.52-3.96h-8.45v-2.16h7.68v-1.69h-5.81v-2.09h5.81v-1.91l2.85.11c.2,0,.31.09.31.18,0,.16-.13.22-.22.29-.13.07-.31.16-.31.29v1.05h2.54v1.6c.93-1.29,1.47-2.2,2.05-3.34l2.49,1.47c.07.04.18.13.18.27,0,.18-.18.22-.62.27-.31.04-.38.07-1.09,1.27-.16.24-.96,1.38-1.67,2.25h4.76v2.16h-6.72ZM158.89,110.58h-7.54v1.45h7.54v-1.45ZM158.89,113.94h-7.54v1.58h7.54v-1.58ZM155.07,102.95v1.69h.69c.78-.8,1.16-1.31,1.45-1.69h-2.14Z" fill="#222"/><path d="M21.39,210.19l19.17-25.08c-2.53.84-5.67,1.57-8.56,1.57-5.67,0-12.9-2.29-17.6-6.87-4.22-3.98-7.59-10.85-7.59-19.29,0-6.75,1.93-13.5,7.35-19.41,6.87-7.47,14.71-9.16,22.91-9.16s16.28,1.57,22.91,8.2c4.34,4.34,7.84,10.49,7.84,19.53,0,9.77-4.46,17.6-10.13,25.08l-23.63,31.59-12.66-6.15ZM26.81,148.58c-1.93,1.93-4.34,5.3-4.34,10.61,0,4.82,1.69,8.44,4.46,11.09,3.01,2.89,6.39,3.86,10.37,3.86,4.34,0,7.6-1.33,10.49-4.34,2.89-3.01,4.34-6.39,4.34-10.49,0-5.06-2.05-8.56-4.46-10.85-2.05-1.93-5.55-3.98-10.37-3.98-5.06,0-8.44,2.05-10.49,4.1Z" fill="none" stroke="#222" stroke-linecap="round" stroke-linejoin="round" stroke-width="12.3"/><path d="M130.24,192.22c0,13.26-10.61,23.75-27.97,23.75s-27.97-10.49-27.97-23.75c0-9.28,5.42-17.12,14.35-20.01-6.15-3.01-11.57-8.92-11.57-17.84,0-11.69,8.44-22.42,25.2-22.42s25.2,10.73,25.2,22.42c0,8.92-5.42,14.83-11.57,17.84,8.92,2.89,14.35,10.73,14.35,20.01ZM114.57,191.14c0-7.35-5.3-12.54-12.3-12.54s-12.3,5.18-12.3,12.54,5.3,12.54,12.3,12.54,12.3-5.18,12.3-12.54ZM113.48,154.49c0-6.63-4.58-11.21-11.21-11.21s-11.21,4.58-11.21,11.21,4.58,11.21,11.21,11.21,11.21-4.58,11.21-11.21Z" fill="none" stroke="#222" stroke-linecap="round" stroke-linejoin="round" stroke-width="12.3"/><path d="M142.2,204.49c2.79,0,4.94,2.15,4.94,4.94s-2.15,4.94-4.94,4.94-4.94-2.15-4.94-4.94,2.15-4.94,4.94-4.94Z" fill="none" stroke="#222" stroke-linecap="round" stroke-linejoin="round" stroke-width="12.3"/><path d="M159.29,178.41h-6.08v-7.09h14.3v42.22h-8.23v-35.13Z" fill="none" stroke="#222" stroke-linecap="round" stroke-linejoin="round" stroke-width="12.3"/><path d="M197.68,180.82c0,5.76-4.05,10-10.63,10s-10.63-4.24-10.63-10,4.05-10,10.63-10,10.63,4.24,10.63,10ZM192.36,180.82c0-3.16-2.21-5.44-5.32-5.44s-5.32,2.28-5.32,5.44,2.21,5.44,5.32,5.44,5.32-2.28,5.32-5.44ZM209.9,169.93l3.35,1.9-25.13,43.48-3.35-1.96,25.13-43.42ZM221.61,204.17c0,5.76-4.05,10-10.63,10s-10.63-4.24-10.63-10,4.05-10,10.63-10,10.63,4.24,10.63,10ZM216.29,204.17c0-3.16-2.21-5.44-5.32-5.44s-5.32,2.28-5.32,5.44,2.21,5.44,5.32,5.44,5.32-2.28,5.32-5.44Z" fill="none" stroke="#222" stroke-linecap="round" stroke-linejoin="round" stroke-width="12.3"/><path d="M21.39,210.19l19.17-25.08c-2.53.84-5.67,1.57-8.56,1.57-5.67,0-12.9-2.29-17.6-6.87-4.22-3.98-7.59-10.85-7.59-19.29,0-6.75,1.93-13.5,7.35-19.41,6.87-7.47,14.71-9.16,22.91-9.16s16.28,1.57,22.91,8.2c4.34,4.34,7.84,10.49,7.84,19.53,0,9.77-4.46,17.6-10.13,25.08l-23.63,31.59-12.66-6.15ZM26.81,148.58c-1.93,1.93-4.34,5.3-4.34,10.61,0,4.82,1.69,8.44,4.46,11.09,3.01,2.89,6.39,3.86,10.37,3.86,4.34,0,7.6-1.33,10.49-4.34,2.89-3.01,4.34-6.39,4.34-10.49,0-5.06-2.05-8.56-4.46-10.85-2.05-1.93-5.55-3.98-10.37-3.98-5.06,0-8.44,2.05-10.49,4.1Z" fill="#dd9200"/><path d="M130.24,192.22c0,13.26-10.61,23.75-27.97,23.75s-27.97-10.49-27.97-23.75c0-9.28,5.42-17.12,14.35-20.01-6.15-3.01-11.57-8.92-11.57-17.84,0-11.69,8.44-22.42,25.2-22.42s25.2,10.73,25.2,22.42c0,8.92-5.42,14.83-11.57,17.84,8.92,2.89,14.35,10.73,14.35,20.01ZM114.57,191.14c0-7.35-5.3-12.54-12.3-12.54s-12.3,5.18-12.3,12.54,5.3,12.54,12.3,12.54,12.3-5.18,12.3-12.54ZM113.48,154.49c0-6.63-4.58-11.21-11.21-11.21s-11.21,4.58-11.21,11.21,4.58,11.21,11.21,11.21,11.21-4.58,11.21-11.21Z" fill="#dd9200"/><path d="M142.2,204.49c2.79,0,4.94,2.15,4.94,4.94s-2.15,4.94-4.94,4.94-4.94-2.15-4.94-4.94,2.15-4.94,4.94-4.94Z" fill="#dd9200"/><path d="M159.29,178.41h-6.08v-7.09h14.3v42.22h-8.23v-35.13Z" fill="#dd9200"/><path d="M197.68,180.82c0,5.76-4.05,10-10.63,10s-10.63-4.24-10.63-10,4.05-10,10.63-10,10.63,4.24,10.63,10ZM192.36,180.82c0-3.16-2.21-5.44-5.32-5.44s-5.32,2.28-5.32,5.44,2.21,5.44,5.32,5.44,5.32-2.28,5.32-5.44ZM209.9,169.93l3.35,1.9-25.13,43.48-3.35-1.96,25.13-43.42ZM221.61,204.17c0,5.76-4.05,10-10.63,10s-10.63-4.24-10.63-10,4.05-10,10.63-10,10.63,4.24,10.63,10ZM216.29,204.17c0-3.16-2.21-5.44-5.32-5.44s-5.32,2.28-5.32,5.44,2.21,5.44,5.32,5.44,5.32-2.28,5.32-5.44Z" fill="#dd9200"/></g></svg>