<?xml version="1.0" encoding="UTF-8"?><svg id="_レイヤー_2" xmlns="http://www.w3.org/2000/svg" viewBox="0 0 230.82 230.82"><defs><style>.cls-1{fill:#222;}.cls-1,.cls-2,.cls-3{stroke-width:0px;}.cls-4{fill:none;stroke:#222;stroke-linecap:round;stroke-linejoin:round;stroke-width:12.3px;}.cls-2{fill:#dd9200;}.cls-3{fill:#fff;}</style></defs><g id="_レイヤー_1-2"><circle class="cls-1" cx="115.41" cy="115.41" r="115.41"/><path class="cls-3" d="M55.2,60.44c.49-3.54,1.71-5.66,6.2-8.95,2.91-2.12,3.78-3.21,3.78-4.95,0-1.88-1.31-3.29-3.1-3.29-2.75,0-2.83,2.86-2.86,4.33h-3.46c.05-1.77.27-7.35,6.42-7.35,4.08,0,6.72,2.83,6.72,6.31,0,3.18-2.26,4.98-4.84,6.77-2.67,1.85-3.35,2.61-4.19,4.27h9.2v2.86h-13.88Z"/><path class="cls-3" d="M79.37,60.82c-6.31,0-6.91-7.4-6.91-9.96,0-3.26.57-10.64,6.91-10.64,2.5,0,4.16,1.22,5.22,2.91,1.36,2.18,1.69,4.82,1.69,7.37s-.41,10.31-6.91,10.31ZM79.32,43.16c-1.82,0-3.13,1.33-3.13,7.35-.03,6.28,1.42,7.37,3.18,7.37,1.99,0,3.16-1.52,3.16-7.37,0-6.28-1.42-7.35-3.21-7.35Z"/><path class="cls-3" d="M89.51,60.44c.49-3.54,1.71-5.66,6.2-8.95,2.91-2.12,3.78-3.21,3.78-4.95,0-1.88-1.31-3.29-3.1-3.29-2.75,0-2.83,2.86-2.86,4.33h-3.46c.05-1.77.27-7.35,6.42-7.35,4.08,0,6.72,2.83,6.72,6.31,0,3.18-2.26,4.98-4.84,6.77-2.67,1.85-3.35,2.61-4.19,4.27h9.2v2.86h-13.88Z"/><path class="cls-3" d="M118.11,56.19v4.24h-3.59v-4.24h-8.27v-2.86l7.84-12.76h4.03v12.98h2.67v2.64h-2.67ZM114.12,44.77l-4.95,8.05-.76.93.76-.19h5.36v-8.19l.14-1.8-.54,1.2Z"/><path class="cls-3" d="M139.84,56.47v5.36h-3.43v-5.36h-11.59v-2.88h3.92v-6.48h7.67v-3.26h-6.26c-1.55,2.48-2.39,3.37-3.05,4.08l-2.94-1.55c2.53-2.56,4.3-5.52,5.28-8.27l3.35,1.25c.14.05.19.16.19.24s-.05.19-.14.24c-.08.03-.52.14-.57.22-.05,0-.54.92-.6,1.03h15.07v2.75h-7.02v3.26h4.73v2.8h-4.73v3.67h8.33v2.88h-8.22ZM136.42,49.91h-4.38v3.67h4.38v-3.67Z"/><path class="cls-3" d="M170.28,42.48v1.58h4.49v2.42h-4.49v3.94h-10.04v-3.94h-2.86c-.05,2.64-.08,5.74-.82,9.47-.57,2.97-1.17,4.19-1.82,5.52l-2.99-.79c.6-1.06,1.01-1.82,1.47-3.51.82-2.91,1.17-6.09,1.17-10.23,0-2.23-.05-4.68-.22-6.88h8.38v-1.74l3.62.24c.05,0,.52.05.52.33,0,.22-.11.27-.27.35-.16.08-.3.22-.3.3v.52h9.66v2.42h-5.5ZM173.43,61.91c-3.46-.49-5.6-1.14-8.46-2.67-2.1,1.03-3.81,1.69-7.07,2.45l-1.61-2.39c2.07-.35,3.89-.82,6.15-1.74-.65-.54-1.58-1.28-2.88-2.8l2.48-.84h-4.24v-2.5h13.6l1.2,1.22c-1.5,2.09-2.72,3.35-4.79,4.87,1.52.6,3.35,1.25,7.18,1.66l-1.55,2.75ZM160.24,42.48h-2.86v1.58h2.86v-1.58ZM162.69,53.91c.74.95,1.42,1.61,2.48,2.23,1.47-1.03,2.12-1.77,2.53-2.23h-5.01ZM167.31,42.48h-4.16v1.58h4.16v-1.58ZM167.31,46.48h-4.16v1.66h4.16v-1.66Z"/><path class="cls-3" d="M85.97,79.55c-1.33,1.63-2.23,2.5-3.59,3.59,2.67-.49,4.57-1.14,6.96-2.88l1.82,1.77c.11.08.19.22.19.3,0,.14-.16.22-.25.22-.11,0-.22-.03-.33-.08-.11.03-.19.08-.38.19-3.21,1.93-5.47,2.58-7.37,2.97l-1.14-2.12c-1.2.87-1.99,1.36-3.08,1.93l-2.12-2.01c2.15-1.09,3.59-2.12,5.39-3.86h-5.2v-2.58h7.26c.52-.84.68-1.17.79-1.52l-4.95.16c-.57.03-.62.03-.71.14-.16.24-.19.3-.3.3-.05,0-.19-.03-.25-.22l-.76-3.02c1.82.08,3.46.11,5.22.11.84-1.63,1.22-2.39,1.69-3.62l3.56.41c.19.03.33.14.33.24,0,.16-.14.24-.22.27-.08.05-.41.19-.6.27-.19.35-1.03,2.07-1.22,2.45,1.06,0,4.24-.03,5.93-.05-.54-.44-.87-.63-1.8-1.22l1.82-1.77c3.21,2.04,4.71,3.51,5.9,4.87l-1.93,1.96c-.33-.38-.63-.76-1.69-1.8-2.37.19-5.74.41-7.1.38.62.16.87.22.87.46,0,.3-.41.35-.6.38-.19.35-.27.49-.46.82h11.92v2.58h-5.2c1.25,1.82,3.54,2.8,5.88,3.59l-2.18,2.29c-3.1-1.36-5.22-2.97-7.43-5.88h-4.71ZM78.17,90.33c9.5-.08,13.58-1.82,17.47-4.46l2.61,1.85c.11.08.16.14.16.27,0,.11-.11.19-.22.19-.11.03-.76.11-.9.14-6.31,3.51-9.22,4.46-17.71,4.6l-1.42-2.58ZM80.26,86.95c5.17-.41,8.33-1.47,11.83-3.89l2.12,1.58c.14.08.22.16.22.33s-.22.22-.33.22c-.52.03-.57.03-.68.11-2.39,1.99-7.29,3.65-12.08,3.97l-1.09-2.31Z"/><path class="cls-3" d="M115.44,87.63c-.6,4.08-1.6,4.84-5.03,4.98l-1.09-2.97c.63.11,1.03.14,1.42.14,1.2,0,1.63-.38,2.01-2.86.54-3.43.68-6.88.71-10.37h-2.5c-.19,2.99-.62,10.09-4.46,15.29l-3.32-1.09c3.26-4.11,4.38-8.22,4.98-14.2h-3.4v-2.67h3.43c0-1.36-.03-2.45-.14-4.38l2.94.11c.27,0,.63.05.63.35,0,.19-.08.27-.3.46-.3.24-.33.33-.33.6v2.86h5.31c-.03,3.43-.05,8.52-.84,13.74ZM124.5,91.96v-1.36h-3.89v1.47h-2.72v-19.32h9.33v19.21h-2.72ZM124.5,75.58h-3.89v12.19h3.89v-12.19Z"/><path class="cls-3" d="M147.42,79.04c-.54.52-1.28,1.2-2.72,2.29h8.05v11.37h-2.99v-.57h-9.22v.71h-2.94v-7.7c-1.22.52-1.93.79-3.51,1.39l-1.69-2.64c3.54-1.01,6.69-2.26,10.42-4.84h-10.34v-2.64h9.39v-2.07h-7.1v-2.56h7.1v-2.34l3.48.14c.25,0,.38.11.38.22,0,.19-.16.27-.27.35-.16.08-.38.19-.38.35v1.28h3.1v1.96c1.14-1.58,1.79-2.69,2.5-4.08l3.05,1.8c.08.05.22.16.22.33,0,.22-.22.27-.76.33-.38.05-.46.08-1.33,1.55-.19.3-1.17,1.69-2.04,2.75h5.82v2.64h-8.22ZM149.76,83.66h-9.22v1.77h9.22v-1.77ZM149.76,87.77h-9.22v1.93h9.22v-1.93ZM145.08,74.33v2.07h.84c.95-.98,1.42-1.61,1.77-2.07h-2.61Z"/><path class="cls-4" d="M18.6,183.79l18-23.54c-2.38.79-5.32,1.47-8.04,1.47-5.32,0-12.11-2.15-16.52-6.45-3.96-3.73-7.13-10.19-7.13-18.11,0-6.34,1.81-12.68,6.9-18.22,6.45-7.02,13.81-8.6,21.5-8.6s15.28,1.47,21.5,7.7c4.07,4.07,7.36,9.85,7.36,18.33,0,9.17-4.19,16.52-9.51,23.54l-22.18,29.65-11.88-5.77ZM23.69,125.96c-1.81,1.81-4.07,4.98-4.07,9.96,0,4.53,1.58,7.92,4.19,10.41,2.83,2.72,6,3.62,9.73,3.62,4.07,0,7.13-1.24,9.85-4.07,2.72-2.83,4.07-6,4.07-9.85,0-4.75-1.92-8.04-4.19-10.19-1.92-1.81-5.21-3.73-9.73-3.73-4.75,0-7.92,1.92-9.85,3.85Z"/><path class="cls-4" d="M68.07,149.73c0-25.92,14.15-39.38,29.2-39.38s29.2,13.47,29.2,39.5-14.15,39.38-29.2,39.38-29.2-13.47-29.2-39.5ZM82.78,149.73c0,19.69,8.04,26.82,14.49,26.82s14.49-7.13,14.49-26.82-8.15-26.71-14.49-26.71-14.49,7.13-14.49,26.71Z"/><path class="cls-4" d="M133.48,178.44c2.61,0,4.63,2.02,4.63,4.63s-2.02,4.63-4.63,4.63-4.63-2.02-4.63-4.63,2.02-4.63,4.63-4.63Z"/><path class="cls-4" d="M141.61,167.09c0-13.61,7.43-20.68,15.33-20.68s15.33,7.07,15.33,20.74-7.43,20.68-15.33,20.68-15.33-7.07-15.33-20.74ZM149.33,167.09c0,10.34,4.22,14.08,7.61,14.08s7.61-3.74,7.61-14.08-4.28-14.02-7.61-14.02-7.61,3.74-7.61,14.02Z"/><path class="cls-4" d="M195.1,156.22c0,5.41-3.8,9.39-9.98,9.39s-9.98-3.98-9.98-9.39,3.8-9.39,9.98-9.39,9.98,3.98,9.98,9.39ZM190.11,156.22c0-2.97-2.08-5.11-4.99-5.11s-4.99,2.14-4.99,5.11,2.08,5.11,4.99,5.11,4.99-2.14,4.99-5.11ZM206.56,146l3.15,1.78-23.59,40.82-3.15-1.84,23.59-40.76ZM217.56,178.15c0,5.41-3.8,9.39-9.98,9.39s-9.98-3.98-9.98-9.39,3.8-9.39,9.98-9.39,9.98,3.98,9.98,9.39ZM212.57,178.15c0-2.97-2.08-5.11-4.99-5.11s-4.99,2.14-4.99,5.11,2.08,5.11,4.99,5.11,4.99-2.14,4.99-5.11Z"/><path class="cls-2" d="M18.6,183.79l18-23.54c-2.38.79-5.32,1.47-8.04,1.47-5.32,0-12.11-2.15-16.52-6.45-3.96-3.73-7.13-10.19-7.13-18.11,0-6.34,1.81-12.68,6.9-18.22,6.45-7.02,13.81-8.6,21.5-8.6s15.28,1.47,21.5,7.7c4.07,4.07,7.36,9.85,7.36,18.33,0,9.17-4.19,16.52-9.51,23.54l-22.18,29.65-11.88-5.77ZM23.69,125.96c-1.81,1.81-4.07,4.98-4.07,9.96,0,4.53,1.58,7.92,4.19,10.41,2.83,2.72,6,3.62,9.73,3.62,4.07,0,7.13-1.24,9.85-4.07,2.72-2.83,4.07-6,4.07-9.85,0-4.75-1.92-8.04-4.19-10.19-1.92-1.81-5.21-3.73-9.73-3.73-4.75,0-7.92,1.92-9.85,3.85Z"/><path class="cls-2" d="M68.07,149.73c0-25.92,14.15-39.38,29.2-39.38s29.2,13.47,29.2,39.5-14.15,39.38-29.2,39.38-29.2-13.47-29.2-39.5ZM82.78,149.73c0,19.69,8.04,26.82,14.49,26.82s14.49-7.13,14.49-26.82-8.15-26.71-14.49-26.71-14.49,7.13-14.49,26.71Z"/><path class="cls-2" d="M133.48,178.44c2.61,0,4.63,2.02,4.63,4.63s-2.02,4.63-4.63,4.63-4.63-2.02-4.63-4.63,2.02-4.63,4.63-4.63Z"/><path class="cls-2" d="M141.61,167.09c0-13.61,7.43-20.68,15.33-20.68s15.33,7.07,15.33,20.74-7.43,20.68-15.33,20.68-15.33-7.07-15.33-20.74ZM149.33,167.09c0,10.34,4.22,14.08,7.61,14.08s7.61-3.74,7.61-14.08-4.28-14.02-7.61-14.02-7.61,3.74-7.61,14.02Z"/><path class="cls-2" d="M195.1,156.22c0,5.41-3.8,9.39-9.98,9.39s-9.98-3.98-9.98-9.39,3.8-9.39,9.98-9.39,9.98,3.98,9.98,9.39ZM190.11,156.22c0-2.97-2.08-5.11-4.99-5.11s-4.99,2.14-4.99,5.11,2.08,5.11,4.99,5.11,4.99-2.14,4.99-5.11ZM206.56,146l3.15,1.78-23.59,40.82-3.15-1.84,23.59-40.76ZM217.56,178.15c0,5.41-3.8,9.39-9.98,9.39s-9.98-3.98-9.98-9.39,3.8-9.39,9.98-9.39,9.98,3.98,9.98,9.39ZM212.57,178.15c0-2.97-2.08-5.11-4.99-5.11s-4.99,2.14-4.99,5.11,2.08,5.11,4.99,5.11,4.99-2.14,4.99-5.11Z"/><rect class="cls-3" x="136.44" y="103.75" width="77.02" height="29.49" rx="5.19" ry="5.19"/><path class="cls-1" d="M147.02,117.84c-1.36-.96-2.76-1.45-3.6-1.74l1.13-2c1.69.42,2.89,1.16,3.6,1.6l-1.13,2.14ZM147.78,124.78c-.18.4-.89,1.96-.89,2.22,0,.07.07.44.07.51,0,.16-.16.2-.29.2-.09,0-.24,0-.47-.11l-2.31-1.13c.91-1.33,2.54-4.63,3.47-7.25l2.03,1.58c-.36,1-1.31,3.34-1.6,3.98ZM148.56,112.75c-1.05-.87-2.54-1.54-3.25-1.87l1.07-1.94c.85.29,2.14.87,3.34,1.69l-1.16,2.11ZM157.52,116.19v1.16h5.41v9.14c0,1.42-.71,1.62-3.34,1.65l-.96-2.51c.36.07.96.09,1.22.09.56,0,.84-.09.84-.67v-5.67h-3.18v3.43h.58v-2.43l1.89.07c.13,0,.45.04.45.29,0,.09-.04.13-.11.18-.25.22-.33.29-.33.4v3.31h-5.12v1.11h-1.89v-5.45l1.82.09c.11,0,.45.07.45.31,0,.07-.02.11-.18.22-.07.04-.2.16-.2.31v1.58h.62v-3.43h-3.29v8.7h-2.27v-10.72h5.56v-1.16h-5.94v-1.98h3.4v-1.38h-2.67v-2.05h2.67v-1.91l2.36.16c.29.02.49.09.49.29,0,.11-.07.18-.16.22-.09.09-.31.22-.31.31v.93h2.31v-1.96l2.45.11c.22,0,.62.04.62.31,0,.11-.11.2-.2.27-.4.22-.45.24-.45.33v.93h2.51v2.05h-2.51v1.38h3.07v1.98h-5.63ZM157.66,112.84h-2.31v1.38h2.31v-1.38Z"/><path class="cls-1" d="M184.05,127.79c-1.71-.04-5.61-.31-6.83-.42-4.03-.4-5.58-2.16-6.7-3.36-1.05,2.36-1.94,3.2-2.62,3.8l-2.8-1.29c.93-.8,1.98-1.69,2.87-3.54.93-1.94.98-3.43,1.02-4.67l2.6.24c.18.02.67.07.67.33,0,.11-.07.16-.16.2-.33.13-.36.16-.38.27-.09.87-.13,1.09-.29,1.91.27.56.78,1.6,2.45,2.56v-7.14h-5.92v-7.56h15v7.56h-6.34v2.45h6.61v2.34h-6.61v3.34c1.11.22,2.27.24,3.83.24,2.54,0,3.85-.09,4.89-.16l-1.29,2.89ZM180.16,111.39h-9.46v3.09h9.46v-3.09Z"/><path class="cls-1" d="M201.99,112.23v1.29h3.67v1.98h-3.67v3.23h-8.21v-3.23h-2.34c-.04,2.16-.07,4.69-.67,7.74-.47,2.42-.96,3.43-1.49,4.52l-2.45-.65c.49-.87.82-1.49,1.2-2.87.67-2.38.96-4.98.96-8.36,0-1.82-.04-3.83-.18-5.63h6.85v-1.42l2.96.2s.42.04.42.27c0,.18-.09.22-.22.29-.13.07-.25.18-.25.24v.42h7.9v1.98h-4.49ZM204.57,128.12c-2.83-.4-4.58-.93-6.92-2.18-1.71.85-3.11,1.38-5.78,2l-1.31-1.96c1.69-.29,3.18-.67,5.03-1.42-.53-.45-1.29-1.05-2.36-2.29l2.02-.69h-3.47v-2.05h11.12l.98,1c-1.22,1.71-2.22,2.74-3.92,3.98,1.25.49,2.74,1.02,5.87,1.36l-1.27,2.25ZM193.78,112.23h-2.34v1.29h2.34v-1.29ZM195.78,121.58c.6.78,1.16,1.31,2.02,1.82,1.2-.85,1.74-1.45,2.07-1.82h-4.09ZM199.56,112.23h-3.4v1.29h3.4v-1.29ZM199.56,115.51h-3.4v1.36h3.4v-1.36Z"/></g></svg>