<?xml version="1.0" encoding="UTF-8"?><svg id="_レイヤー_2" xmlns="http://www.w3.org/2000/svg" xmlns:xlink="http://www.w3.org/1999/xlink" viewBox="0 0 308.75 200.3"><defs><style>.cls-1{filter:url(#drop-shadow-1);}.cls-2{fill:#fff;stroke-width:0px;}</style><filter id="drop-shadow-1" filterUnits="userSpaceOnUse"><feOffset dx="0" dy="0"/><feGaussianBlur result="blur" stdDeviation="4.92"/><feFlood flood-color="#000" flood-opacity=".26"/><feComposite in2="blur" operator="in"/><feComposite in="SourceGraphic"/></filter></defs><g id="_レイヤー_1-2"><g class="cls-1"><path class="cls-2" d="M12.9,39.49h-6.35v29.16H2.31v-33.29h10.58v4.12ZM11.8,36.46H3.41v31.06h2.04v-29.13h6.35v-1.93Z"/><path class="cls-2" d="M47.1,67.26c-.99-.66-3.1-2.01-5.55-4.45-2.74-2.7-4.16-4.96-4.93-6.17v11.86h-4.2v-11.75c-2.26,3.5-5.66,7.3-10.33,10.37l-3.83-3.21c5.69-2.55,10.15-7.56,12.01-10.8h-11.5v-3.94h13.65v-3.87h-11.42v-4.01h11.42v-4.45l3.87.15c.26,0,1.09.11,1.09.55,0,.18-.22.36-.33.47-.33.29-.44.36-.44.55v2.74h11.53v4.01h-11.53v3.87h13.65v3.94h-11.5c3.61,5.4,6.75,8.14,12.08,10.73l-3.76,3.43Z"/><path class="cls-2" d="M76.91,55.22c2.59,4.16,6.64,7.04,11.02,9.27l-2.99,3.14c-5.73-3.07-8.54-6.86-10.33-9.42v10.11h-3.94v-10.69c-2.59,3.72-5.66,6.93-11.1,10.29l-3.1-2.96c5.04-2.74,8.83-5.99,11.39-9.75h-11.02v-3.65h7.34c-.66-1.57-1.97-4.56-2.88-6.06l2.81-1.31h-5.48v-3.54h12.04v-3.83l3.98.44c.4.04.66.15.66.4,0,.18-.15.33-.33.47-.25.22-.36.33-.36.44v2.08h12.04v3.54h-6.31l2.67,1.17c.18.07.62.29.62.62,0,.11-.11.22-.25.29-.4.18-.44.18-.51.36-.66,1.61-.99,2.34-2.41,4.93h7.81v3.65h-11.35ZM70.67,44.2h-5.69c.73.99,2.19,4.12,2.85,6.1l-2.34,1.28h5.18v-7.37ZM74.61,44.2v7.37h4.12l-1.86-1.13c1.28-2.12,1.97-4.09,2.7-6.24h-4.96Z"/><path class="cls-2" d="M122.37,60.37c-2.74,4.05-6.53,5.62-8.5,6.42l-2.7-3.76c1.64-.47,4.34-1.24,6.57-3.91,2.23-2.63,2.63-5.66,2.63-7.26,0-2.01-.58-4.45-2.63-6.39-2.3-2.19-4.85-2.34-6.21-2.45-1.17,8.69-3.32,13.8-4.53,16.24-1.09,2.26-2.77,5.33-4.67,5.33-1.31,0-7.3-3.28-7.3-9.82,0-8.1,6.68-15.48,16.1-15.48,7.59,0,13.58,5.15,13.58,13.29,0,3.21-.99,5.77-2.34,7.77ZM102.73,46.31c-2.59,2.48-3.65,5.88-3.65,8.1,0,2.96,1.68,4.49,2.34,4.49,1.9,0,5.04-9.53,5.77-15.22-1.06.36-2.7.91-4.45,2.63Z"/><path class="cls-2" d="M139.84,52.85c-2.3-1.53-4.56-2.7-7.26-3.54l2.01-3.69c2.77.88,5.18,2.08,7.48,3.8l-2.23,3.43ZM151.01,59.05c-3.72,3.21-7.88,5.88-12.26,8.07-.47.26-.55.26-.62.55-.11.47-.18.66-.37.66-.33,0-.73-.77-.84-.99l-1.93-3.58c10.07-4.31,17.04-10.88,21.54-17.85l2.92,3.61c-1.17,1.79-3.47,5.29-8.43,9.53ZM143.56,44.31c-2.41-1.82-5.73-2.88-7.15-3.28l1.93-3.5c2.01.55,5.07,1.5,7.37,3.25l-2.15,3.54ZM154.7,43.36c-1.09-1.13-2.23-1.97-3.58-2.74l1.53-2.01c1.09.62,2.48,1.5,3.69,2.74l-1.64,2.01ZM158.42,40.4c-1.09-1.13-2.66-2.12-3.8-2.77l1.53-2.01c.66.36,2.55,1.42,3.87,2.77l-1.61,2.01Z"/><path class="cls-2" d="M191.67,45.47c-1.39,3.76-3.03,8.25-6.64,12.85-3.91,4.93-8.14,7.26-10.69,8.65l-3.83-3.14c4.05-1.9,12.34-6.13,16.61-18.72h-19.45v-4.23h20.66c.4,0,.77-.29,1.2-.58l3.58,3.36c-.58.51-1.13,1.06-1.42,1.82ZM189.22,39.52c-.55-.69-1.68-2.12-3.03-3.21l1.79-1.61c1.31,1.06,2.59,2.63,3.03,3.21l-1.79,1.61ZM194.59,39.34c-.88-1.2-1.79-2.34-2.99-3.28l1.79-1.61c1.28,1.02,2.41,2.41,3.1,3.32l-1.9,1.57Z"/><path class="cls-2" d="M209.6,47.19c-2.08-1.72-4.56-3.28-7.48-4.6l2.23-3.43c2.41,1.06,5.37,2.63,7.67,4.53l-2.41,3.5ZM220.29,57.12c-5.77,4.67-9.23,6.2-13.76,8.14-.18.51-.26,1.13-.55,1.13-.22,0-.55-.22-.8-.69l-2.55-4.38c2.92-.69,7.7-1.93,13.54-6.31,5.58-4.16,9.09-8.98,10.69-11.17l2.52,3.65c-1.42,1.9-4.27,5.73-9.09,9.64Z"/><path class="cls-2" d="M236.65,65.84h6.35v-29.16h4.23v33.29h-10.58v-4.12ZM237.75,68.87h8.4v-31.06h-2.04v29.13h-6.35v1.93Z"/><path class="cls-2" d="M277.17,64.82c-.77.77-1.97,1.42-4.16,1.42-1.09,0-2.08-.07-2.74-.15l-.88-3.94c.66.15,1.42.29,2.48.29,1.13,0,1.86-.22,2.52-1.02,1.64-2.04,1.93-6.64,1.93-8.39,0-2.81-.69-3.69-2.96-3.69-.8,0-1.53.11-1.97.18-1.86,7.48-3.61,11.86-6.93,16.9l-3.8-1.72c3.43-4.89,5.15-8.5,6.61-14.23-1.97.62-3.14,1.09-4.96,1.97l-1.35-4.38c2.77-.44,4.01-.69,7.01-1.35.29-2.34.4-3.87.37-6.93l4.38.62c.47.07.88.26.88.55,0,.15-.04.18-.4.4q-.44.29-.51.77c-.18,1.46-.25,2.12-.55,3.76.58-.11,1.61-.26,2.66-.26,4.93,0,5.37,4.34,5.37,7.59,0,5.26-1.28,9.96-2.99,11.61ZM283.96,56.57l-1.93-3.47c1.31-.18,2.08-.36,2.08-1.24s-1.39-3.91-5.26-8.39l2.96-2.04c1.68,2.01,6.64,7.88,6.64,11.75,0,2.77-3.14,3.21-4.49,3.39ZM287.13,44.89c-.91-1.31-1.75-2.23-2.88-3.21l1.97-1.46c1.02.91,2.01,2.04,2.81,3.1l-1.9,1.57ZM290.85,42.74c-.73-1.2-1.61-2.23-2.59-3.14l1.9-1.39c.99.8,1.93,1.82,2.85,3.07l-2.15,1.46Z"/><path class="cls-2" d="M300.64,57.7c3.07,1.79,5.84,4.09,8.1,7.92l-3.8,3.03c-1.9-3.18-4.2-5.8-7.04-8.1l2.74-2.85Z"/><path class="cls-2" d="M19.29,100.94c2.26,4.31,3.43,5.88,4.82,7.59l-2.23,2.77c-1.75-.95-5.37-2.77-9.56-2.77-2.41,0-4.42,1.02-4.42,2.99,0,3.1,4.75,3.1,5.99,3.1,3.47,0,5.55-.55,7.3-.99l-.37,4.31c-1.02.15-2.88.44-5.77.44-6.57,0-11.1-2.08-11.1-6.9s3.94-6.35,8.07-6.35c1.83,0,3.43.26,5.22.58-.88-1.57-1.2-2.23-1.9-3.58-3.83.95-6.97,1.53-11.72,1.61l-1.28-3.69c5.18-.04,7.56-.26,11.5-1.09-.55-1.24-.95-2.15-1.31-2.99-3.69.73-5.73.95-8.69.99l-1.13-3.5c3.5-.04,5.37-.18,8.5-.73-.84-2.26-1.24-3.43-1.82-5.15l4.16-.47c.29-.04,1.21-.15,1.21.29,0,.18-.11.29-.29.47-.29.29-.33.4-.33.51,0,.26.62,2.04,1.1,3.36,2.48-.88,3.87-1.5,6.24-2.81l.8,3.54c-2.08,1.31-4.09,1.93-5.77,2.48.47,1.13.62,1.5,1.2,2.77,2.66-1.06,4.16-1.82,6.64-3.28l.66,3.65c-2.01,1.31-3.47,1.97-5.73,2.85Z"/><path class="cls-2" d="M43.48,116.13l-1.9-3.83c1.35.11,2.08.15,2.67.15,3.03,0,10.55-1.35,10.55-6.86,0-3.91-3.36-4.82-5.26-4.82-1.64,0-5.26,1.09-7.12,1.68-.73.22-3.1.99-6.57,2.23l-1.79-3.83c3.5-.47,5.99-1.2,9.78-2.3,2.26-.66,4.38-.99,5.88-.99,4.53,0,8.61,2.45,8.61,8.25,0,8.21-8.65,9.64-14.86,10.33Z"/><path class="cls-2" d="M80.15,117.77c-4.31,0-6.21-.51-8.03-1.46-2.63-1.39-3.72-3.94-3.72-6.24,0-4.56,3.54-6.9,7.56-9.27-1.02-1.09-1.72-2.26-2.15-3.28-.51-1.2-.69-2.26-1.86-9.23l4.67-.69c.04,2.04.07,5.91,1.06,8.65.51,1.39,1.28,1.97,2.12,2.48,4.2-1.97,4.67-2.19,9.16-4.31l1.35,4.45c-5.77,1.57-11.17,4.27-13.5,5.77-1.64,1.02-4.34,2.88-4.34,5.33,0,2.63,2.88,3.91,6.72,3.91s7.59-.73,11.28-1.64v4.67c-2.19.33-5.73.88-10.29.88Z"/><path class="cls-2" d="M124.63,118.32h-4.93c-2.41,0-3.98-1.09-3.98-3.28v-8.29h-4.34l2.41,1.24c.15.07.26.26.26.36,0,.15-.15.26-.22.29-.69.36-.73.36-.91.73-1.09,2.12-3.76,7.34-10.58,9.64l-2.92-3.18c1.06-.22,3.83-.84,6.5-3.32,2.34-2.12,3.14-4.45,3.58-5.77h-5.84v-18.91h22.19v18.91h-6.06v6.83c0,.69.51.95,1.09.95h3.61c.91,0,1.35,0,2.37-3.94l3.47,2.15c-1.31,4.45-2.34,5.58-5.69,5.58ZM121.49,91.38h-13.5v1.93h13.5v-1.93ZM121.49,96.27h-13.5v1.93h13.5v-1.93ZM121.49,101.16h-13.5v2.04h13.5v-2.04Z"/><path class="cls-2" d="M157.47,111.96c-3.83,1.93-8.14,2.63-12.41,2.77l-1.86-4.78c1.09.15,2.45.18,3.58.18,6.24,0,12.99-2.55,12.99-8.36,0-4.6-3.94-5.99-6.72-5.99-2.08,0-5.55.91-8.1,1.64-1.35.36-7.34,2.12-8.58,2.45l-1.97-4.6c3.47-.36,6.97-1.17,9.38-1.75,4.38-1.09,6.64-1.64,9.12-1.64,4.89,0,11.21,2.48,11.21,10.33,0,5.33-3.43,8.1-6.64,9.75Z"/><path class="cls-2" d="M189.25,113.79c-1.57,2.66-3.91,2.81-5.47,2.81-.99,0-2.12-.07-3.14-.22l-.51-4.42c.8.26,1.86.58,3.29.58,1.09,0,1.68-.18,2.19-.91.69-.99,2.23-5.4,2.23-9.09,0-1.93-.4-3.1-3.03-3.1-.66,0-1.39.07-2.08.18-1.9,6.68-3.83,10.95-7.56,17.01l-4.16-1.86c3.21-4.09,5.07-7.34,7.23-14.27-1.79.44-3.29.88-5.18,1.57l-1.46-4.42c2.66-.22,6.02-.84,7.63-1.09.44-2.34.77-4.27.8-7.3l4.45.62c.29.04,1.02.26,1.02.58,0,.15-.07.26-.47.51-.66.4-.73.44-.77.8-.18,1.31-.44,2.59-.69,3.98.8-.15,1.9-.29,2.88-.29,4.96,0,5.37,4.05,5.37,6.28,0,3.03-.62,8.69-2.55,12.04ZM195.86,106.75l-2.48-3.76c1.57-.15,2.41-.22,2.41-1.09,0-1.13-2.04-4.78-4.05-7.08l3.03-2.19c4.78,5.11,5.69,9.42,5.69,10.73,0,2.08-2.26,2.96-4.6,3.39Z"/><path class="cls-2" d="M220.37,117.55c-4.56,0-6.9-2.3-6.9-5,0-2.08,1.79-4.85,5.37-4.85,3.8,0,6.17,2.99,7.19,4.27.8-.73,2.41-2.26,2.41-4.85,0-3.61-3.54-4.78-5.91-4.78-1.57,0-3.29.44-4.16.91-2.26,1.2-5.47,4.45-7.52,6.53l-3.07-3.21c3.8-2.85,7.67-6.1,13.5-13.18-2.19.51-4.2.88-8.54.91l-.84-4.09c.88.07,2.96.22,4.09.22,1.39,0,7.59-.47,11.06-1.82l1.9,2.96c-2.19,1.82-2.81,2.41-8.1,7.81,1.21-.18,2.99-.22,3.54-.22,4.96,0,8.1,4.05,8.1,8.07,0,6.06-5.69,10.33-12.12,10.33ZM218.98,110.91c-1.5,0-1.83,1.06-1.83,1.53,0,1.28,1.68,1.64,2.99,1.64,1.17,0,1.97-.22,2.48-.33-.47-.84-1.57-2.85-3.65-2.85Z"/><path class="cls-2" d="M255.01,113.32c0,3.1-2.52,5.62-5.62,5.66-3.1,0-5.66-2.55-5.66-5.66s2.56-5.62,5.66-5.62,5.62,2.48,5.62,5.62ZM245.48,113.32c0,2.15,1.75,3.91,3.91,3.87,2.15,0,3.87-1.72,3.87-3.87s-1.75-3.87-3.87-3.87-3.91,1.72-3.91,3.87Z"/><path class="cls-2" d="M13.3,158.52l.13,7.32c.04,2.43-1.21,2.64-3.83,2.66l-.94-2.37c.23.04.87.13,1.46.13.79,0,1-.19,1-.58l-.08-5.22c-1.56,2.29-3.93,4.18-6.26,5.68l-1.68-1.68c2.99-1.42,5.26-3.72,6.64-5.95H3.75v-2.06h7.24l-.08-3.64,2.23.12c.12,0,.44.02.44.25,0,.06-.02.12-.15.21-.21.15-.25.19-.25.29l.08,2.77h3.89v2.06h-3.85Z"/><path class="cls-2" d="M21.68,161.95v-2.45h13.69v2.45h-13.69Z"/><path class="cls-2" d="M51.91,157.07c-.73,1.94-1.56,4.14-3.39,6.51-2.06,2.68-4.37,3.97-5.7,4.7l-2.1-1.69c1.31-.6,4.04-1.87,6.39-5.05,1.46-1.96,2.06-3.72,2.41-4.72h-10.26v-2.23h10.9c.23,0,.44-.15.64-.31l1.91,1.73c-.31.27-.6.56-.79,1.06ZM53.21,154.88c-.98,0-1.79-.83-1.79-1.85s.79-1.83,1.79-1.83,1.81.83,1.81,1.83-.81,1.85-1.81,1.85ZM53.21,151.95c-.56,0-1.06.46-1.06,1.08s.52,1.1,1.06,1.1,1.06-.44,1.06-1.1c0-.62-.48-1.08-1.06-1.08Z"/><path class="cls-2" d="M62.24,157.84c-1.1-.91-2.41-1.73-3.95-2.43l1.17-1.81c1.27.56,2.83,1.39,4.04,2.39l-1.27,1.85ZM67.88,163.08c-3.04,2.46-4.87,3.27-7.26,4.29-.1.27-.13.6-.29.6-.12,0-.29-.12-.42-.37l-1.35-2.31c1.54-.37,4.06-1.02,7.14-3.33,2.95-2.2,4.79-4.74,5.64-5.89l1.33,1.93c-.75,1-2.25,3.02-4.79,5.08Z"/><path class="cls-2" d="M85.32,162.43l1.06,5.99-2.23.44-1.04-6.14-6.26.81-.29-2.1,6.18-.81-.42-2.48-4.66.62-.27-2,4.6-.58-.6-3.45,2.02-.12c.42-.02.58.04.58.19,0,.08-.33.42-.31.52l.46,2.54,4.2-.54.29,2-4.14.54.44,2.46,5.6-.73.27,2.12-5.49.71Z"/><path class="cls-2" d="M105.51,164.08l-1.75-.75c.33-.56.38-.67.92-1.56.37-.6.4-.65.77-1.29l-3.5.71,1.44,7.36-2.06.48-1.33-7.43-3.52.73-.69-1.73,3.89-.75-.64-3.45,1.83-.21c.1-.02.5-.04.5.17,0,.04,0,.08-.15.27-.04.06-.13.19-.12.29l.52,2.54,4.51-.87c.33-.06.56-.37.66-.5l1.56,1.14c-.85,1.41-1.5,2.52-2.83,4.85Z"/><path class="cls-2" d="M115.56,157.84c-1.1-.91-2.41-1.73-3.95-2.43l1.17-1.81c1.27.56,2.83,1.39,4.04,2.39l-1.27,1.85ZM121.21,163.08c-3.04,2.46-4.87,3.27-7.26,4.29-.1.27-.13.6-.29.6-.12,0-.29-.12-.42-.37l-1.35-2.31c1.54-.37,4.06-1.02,7.14-3.33,2.95-2.2,4.79-4.74,5.64-5.89l1.33,1.93c-.75,1-2.25,3.02-4.79,5.08Z"/><path class="cls-2" d="M135.04,156.19c-.06.06-.4.23-.46.31-.08.08-.38,1.39-.46,1.64-1.41,4.74-3.31,7.3-4.2,8.49l-2.45-.96c2.66-2.87,4.27-6.89,4.89-10.46l2.33.52c.06.02.46.12.46.31,0,.08-.06.12-.12.15ZM142.24,166.03c-.67-3.12-2.56-7.47-4.49-9.86l2-1.14c1.71,2.23,3.81,6.3,4.89,9.9l-2.41,1.1ZM143.49,156.92c-.98,0-1.81-.83-1.81-1.87s.81-1.85,1.81-1.85,1.83.85,1.83,1.85-.83,1.87-1.83,1.87ZM143.49,153.97c-.62,0-1.06.52-1.06,1.08,0,.6.48,1.1,1.06,1.1s1.08-.48,1.08-1.1c0-.58-.46-1.08-1.08-1.08Z"/><path class="cls-2" d="M161.11,167.57c-1.75-2.16-3.12-3.54-4.7-4.81-1.54,1.71-2.97,3.18-6.59,4.95l-1.69-1.75c1.25-.54,3.7-1.56,6.14-4.16,2.08-2.21,2.83-4.16,3.27-5.26h-7.34v-2.23h8.3c.37,0,.66-.19,1-.42l1.48,1.64c-.38.27-.81.6-1.04,1.16-.65,1.54-1.02,2.43-2.23,4.31,1.87,1.41,3.52,3.04,5.1,4.76l-1.71,1.83Z"/><path class="cls-2" d="M174.73,158.15c-1.42,1.43-2.35,3.16-2.35,4.62,0,1.33.85,2.12,1.39,2.5,1.25.89,2.6.94,3.39.98l-.75,2.35c-1.02-.17-3.18-.58-4.74-2.14-.92-.91-1.42-2.16-1.42-3.47s.48-2.58,1.31-3.83c.9-1.41,1.87-2.31,2.54-2.93-2.58.21-5.41.44-7.34.71l-.33-2.16c4.16.04,10.13-.42,13.77-1.54v2.23c-.9.06-3.02.19-5.47,2.66ZM178.75,161.45c-.42-.52-.83-.91-1.58-1.48l.79-.92c.64.48,1.12.89,1.6,1.48l-.81.92ZM180.31,159.69c-.5-.58-.96-1-1.6-1.46l.81-.92c.81.6,1.19,1,1.6,1.46l-.81.92Z"/><path class="cls-2" d="M12.14,200.12l-1.41-1.77c.79-.1,2.18-.31,3.29-1.37.69-.65,1.12-1.6,1.12-2.66,0-1.85-1.39-2.43-1.93-2.66-.96,2.02-1.69,3.27-3.14,4.85.13.46.17.54.37,1.16l-1.85,1c-.13-.29-.15-.35-.27-.71-.52.33-1.58.96-2.75.96s-2.12-.94-2.12-2.5c0-1.31.71-4.01,4.2-5.93.04-.75.1-1.23.19-2.14-1.21.06-1.71.06-2.75.06l-.63-1.91c.69.08,2.25.19,3.66.13.23-1.37.4-2.08.71-3.25l2,.54c.48.13.48.23.48.29,0,.17-.23.23-.44.29-.21.48-.37,1.04-.6,1.89,2.52-.42,3.6-.83,4.72-1.29v2.06c-1.85.54-3.06.79-5.08,1.02-.12.71-.13.81-.23,1.58.83-.15,1.25-.17,2.1-.15.1-.39.15-.64.23-1l2.21.48-.31.89c2.16.73,3.47,2.16,3.47,4.43,0,4.24-3.91,5.33-5.24,5.72ZM7.62,192.57c-1.73,1.44-2.21,2.66-2.21,3.45s.38.91.71.91c.75,0,1.37-.5,1.79-.83-.19-1.37-.25-2.18-.29-3.52ZM9.52,191.48c-.04,1.44.04,2.16.1,2.77.75-1.14,1.14-1.91,1.58-2.98-.67-.02-1.04.02-1.67.21Z"/><path class="cls-2" d="M27.63,188.36c-1.56,4.51-2.56,6.43-3.56,8.26l-2.06-.89c1.54-2.35,2.5-4.83,3.29-7.01-.89.12-1.42.17-2.33.23l-.29-2c1.27-.02,2.08-.1,3.27-.25.33-1.16.56-2,.69-3.18l2.1.46c.1.02.46.12.46.33,0,.19-.33.31-.44.42-.02.02-.38,1.25-.46,1.5,1.14-.29,1.71-.48,2.21-.65v2.16c-.66.17-1.25.33-2.89.62ZM34.44,198.6c-.65-.54-1.16-.87-1.91-1.27-.17,1.54-.75,2.35-3.27,2.35-1.23,0-2.33-.19-3.14-.91-.31-.27-.71-.83-.71-1.64,0-1.04.75-2.73,3.41-2.73.63,0,1.12.06,1.5.12-.04-.44-.27-2.41-.27-2.81,0-.92.44-1.5.83-1.96l2,1.08c-.62.5-.73.98-.73,1.54,0,.4.04,1.25.25,2.68,1.27.5,2.1.98,3.31,1.75l-1.27,1.81ZM28.74,196.16c-1,0-1.46.54-1.46.92,0,.42.54.87,1.6.87,1.56,0,1.54-.81,1.54-1.5-.35-.1-1.02-.29-1.67-.29ZM35.31,190.38c-1.27-.77-2.31-1.27-4.22-1.75l.87-1.66c1.42.25,2.87.69,4.29,1.77l-.94,1.64Z"/><path class="cls-2" d="M46.58,189.11c-.94,3.2-1.95,6.3-3.97,10.24l-2.35-.71c1.16-1.87,2.39-3.95,3.91-9.17-1.54.19-2.2.21-2.87.23l-.15-2c.21.04.62.12,1.56.12.27,0,1.48-.02,1.91-.12.29-1.31.62-2.79.65-4.08l2.37.56s.48.1.48.31c0,.13-.06.19-.23.27-.25.12-.29.13-.33.33-.17.87-.33,1.56-.46,2.1,1.14-.25,2.29-.77,3.06-1.14v2.14c-.66.21-1.46.52-3.58.92ZM51.45,199.49c-3.47,0-4.95-.96-4.95-2.93,0-.1,0-.71.23-1.39l1.91.4c-.08.37-.08.67-.08.71,0,.25.04.4.23.58.54.5,2,.52,2.45.52,1.79,0,2.83-.29,3.39-.42l.19,2.23c-.98.17-2.02.29-3.37.29ZM51.88,191.84c-1.23,0-2.43.15-2.89.21v-2.02c1-.08,1.96-.13,2.98-.13,1.35,0,1.96.06,2.54.12v2.04c-1.44-.19-2.35-.21-2.64-.21Z"/><path class="cls-2" d="M73.28,195.81c-1.44,2.14-3.45,2.97-4.49,3.39l-1.42-1.98c.87-.25,2.29-.65,3.47-2.06,1.17-1.39,1.39-2.98,1.39-3.83,0-1.06-.31-2.35-1.39-3.37-1.21-1.16-2.56-1.23-3.27-1.29-.62,4.58-1.75,7.28-2.39,8.57-.58,1.19-1.46,2.81-2.46,2.81-.69,0-3.85-1.73-3.85-5.18,0-4.28,3.52-8.16,8.49-8.16,4,0,7.16,2.72,7.16,7.01,0,1.69-.52,3.04-1.23,4.1ZM62.92,188.4c-1.37,1.31-1.93,3.1-1.93,4.27,0,1.56.89,2.37,1.23,2.37,1,0,2.66-5.03,3.04-8.03-.56.19-1.42.48-2.35,1.39Z"/><path class="cls-2" d="M80.04,188.01v-2.48c0-.37,0-2.46,2.6-2.75v1.31c-1.31.06-1.39.89-1.43,1.29h1.43v2.64h-2.6ZM83.51,188.01v-2.48c0-.37,0-2.46,2.58-2.75v1.31c-1.29.06-1.37.89-1.42,1.29h1.42v2.64h-2.58Z"/><path class="cls-2" d="M103.96,191.61v-2.31h-11.42v2.41h-2.08v-4.2h9.55c.92-1.12,1.77-2.29,2.35-3.62l1.91.64c.12.04.33.17.33.33,0,.08-.04.1-.08.12-.06.06-.48.15-.56.23-.4.75-.79,1.37-1.5,2.31h3.62v4.1h-2.12ZM99.45,195.71v2.91c0,1.35-1.12,1.68-2.29,1.68h-1.21l-.85-2.04c.23.02,1.31.12,1.54.12.33,0,.46-.29.46-.58v-2.08h-6.64v-1.89h6.64v-1.19l.92.15c.42-.37.58-.58.73-.81h-5.14v-1.79h8.72l.54.85c-.87.79-2.39,2.04-3.43,2.79h6.53v1.89h-6.53ZM93.41,187.34c-.46-.94-.91-1.66-1.66-2.56l1.77-1.08c.63.73,1.19,1.46,1.71,2.48l-1.83,1.16ZM97.78,186.95c-.48-.98-.98-1.79-1.79-2.77l1.75-1.04c.91,1.06,1.44,1.94,1.89,2.83l-1.85.98Z"/><path class="cls-2" d="M116.59,186.18c-.9,1.44-2.68,4.26-2.68,7.51,0,2,1.1,3.39,3.02,3.39,3.66,0,3.66-4.53,3.66-5.45,0-3.06-.96-5.06-1.56-6.35l2.04-.98c1.33,2.62,2.7,4.76,5.24,6.91l-1.46,1.77c-1.17-1.23-1.91-2.33-2.7-3.76.1.48.31,1.66.31,3.16,0,4.95-2.54,6.91-5.43,6.91-3.27,0-5.26-2.46-5.26-5.26,0-2.14.92-4.47,1.62-6.03-1.04.56-1.69.79-2.54,1.04l-1.1-2.02c2.29-.48,3.52-1.08,5.16-2.33l1.67,1.48ZM124.8,186.86c-.44-.6-1-1.14-1.52-1.6l.77-.87c.6.46,1.1.96,1.58,1.56l-.83.91ZM126.09,185.03c-.44-.5-.92-.98-1.5-1.41l.83-.92c.54.44,1,.87,1.46,1.37l-.79.96Z"/><path class="cls-2" d="M135.47,189.11c-.94,3.2-1.95,6.3-3.97,10.24l-2.35-.71c1.16-1.87,2.39-3.95,3.91-9.17-1.54.19-2.2.21-2.87.23l-.15-2c.21.04.62.12,1.56.12.27,0,1.48-.02,1.91-.12.29-1.31.62-2.79.65-4.08l2.37.56s.48.1.48.31c0,.13-.06.19-.23.27-.25.12-.29.13-.33.33-.17.87-.33,1.56-.46,2.1,1.14-.25,2.29-.77,3.06-1.14v2.14c-.66.21-1.46.52-3.58.92ZM140.35,199.49c-3.47,0-4.95-.96-4.95-2.93,0-.1,0-.71.23-1.39l1.91.4c-.08.37-.08.67-.08.71,0,.25.04.4.23.58.54.5,2,.52,2.45.52,1.79,0,2.83-.29,3.39-.42l.19,2.23c-.98.17-2.02.29-3.37.29ZM140.77,191.84c-1.23,0-2.43.15-2.89.21v-2.02c1-.08,1.96-.13,2.98-.13,1.35,0,1.96.06,2.54.12v2.04c-1.44-.19-2.35-.21-2.64-.21Z"/><path class="cls-2" d="M151.35,198.18c-.62,0-1.1-.33-1.42-.64-1.35-1.31-1.96-3.56-1.96-7.22,0-2.46.27-3.72.58-5.01l2.12.58c.13.04.44.13.44.37,0,.21-.23.29-.56.4-.21,1.06-.37,2.18-.37,4.29,0,3.76.92,4.45,1.31,4.45.69,0,1.48-2.04,1.85-2.97l1.6,1.42c-1.06,2.27-2.02,4.31-3.58,4.31ZM161.12,194.75c-.56-4.01-1.83-6.28-2.83-7.82l1.98-.96c.92,1.31,2.64,3.74,3.16,8.18l-2.31.6Z"/><path class="cls-2" d="M170.13,182.77v2.5c0,.37,0,2.46-2.58,2.73v-1.29c1.29-.06,1.37-.89,1.42-1.29h-1.42v-2.66h2.58ZM173.59,182.77v2.5c0,.37-.02,2.46-2.6,2.73v-1.29c1.31-.06,1.39-.89,1.42-1.29h-1.42v-2.66h2.6Z"/><path class="cls-2" d="M189.81,192.92c0,.75.04,3.14.04,3.79h-2.23c.06-1.1.08-2.04.1-2.89-.73.37-2.73,1.37-2.73,2.72,0,1.25,1.48,1.5,2.89,1.5,1.66,0,3.29-.25,4.91-.62v2.18c-1.83.29-3.97.29-4.58.29-1.08,0-3.31,0-4.53-1.29-.73-.77-.73-1.62-.73-1.89,0-2.39,1.77-3.29,4.66-4.78-.12-.58-.35-1.27-1.46-1.27-1.89,0-3.04,1.75-4.1,3.49l-1.89-1.17c1.52-1.64,2.48-3,3.79-5.3-1.1.06-1.7.08-2.5.08l-.23-2c1.16.1,2,.13,3.68.08.48-1.04.73-1.71.96-2.56l2.41.42c.06.02.38.06.38.19,0,.12-.08.17-.19.21-.04.02-.42.19-.44.19-.02.02-.5,1.1-.6,1.31,1.77-.29,2.64-.54,3.77-.98l-.13,2.16c-1.73.4-3.31.58-4.6.73-.62,1.14-.77,1.41-1.1,1.91.25-.12.83-.4,1.66-.4,1.33,0,2.18.67,2.62,1.94,2.25-1.06,2.5-1.17,3.41-1.58l.65,2.2c-1.52.48-2.45.81-3.87,1.35Z"/><path class="cls-2" d="M210.91,199.83h-2.6c-1.27,0-2.1-.58-2.1-1.73v-4.37h-2.29l1.27.65c.08.04.13.13.13.19,0,.08-.08.13-.12.15-.37.19-.38.19-.48.39-.58,1.12-1.98,3.87-5.58,5.08l-1.54-1.68c.56-.12,2.02-.44,3.43-1.75,1.23-1.12,1.66-2.35,1.89-3.04h-3.08v-9.97h11.71v9.97h-3.2v3.6c0,.37.27.5.58.5h1.91c.48,0,.71,0,1.25-2.08l1.83,1.14c-.69,2.35-1.23,2.95-3,2.95ZM209.26,185.62h-7.12v1.02h7.12v-1.02ZM209.26,188.2h-7.12v1.02h7.12v-1.02ZM209.26,190.78h-7.12v1.08h7.12v-1.08Z"/><path class="cls-2" d="M228.39,196.48c-2.02,1.02-4.29,1.39-6.55,1.46l-.98-2.52c.58.08,1.29.1,1.89.1,3.29,0,6.86-1.35,6.86-4.41,0-2.43-2.08-3.16-3.54-3.16-1.1,0-2.93.48-4.27.87-.71.19-3.87,1.12-4.53,1.29l-1.04-2.43c1.83-.19,3.68-.62,4.95-.92,2.31-.58,3.5-.87,4.81-.87,2.58,0,5.91,1.31,5.91,5.45,0,2.81-1.81,4.28-3.5,5.14Z"/><path class="cls-2" d="M239.77,198.56l-1.85.29c-.52-1.19-1.54-3.49-1.54-8.2,0-2.45.29-4.16.77-6.84l1.95.56c.06.02.56.15.56.35,0,.08-.06.12-.31.31-.4.33-.92,3.56-.92,6.2,0,1.14.06,2.41.38,3.64.27-.71.38-.98.77-1.85l1.44,1c-.66,1.5-1.02,3-1.25,4.54ZM248.23,189.8c.02.58.02.83.02,1.16,0,4.87-1.5,7.18-2.58,8.84l-2.18-1.12c.75-.96,1.35-1.75,1.89-3.22.44-1.21.71-1.89.71-4.22v-1.02c-1.46.21-2.43.27-3.99.29l-.44-2.21c.62.04.89.04,1.23.04,1.44,0,2.43-.13,3.1-.21-.12-1.48-.25-2.54-.56-4.16l2.25.08c.17,0,.5,0,.5.23,0,.08-.12.21-.17.29-.13.17-.17.25-.17.35s.04.5.06.6c0,.08.1,1.21.17,2.18,1.04-.29,1.64-.5,2.62-.92l.08,2.21c-.79.31-1.41.52-2.54.83Z"/><path class="cls-2" d="M265.92,198.7c-1.31-1-2.27-1.64-3.99-2.35.12,1.89-.48,3-3.62,3-3.5,0-4.56-1.41-4.56-2.72,0-1.68,1.68-3,4.49-3,.63,0,1.1.06,1.41.1-.13-4.47-.12-4.97-.12-8.34v-1.37l2.31.33c.1.02.46.08.46.25,0,.08-.02.1-.25.25-.12.08-.21.13-.23.29-.04.25-.1,1.66-.1,2.33.27.04.38.04.81.04,2.25,0,3.31-.42,3.91-.65v2.23c-1.39.35-2.64.46-3.5.46-.38,0-.91-.02-1.29-.06-.02,1.64-.02,2.25.13,4.7,2.21.69,3.5,1.31,5.35,2.56l-1.21,1.94ZM257.99,195.5c-1.21,0-1.89.44-1.89,1,0,.81,1.42.98,2.06.98,1.54,0,1.52-.96,1.52-1.81-.35-.06-.98-.17-1.69-.17Z"/><path class="cls-2" d="M281.08,197.04c-1.64,1.98-3.7,2.72-5.01,3.2l-1.48-1.85c1.14-.33,3.22-.94,4.81-2.89.81-1,1.41-2.27,1.41-3.68,0-1.69-1.14-2.04-1.73-2.04-1.6,0-4.7,1.54-6.1,2.23l-.89-2.23c1.43-.56,5.1-2.02,7.57-2.02.5,0,1.69.1,2.56,1.06.69.77.83,1.93.83,2.73,0,2-.69,3.95-1.96,5.49ZM280.29,186.07c-1.21-.04-3.35-.19-5.33-.48l-.17-2.37c2.23.54,3.56.64,5.78.67l-.27,2.18Z"/><path class="cls-2" d="M2.26,13.36c-.18-.04-.32-.13-.42-.28-.1-.15-.13-.32-.09-.5l.63-3.03H.67c-.18,0-.34-.07-.47-.2-.13-.13-.2-.29-.2-.47s.07-.33.2-.46.29-.19.47-.19h1.98l.55-2.73h-1.76c-.18,0-.34-.06-.47-.19-.13-.13-.2-.28-.2-.46,0-.19.07-.35.2-.48s.29-.19.47-.19h2.03l.58-2.83c.04-.18.13-.32.28-.42.15-.1.31-.13.49-.09.18.04.32.13.42.28.1.15.13.31.09.49l-.53,2.58h2.06l.58-2.83c.04-.18.13-.32.28-.42.15-.1.31-.13.49-.09.18.04.32.13.43.28.1.15.14.31.1.49l-.53,2.58h1.98c.19,0,.35.06.48.19.13.13.19.29.19.48s-.06.33-.19.46c-.13.13-.29.19-.48.19h-2.25l-.57,2.73h2.05c.19,0,.35.06.48.19s.19.28.19.46-.06.34-.19.47c-.13.13-.29.2-.48.2h-2.32l-.67,3.3c-.04.18-.13.32-.29.42s-.32.13-.5.09c-.18-.04-.32-.13-.42-.28-.1-.15-.13-.32-.09-.5l.63-3.03h-2.06l-.67,3.3c-.04.18-.13.32-.28.42-.15.1-.32.13-.5.09ZM3.98,8.22h2.06l.55-2.73h-2.06l-.55,2.73Z"/><path class="cls-2" d="M19.86,13.1c-1.14,0-2.03-.28-2.68-.85-.65-.56-.97-1.47-.97-2.72V1.95c0-.24.08-.44.25-.6.17-.17.37-.25.6-.25s.44.08.61.25c.17.17.25.37.25.6v7.58c0,.7.16,1.19.48,1.47.32.28.81.41,1.47.41.59,0,1.14-.16,1.66-.47.52-.31.94-.82,1.26-1.51.1-.22.27-.37.5-.44.23-.08.45-.06.65.04.22.09.36.26.43.48.07.23.06.45-.04.67-.42.94-1.03,1.66-1.83,2.16s-1.68.75-2.64.75Z"/><path class="cls-2" d="M31.59,13.49c-.23.07-.45.06-.66,0-.21-.07-.37-.21-.48-.42-.09-.22-.1-.44-.03-.67.08-.23.23-.38.46-.47.7-.28,1.25-.58,1.66-.91.4-.33.68-.72.85-1.15-.32.15-.64.23-.95.23-.75,0-1.36-.19-1.83-.58-.47-.38-.71-.95-.71-1.7,0-.5.11-.93.34-1.29.23-.36.54-.63.93-.82.39-.19.84-.28,1.33-.28h.19c.06,0,.12,0,.18.01-.02-.14-.04-.29-.05-.44-.01-.15-.03-.3-.05-.46-.95.04-1.89.09-2.81.16-.92.07-1.78.14-2.57.21-.24.03-.45-.03-.63-.17-.18-.14-.28-.33-.3-.55-.03-.23.03-.43.18-.61.15-.18.33-.28.56-.3.81-.07,1.69-.13,2.65-.18.96-.05,1.93-.1,2.9-.14v-1.39c0-.24.08-.44.25-.6.17-.16.37-.24.6-.24s.44.08.6.24c.16.16.24.36.24.6v1.34c.52-.02,1.03-.03,1.52-.04.49,0,.97-.01,1.42-.01,0-.02-.02-.04-.04-.07-.01-.03-.03-.06-.05-.09-.07-.16-.15-.36-.25-.58-.1-.23-.2-.43-.29-.61-.06-.11-.06-.24-.02-.38.04-.14.14-.25.29-.31.13-.08.27-.09.4-.05s.24.13.33.26c.1.14.22.33.36.56.13.23.23.44.3.63.1.23.08.44-.08.63h.34c.23,0,.42.08.58.25.16.17.24.37.23.6,0,.23-.1.42-.26.58-.17.16-.37.23-.61.22-.59-.03-1.24-.04-1.95-.04-.71,0-1.45.02-2.21.04,0,.3.02.61.04.92.02.31.04.61.07.88.45.55.67,1.29.67,2.21,0,1.19-.31,2.22-.93,3.1-.62.88-1.52,1.51-2.71,1.9ZM32.43,8.62c.28,0,.49-.08.65-.22.16-.14.24-.34.24-.6,0-.08,0-.16-.01-.26,0-.09-.02-.19-.04-.28-.2-.23-.47-.34-.8-.34-.27,0-.49.08-.68.23-.18.15-.28.37-.28.64s.09.49.26.63c.17.15.4.22.66.21ZM39.67,2.2c-.13.09-.28.1-.44.06-.16-.05-.28-.15-.36-.3-.08-.16-.17-.35-.29-.57-.12-.22-.23-.42-.33-.6-.07-.1-.08-.23-.05-.38.03-.15.12-.26.25-.33.13-.08.27-.1.41-.07.14.03.25.1.35.23.11.13.24.31.38.53.14.22.26.43.36.62.08.15.09.3.04.46-.05.15-.15.27-.31.36Z"/><path class="cls-2" d="M42.29,11.38c-.18.15-.39.22-.62.21-.23-.01-.43-.11-.59-.29-.15-.18-.22-.39-.2-.62.02-.23.12-.42.3-.58.17-.14.38-.31.63-.51.25-.2.5-.4.78-.61.27-.21.53-.41.77-.59.24-.18.44-.34.59-.46.19-.14.4-.2.63-.17s.42.14.56.33c.14.18.2.39.16.62-.03.23-.14.42-.33.56-.25.18-.54.4-.87.66-.33.26-.66.52-.98.78-.32.26-.6.49-.83.68ZM44.98,12.41c-.21-.09-.36-.25-.46-.46-.09-.21-.09-.43,0-.65.08-.22.24-.37.46-.47.22-.09.44-.09.65.01.52.23.95.3,1.28.21.33-.09.5-.31.5-.67,0-.44-.08-.83-.24-1.17-.16-.34-.33-.67-.52-.98-.16-.27-.31-.54-.44-.81-.13-.28-.22-.57-.27-.9-.05-.32-.02-.69.08-1.11.06-.23.19-.4.38-.53.2-.12.41-.16.64-.1.23.06.4.19.52.38.12.2.15.42.11.65-.09.41-.06.77.08,1.08.14.31.3.63.49.95.2.33.39.7.58,1.1.18.4.28.89.28,1.48,0,.54-.12.99-.36,1.34-.24.36-.56.62-.96.79s-.85.24-1.33.21c-.48-.03-.98-.16-1.48-.38ZM48.12,4.62c-.4-.28-.82-.53-1.27-.78-.45-.24-.86-.44-1.25-.59-.22-.08-.38-.22-.5-.42-.11-.2-.14-.41-.07-.63.08-.23.22-.4.43-.52.21-.12.42-.14.64-.05.32.12.67.28,1.04.46.37.18.73.37,1.08.58.35.2.66.4.92.59.19.14.3.33.33.56.03.23-.03.44-.17.63-.14.19-.33.3-.56.33s-.44-.02-.63-.16ZM53.46,11.35c-.2.12-.41.16-.63.11-.22-.05-.4-.18-.53-.38-.15-.25-.36-.54-.63-.87-.27-.33-.55-.66-.84-1-.29-.33-.57-.62-.83-.87-.17-.16-.26-.36-.27-.58,0-.23.07-.43.23-.6.16-.17.36-.26.59-.26.23,0,.43.07.6.23.3.28.62.61.95.97.33.36.64.72.92,1.08.29.36.52.69.7.98.13.2.17.41.11.64-.06.23-.18.41-.38.54Z"/><path class="cls-2" d="M63.61,13.37c-.19.13-.4.18-.64.14-.24-.04-.42-.15-.56-.33-.32-.46-.69-.95-1.09-1.45-.4-.5-.8-.98-1.2-1.44-.4-.46-.76-.85-1.08-1.17-.56-.55-.93-1.07-1.12-1.55-.19-.48-.19-.97.01-1.44.2-.48.59-.99,1.18-1.54.2-.18.44-.41.72-.68.28-.28.58-.57.89-.88.31-.31.62-.63.91-.94.29-.31.56-.59.8-.84.16-.17.36-.26.6-.26.24,0,.45.07.62.23.17.15.26.35.26.59,0,.24-.07.45-.24.62-.33.36-.7.74-1.1,1.15-.4.4-.79.79-1.17,1.15-.38.37-.71.67-.98.92-.37.34-.61.63-.73.88-.12.24-.12.48,0,.72.12.24.34.53.68.88.32.33.69.73,1.1,1.2.41.46.83.95,1.25,1.45.42.5.78.98,1.1,1.44.14.18.19.39.15.63-.04.24-.16.43-.35.56Z"/><path class="cls-2" d="M75.74,12.45c-.24.06-.46.02-.67-.1-.21-.12-.34-.3-.4-.53s-.02-.44.1-.65c.12-.2.3-.33.53-.39,1.05-.28,1.83-.72,2.33-1.34.5-.62.75-1.4.75-2.35,0-.6-.13-1.13-.4-1.61-.27-.47-.64-.86-1.13-1.15-.49-.29-1.07-.47-1.76-.54-.17,1.59-.46,2.97-.86,4.13-.4,1.16-.88,2.06-1.42,2.69-.55.63-1.12.95-1.71.95-.5,0-.96-.15-1.38-.44-.42-.29-.75-.72-.99-1.27-.24-.55-.36-1.21-.36-1.98s.15-1.52.45-2.21c.3-.69.72-1.29,1.27-1.81.55-.52,1.2-.93,1.94-1.22.75-.29,1.56-.44,2.46-.44,1.08,0,2.04.21,2.88.62.84.41,1.5.99,1.98,1.72.48.74.73,1.59.73,2.57,0,1.38-.37,2.52-1.1,3.44-.74.92-1.81,1.55-3.22,1.91ZM71.1,9.82c.17,0,.37-.14.59-.43.22-.29.45-.7.68-1.23.23-.53.44-1.16.63-1.89.19-.73.33-1.53.43-2.41-.74.14-1.36.42-1.86.82-.5.4-.88.88-1.14,1.44s-.39,1.14-.4,1.74c0,.65.1,1.13.31,1.47.2.33.46.5.78.5Z"/><path class="cls-2" d="M89.16,12.78c-.24,0-.44-.09-.62-.26-.18-.17-.26-.37-.26-.61s.09-.45.26-.62c.17-.17.38-.25.62-.26.54-.02.9-.1,1.07-.23.18-.14.25-.41.24-.83,0-.3-.03-.69-.05-1.15-.02-.46-.04-.96-.06-1.48-.53.55-1.11,1.11-1.74,1.66-.63.56-1.26,1.09-1.89,1.58-.64.49-1.24.92-1.82,1.28-.21.12-.43.15-.66.09-.23-.07-.41-.2-.53-.41-.12-.21-.15-.43-.09-.66.07-.23.2-.41.41-.53.48-.3,1.04-.69,1.66-1.17.62-.48,1.26-1,1.91-1.56.65-.56,1.26-1.11,1.82-1.66h-4.57c-.24,0-.44-.08-.6-.25-.17-.17-.25-.37-.25-.6s.08-.44.25-.6c.17-.17.37-.25.6-.25h5.35c0-.39-.02-.73-.04-1.02-.01-.29-.03-.52-.04-.68,0-.25.07-.46.24-.63.17-.17.38-.26.61-.27.25,0,.45.07.62.23.17.17.25.37.26.62,0,.18.02.42.03.73,0,.3.02.65.04,1.02h2.18c.24,0,.44.08.6.25.17.17.25.37.25.6s-.08.44-.25.6c-.17.17-.37.25-.6.25h-2.11c.02.49.04.99.06,1.48.02.49.05.95.07,1.38.02.43.04.79.05,1.08.05,1.02-.17,1.76-.64,2.22s-1.28.68-2.41.68Z"/><path class="cls-2" d="M99.72,8.02c-.24,0-.44-.09-.62-.26-.18-.18-.26-.38-.26-.62s.09-.46.26-.63.38-.26.62-.26h8.87c.25,0,.46.09.63.26s.26.38.26.63-.08.44-.26.62c-.17.18-.38.26-.63.26h-8.87Z"/><path class="cls-2" d="M119.94,13.13c-.24.03-.45-.03-.65-.18-.19-.15-.31-.34-.33-.58-.03-.26-.08-.69-.17-1.3-.08-.61-.18-1.3-.28-2.06-.61.07-1.19.14-1.74.21-.55.07-1.03.13-1.43.18-.4.05-.7.09-.88.11-.24.03-.45-.03-.64-.19-.19-.15-.29-.35-.31-.58-.03-.25.03-.46.19-.65.15-.19.35-.29.58-.32.15-.02.43-.05.83-.09.4-.04.87-.1,1.42-.16.55-.07,1.13-.13,1.74-.2l-.23-1.62c-.63.07-1.19.13-1.7.2-.51.07-.86.11-1.05.13-.24.03-.45-.04-.63-.19-.18-.16-.29-.35-.32-.59-.02-.24.05-.45.2-.63.15-.18.35-.29.58-.32.15-.02.48-.05.97-.11.5-.05,1.06-.12,1.7-.19-.11-.74-.19-1.29-.24-1.65-.04-.25.02-.46.17-.65.15-.19.35-.3.58-.33.25-.04.46.02.65.16.19.15.3.34.33.59.02.18.05.42.09.7.04.29.09.62.13.99.56-.07,1.07-.13,1.54-.18.46-.05.82-.09,1.07-.12.24-.03.45.03.63.18.19.15.29.35.31.6.02.24-.04.45-.19.63-.15.18-.34.29-.59.31-.24.02-.58.05-1.04.1-.46.05-.95.1-1.49.17l.23,1.61c.58-.08,1.12-.14,1.64-.2.51-.06.95-.11,1.32-.16.37-.05.62-.08.75-.09.3.12.54.24.7.36.16.11.25.25.27.41.03.24-.03.45-.18.64-.15.19-.35.29-.58.31-.14,0-.39.04-.75.08-.36.04-.79.09-1.3.15-.51.06-1.05.12-1.62.2.1.77.2,1.45.29,2.06.09.6.15,1.02.19,1.26.05.24,0,.45-.16.65-.15.19-.35.31-.6.35Z"/><path class="cls-2" d="M134.54,13.62c-.21.04-.4,0-.58-.12-.18-.12-.29-.28-.33-.49-.06-.34-.13-.76-.23-1.27-.1-.5-.21-1.04-.34-1.62-.13-.58-.26-1.16-.41-1.74-.52.09-1.01.18-1.47.26-.46.08-.82.14-1.08.19-.21.03-.4-.02-.57-.15s-.28-.3-.31-.51c-.03-.21.02-.4.15-.56.13-.17.3-.26.5-.29.24-.04.57-.09,1-.16.43-.07.9-.15,1.41-.23-.16-.65-.31-1.2-.46-1.65-.07-.2-.05-.39.06-.58.1-.19.26-.31.47-.37.21-.06.41-.04.59.06.18.1.31.25.36.46.08.24.15.51.23.83.08.31.16.65.24,1l2.15-.37c1.49-.26,2.36.18,2.6,1.29.13.63,0,1.2-.42,1.71-.41.51-1.12.93-2.11,1.25-.2.07-.39.06-.58-.03-.19-.09-.32-.23-.39-.44-.07-.2-.06-.39.03-.58.09-.19.23-.32.44-.38.44-.16.76-.3.97-.43.21-.12.34-.24.41-.36.06-.12.08-.23.05-.35-.02-.11-.08-.19-.18-.24-.1-.05-.27-.05-.5,0-.29.05-.61.1-.97.17-.37.07-.74.14-1.13.21.14.58.28,1.16.41,1.73.13.57.25,1.11.36,1.6.11.49.2.91.26,1.25.04.21,0,.4-.12.58-.12.18-.28.29-.49.33Z"/><path class="cls-2" d="M145.46,6.33c-.36-.3-.76-.62-1.21-.95-.45-.33-.85-.6-1.21-.8-.21-.13-.34-.32-.4-.55-.06-.23-.02-.45.1-.66.13-.21.32-.34.55-.41.23-.06.45-.03.66.11.26.16.55.36.88.59.33.23.65.46.95.69.31.23.56.42.76.58.19.15.3.35.33.59.03.24-.03.46-.18.65-.15.19-.35.3-.59.33-.24.03-.46-.03-.65-.18ZM144.23,11.94c-.23.09-.45.08-.68-.03-.22-.1-.38-.27-.46-.5-.08-.23-.08-.45.03-.68.1-.22.27-.38.5-.46.76-.27,1.53-.59,2.3-.98.77-.39,1.51-.81,2.22-1.27.71-.46,1.35-.93,1.94-1.42.58-.49,1.06-.96,1.43-1.42.16-.19.36-.3.6-.33.24-.03.45.04.63.2.19.15.3.35.33.59.03.24-.04.46-.2.65-.39.47-.91.98-1.55,1.52-.65.54-1.37,1.06-2.16,1.59-.8.52-1.62,1.01-2.46,1.45-.84.45-1.67.81-2.46,1.1Z"/></g></g></svg>