<?xml version="1.0" encoding="UTF-8"?><svg id="_レイヤー_2" xmlns="http://www.w3.org/2000/svg" viewBox="0 0 230.82 230.82"><defs><style>.cls-1{fill:#222;}.cls-1,.cls-2,.cls-3{stroke-width:0px;}.cls-4{fill:none;stroke:#222;stroke-linecap:round;stroke-linejoin:round;stroke-width:12.3px;}.cls-2{fill:#dd9200;}.cls-3{fill:#fff;}</style></defs><g id="_レイヤー_1-2"><circle class="cls-1" cx="115.41" cy="115.41" r="115.41"/><path class="cls-3" d="M55.19,60.44c.49-3.54,1.71-5.66,6.2-8.95,2.91-2.12,3.78-3.21,3.78-4.95,0-1.88-1.31-3.29-3.1-3.29-2.75,0-2.83,2.86-2.86,4.33h-3.46c.05-1.77.27-7.35,6.42-7.35,4.08,0,6.72,2.83,6.72,6.31,0,3.18-2.26,4.98-4.84,6.77-2.67,1.85-3.35,2.61-4.19,4.27h9.2v2.86h-13.88Z"/><path class="cls-3" d="M79.37,60.82c-6.31,0-6.91-7.4-6.91-9.96,0-3.26.57-10.64,6.91-10.64,2.5,0,4.16,1.22,5.22,2.91,1.36,2.18,1.69,4.82,1.69,7.37s-.41,10.31-6.91,10.31ZM79.32,43.16c-1.82,0-3.13,1.33-3.13,7.35-.03,6.28,1.42,7.37,3.18,7.37,1.99,0,3.16-1.52,3.16-7.37,0-6.28-1.42-7.35-3.21-7.35Z"/><path class="cls-3" d="M89.51,60.44c.49-3.54,1.71-5.66,6.2-8.95,2.91-2.12,3.78-3.21,3.78-4.95,0-1.88-1.31-3.29-3.1-3.29-2.75,0-2.83,2.86-2.86,4.33h-3.46c.05-1.77.27-7.35,6.42-7.35,4.08,0,6.72,2.83,6.72,6.31,0,3.18-2.26,4.98-4.84,6.77-2.67,1.85-3.35,2.61-4.19,4.27h9.2v2.86h-13.88Z"/><path class="cls-3" d="M118.11,56.19v4.24h-3.59v-4.24h-8.27v-2.86l7.84-12.76h4.03v12.98h2.67v2.64h-2.67ZM114.11,44.77l-4.95,8.05-.76.93.76-.19h5.36v-8.19l.14-1.8-.54,1.2Z"/><path class="cls-3" d="M139.84,56.47v5.36h-3.43v-5.36h-11.59v-2.88h3.92v-6.48h7.67v-3.26h-6.26c-1.55,2.48-2.39,3.37-3.05,4.08l-2.94-1.55c2.53-2.56,4.3-5.52,5.28-8.27l3.35,1.25c.14.05.19.16.19.24s-.05.19-.14.24c-.08.03-.52.14-.57.22-.05,0-.54.92-.6,1.03h15.07v2.75h-7.02v3.26h4.73v2.8h-4.73v3.67h8.32v2.88h-8.22ZM136.42,49.91h-4.38v3.67h4.38v-3.67Z"/><path class="cls-3" d="M170.28,42.48v1.58h4.49v2.42h-4.49v3.94h-10.04v-3.94h-2.86c-.05,2.64-.08,5.74-.82,9.47-.57,2.97-1.17,4.19-1.82,5.52l-2.99-.79c.6-1.06,1.01-1.82,1.47-3.51.82-2.91,1.17-6.09,1.17-10.23,0-2.23-.05-4.68-.22-6.88h8.38v-1.74l3.62.24c.05,0,.52.05.52.33,0,.22-.11.27-.27.35-.16.08-.3.22-.3.3v.52h9.66v2.42h-5.5ZM173.43,61.91c-3.46-.49-5.6-1.14-8.46-2.67-2.1,1.03-3.81,1.69-7.07,2.45l-1.61-2.39c2.07-.35,3.89-.82,6.15-1.74-.65-.54-1.58-1.28-2.88-2.8l2.48-.84h-4.24v-2.5h13.6l1.2,1.22c-1.5,2.09-2.72,3.35-4.79,4.87,1.52.6,3.35,1.25,7.18,1.66l-1.55,2.75ZM160.24,42.48h-2.86v1.58h2.86v-1.58ZM162.69,53.91c.74.95,1.42,1.61,2.48,2.23,1.47-1.03,2.12-1.77,2.53-2.23h-5.01ZM167.31,42.48h-4.16v1.58h4.16v-1.58ZM167.31,46.48h-4.16v1.66h4.16v-1.66Z"/><path class="cls-3" d="M98.18,92.69c-1.22-.95-3.56-2.75-5.79-6.23-2.18-3.43-2.86-6.34-3.24-7.94-2.07,6.39-4.98,11.05-9.69,14.31l-2.91-2.07c1.47-.95,4.24-2.78,6.61-6.5,2.48-3.94,2.91-7.51,3.13-9.33l2.39.6c-.08-.82-.11-1.33-.14-2.42h-5.5v-3.24h8.73c-.08.84-.11,1.88-.11,2.75,0,2.88.49,6.58,2.5,10.34,2.48,4.6,5.63,6.42,7.1,7.24l-3.1,2.5Z"/><path class="cls-3" d="M123.67,80.89v-3.26h-16.13v3.4h-2.94v-5.93h13.49c1.31-1.58,2.5-3.24,3.32-5.11l2.69.9c.16.05.46.24.46.46,0,.11-.05.14-.11.16-.08.08-.68.22-.79.33-.57,1.06-1.12,1.93-2.12,3.26h5.12v5.79h-2.99ZM117.3,86.68v4.11c0,1.9-1.58,2.37-3.24,2.37h-1.71l-1.2-2.88c.33.03,1.85.16,2.18.16.46,0,.65-.41.65-.82v-2.94h-9.39v-2.67h9.39v-1.69l1.31.22c.6-.52.82-.82,1.03-1.14h-7.26v-2.53h12.32l.76,1.2c-1.22,1.12-3.37,2.88-4.84,3.94h9.22v2.67h-9.22ZM108.76,74.85c-.65-1.33-1.28-2.34-2.34-3.62l2.5-1.52c.9,1.03,1.69,2.07,2.42,3.51l-2.58,1.63ZM114.94,74.3c-.68-1.39-1.39-2.53-2.53-3.92l2.48-1.47c1.28,1.5,2.04,2.75,2.67,4l-2.61,1.39Z"/><path class="cls-3" d="M146.78,79.04c-.54.52-1.28,1.2-2.72,2.29h8.05v11.37h-2.99v-.57h-9.22v.71h-2.94v-7.7c-1.22.52-1.93.79-3.51,1.39l-1.69-2.64c3.54-1.01,6.69-2.26,10.42-4.84h-10.34v-2.64h9.39v-2.07h-7.1v-2.56h7.1v-2.34l3.48.14c.25,0,.38.11.38.22,0,.19-.16.27-.27.35-.16.08-.38.19-.38.35v1.28h3.1v1.96c1.14-1.58,1.79-2.69,2.5-4.08l3.05,1.8c.08.05.22.16.22.33,0,.22-.22.27-.76.33-.38.05-.46.08-1.33,1.55-.19.3-1.17,1.69-2.04,2.75h5.82v2.64h-8.22ZM149.11,83.66h-9.22v1.77h9.22v-1.77ZM149.11,87.77h-9.22v1.93h9.22v-1.93ZM144.44,74.33v2.07h.84c.95-.98,1.42-1.61,1.77-2.07h-2.61Z"/><path class="cls-4" d="M18.6,183.79l18-23.54c-2.38.79-5.32,1.47-8.04,1.47-5.32,0-12.11-2.15-16.52-6.45-3.96-3.73-7.13-10.19-7.13-18.11,0-6.34,1.81-12.68,6.9-18.22,6.45-7.02,13.81-8.6,21.5-8.6s15.28,1.47,21.5,7.7c4.07,4.07,7.36,9.85,7.36,18.33,0,9.17-4.19,16.52-9.51,23.54l-22.18,29.65-11.88-5.77ZM23.69,125.96c-1.81,1.81-4.07,4.98-4.07,9.96,0,4.53,1.58,7.92,4.19,10.41,2.83,2.72,6,3.62,9.73,3.62,4.07,0,7.13-1.24,9.85-4.07,2.72-2.83,4.07-6,4.07-9.85,0-4.75-1.92-8.04-4.19-10.19-1.92-1.81-5.21-3.73-9.73-3.73-4.75,0-7.92,1.92-9.85,3.85Z"/><path class="cls-4" d="M68.07,149.73c0-25.92,14.15-39.38,29.2-39.38s29.2,13.47,29.2,39.5-14.15,39.38-29.2,39.38-29.2-13.47-29.2-39.5ZM82.78,149.73c0,19.69,8.04,26.82,14.49,26.82s14.49-7.13,14.49-26.82-8.15-26.71-14.49-26.71-14.49,7.13-14.49,26.71Z"/><path class="cls-4" d="M133.48,178.44c2.61,0,4.63,2.02,4.63,4.63s-2.02,4.63-4.63,4.63-4.63-2.02-4.63-4.63,2.02-4.63,4.63-4.63Z"/><path class="cls-4" d="M141.61,167.09c0-13.61,7.43-20.68,15.33-20.68s15.33,7.07,15.33,20.74-7.43,20.68-15.33,20.68-15.33-7.07-15.33-20.74ZM149.33,167.09c0,10.34,4.22,14.08,7.61,14.08s7.61-3.74,7.61-14.08-4.28-14.02-7.61-14.02-7.61,3.74-7.61,14.02Z"/><path class="cls-4" d="M195.1,156.22c0,5.41-3.8,9.39-9.98,9.39s-9.98-3.98-9.98-9.39,3.8-9.39,9.98-9.39,9.98,3.98,9.98,9.39ZM190.11,156.22c0-2.97-2.08-5.11-4.99-5.11s-4.99,2.14-4.99,5.11,2.08,5.11,4.99,5.11,4.99-2.14,4.99-5.11ZM206.56,146l3.15,1.78-23.59,40.82-3.15-1.84,23.59-40.76ZM217.56,178.15c0,5.41-3.8,9.39-9.98,9.39s-9.98-3.98-9.98-9.39,3.8-9.39,9.98-9.39,9.98,3.98,9.98,9.39ZM212.57,178.15c0-2.97-2.08-5.11-4.99-5.11s-4.99,2.14-4.99,5.11,2.08,5.11,4.99,5.11,4.99-2.14,4.99-5.11Z"/><path class="cls-2" d="M18.6,183.79l18-23.54c-2.38.79-5.32,1.47-8.04,1.47-5.32,0-12.11-2.15-16.52-6.45-3.96-3.73-7.13-10.19-7.13-18.11,0-6.34,1.81-12.68,6.9-18.22,6.45-7.02,13.81-8.6,21.5-8.6s15.28,1.47,21.5,7.7c4.07,4.07,7.36,9.85,7.36,18.33,0,9.17-4.19,16.52-9.51,23.54l-22.18,29.65-11.88-5.77ZM23.69,125.96c-1.81,1.81-4.07,4.98-4.07,9.96,0,4.53,1.58,7.92,4.19,10.41,2.83,2.72,6,3.62,9.73,3.62,4.07,0,7.13-1.24,9.85-4.07,2.72-2.83,4.07-6,4.07-9.85,0-4.75-1.92-8.04-4.19-10.19-1.92-1.81-5.21-3.73-9.73-3.73-4.75,0-7.92,1.92-9.85,3.85Z"/><path class="cls-2" d="M68.07,149.73c0-25.92,14.15-39.38,29.2-39.38s29.2,13.47,29.2,39.5-14.15,39.38-29.2,39.38-29.2-13.47-29.2-39.5ZM82.78,149.73c0,19.69,8.04,26.82,14.49,26.82s14.49-7.13,14.49-26.82-8.15-26.71-14.49-26.71-14.49,7.13-14.49,26.71Z"/><path class="cls-2" d="M133.48,178.44c2.61,0,4.63,2.02,4.63,4.63s-2.02,4.63-4.63,4.63-4.63-2.02-4.63-4.63,2.02-4.63,4.63-4.63Z"/><path class="cls-2" d="M141.61,167.09c0-13.61,7.43-20.68,15.33-20.68s15.33,7.07,15.33,20.74-7.43,20.68-15.33,20.68-15.33-7.07-15.33-20.74ZM149.33,167.09c0,10.34,4.22,14.08,7.61,14.08s7.61-3.74,7.61-14.08-4.28-14.02-7.61-14.02-7.61,3.74-7.61,14.02Z"/><path class="cls-2" d="M195.1,156.22c0,5.41-3.8,9.39-9.98,9.39s-9.98-3.98-9.98-9.39,3.8-9.39,9.98-9.39,9.98,3.98,9.98,9.39ZM190.11,156.22c0-2.97-2.08-5.11-4.99-5.11s-4.99,2.14-4.99,5.11,2.08,5.11,4.99,5.11,4.99-2.14,4.99-5.11ZM206.56,146l3.15,1.78-23.59,40.82-3.15-1.84,23.59-40.76ZM217.56,178.15c0,5.41-3.8,9.39-9.98,9.39s-9.98-3.98-9.98-9.39,3.8-9.39,9.98-9.39,9.98,3.98,9.98,9.39ZM212.57,178.15c0-2.97-2.08-5.11-4.99-5.11s-4.99,2.14-4.99,5.11,2.08,5.11,4.99,5.11,4.99-2.14,4.99-5.11Z"/><rect class="cls-3" x="136.44" y="103.75" width="77.02" height="29.49" rx="5.19" ry="5.19"/><path class="cls-1" d="M151.91,117.22c-1.09,1.33-1.82,2.05-2.94,2.94,2.18-.4,3.74-.93,5.7-2.36l1.49,1.45c.09.07.16.18.16.24,0,.11-.13.18-.2.18-.09,0-.18-.02-.27-.07-.09.02-.16.07-.31.16-2.62,1.58-4.47,2.11-6.03,2.42l-.93-1.74c-.98.71-1.62,1.11-2.51,1.58l-1.74-1.65c1.76-.89,2.94-1.74,4.4-3.16h-4.25v-2.11h5.94c.42-.69.56-.96.64-1.25l-4.05.13c-.47.02-.51.02-.58.11-.13.2-.16.24-.25.24-.04,0-.16-.02-.2-.18l-.62-2.47c1.49.07,2.83.09,4.27.09.69-1.33,1-1.96,1.38-2.96l2.91.33c.16.02.27.11.27.2,0,.13-.11.2-.18.22-.07.04-.33.16-.49.22-.16.29-.85,1.69-1,2,.87,0,3.47-.02,4.85-.04-.44-.36-.71-.51-1.47-1l1.49-1.45c2.62,1.67,3.85,2.87,4.83,3.98l-1.58,1.6c-.27-.31-.51-.62-1.38-1.47-1.94.16-4.69.33-5.81.31.51.13.71.18.71.38,0,.24-.33.29-.49.31-.16.29-.22.4-.38.67h9.74v2.11h-4.25c1.02,1.49,2.89,2.29,4.81,2.94l-1.78,1.87c-2.54-1.11-4.27-2.42-6.07-4.81h-3.85ZM145.53,126.03c7.76-.07,11.1-1.49,14.28-3.65l2.14,1.51c.09.07.13.11.13.22,0,.09-.09.16-.18.16-.09.02-.62.09-.73.11-5.16,2.87-7.54,3.65-14.48,3.76l-1.16-2.11ZM147.24,123.27c4.23-.33,6.81-1.2,9.68-3.18l1.74,1.29c.11.07.18.13.18.27s-.18.18-.27.18c-.42.02-.47.02-.56.09-1.96,1.62-5.96,2.98-9.88,3.25l-.89-1.89Z"/><path class="cls-1" d="M174.49,123.83c-.49,3.34-1.31,3.96-4.12,4.07l-.89-2.42c.51.09.85.11,1.16.11.98,0,1.33-.31,1.65-2.34.44-2.8.56-5.63.58-8.48h-2.05c-.16,2.45-.51,8.25-3.65,12.5l-2.71-.89c2.67-3.36,3.58-6.72,4.07-11.61h-2.78v-2.18h2.8c0-1.11-.02-2-.11-3.58l2.4.09c.22,0,.51.04.51.29,0,.16-.07.22-.25.38-.24.2-.27.27-.27.49v2.34h4.34c-.02,2.8-.04,6.96-.69,11.23ZM181.9,127.36v-1.11h-3.18v1.2h-2.23v-15.8h7.63v15.71h-2.22ZM181.9,113.97h-3.18v9.97h3.18v-9.97Z"/><path class="cls-1" d="M188.35,120.64c-.24.11-.33.16-.44.33-.07.13-.13.24-.27.24-.18,0-.27-.27-.29-.33l-.69-1.89c1.91-.56,3.8-1.42,4.58-1.78l.2,1.94c-1,.58-2.05,1.05-3.09,1.49ZM197.97,124.23v3.85h-2.6v-3.85h-8.23v-2.29h8.23v-1.65c-.16.02-1.94.22-2.2.27-.22.02-.36.04-.47.13-.22.27-.27.31-.36.31-.16,0-.2-.2-.22-.33l-.24-2.16c1.38-.02,1.54-.02,2.2-.04.11-.13.22-.22.58-.65-.82-.85-2-1.69-3.05-2.25l1.45-1.71c.18.11.51.33.96.65.38-.49.87-1.25,1.11-1.87h-7.83v-2.09h8.01v-1.8l2.8.11c.18,0,.51.07.51.31,0,.11-.07.18-.13.22-.2.18-.31.27-.31.38v.78h7.9v2.09h-9.05l.33.27c.07.04.29.22.29.38,0,.18-.16.22-.31.24-.24.04-.29.07-.36.18-.73.98-1.4,1.69-1.54,1.82.16.11.58.42.76.56.47-.53,1.13-1.31,1.76-2.07l1.6.93c.07.04.22.16.22.29s-.11.16-.2.18c-.36.09-.4.09-.65.36-.82.89-1.67,1.78-2.54,2.65.58-.02,1.36-.04,2.25-.09-.33-.58-.42-.71-.6-1l1.65-.8c.67.93,1.56,2.47,1.98,3.78l-1.78.78c-.13-.36-.29-.8-.53-1.29-.47.07-.93.11-1.38.18v1.96h8.39v2.29h-8.39ZM189.85,117.11c-.82-.87-1.67-1.6-2.49-2.18l1.65-1.67c.91.67,1.65,1.33,2.49,2.22l-1.65,1.62ZM205.37,114.73c-.11,0-.38,0-.42.04-.42.6-1.02,1.38-2.11,2.34l-1.54-1.22c1.02-.96,1.71-1.76,2.38-2.8l1.69,1.07c.25.16.33.27.33.38,0,.16-.11.2-.33.2ZM205.11,121c-.89-.65-2.31-1.38-3.4-1.8l1.02-1.87c1,.38,2.6,1.2,3.56,1.87l-1.18,1.8Z"/></g></svg>