<?xml version="1.0" encoding="UTF-8"?><svg id="_レイヤー_2" xmlns="http://www.w3.org/2000/svg" width="230.82" height="230.82" viewBox="0 0 230.82 230.82"><g id="_レイヤー_1-2"><circle cx="115.41" cy="115.41" r="115.41" fill="#222"/><path d="M55.29,53.44c.49-3.54,1.71-5.66,6.2-8.95,2.91-2.12,3.78-3.21,3.78-4.95,0-1.88-1.31-3.29-3.1-3.29-2.75,0-2.83,2.86-2.86,4.33h-3.46c.05-1.77.27-7.35,6.42-7.35,4.08,0,6.72,2.83,6.72,6.31,0,3.18-2.26,4.98-4.84,6.77-2.67,1.85-3.35,2.61-4.19,4.27h9.2v2.86h-13.88Z" fill="#fff"/><path d="M79.46,53.82c-6.31,0-6.91-7.4-6.91-9.96,0-3.26.57-10.64,6.91-10.64,2.5,0,4.16,1.22,5.22,2.91,1.36,2.18,1.69,4.82,1.69,7.37s-.41,10.31-6.91,10.31ZM79.41,36.16c-1.82,0-3.13,1.33-3.13,7.35-.03,6.28,1.42,7.37,3.18,7.37,1.99,0,3.16-1.52,3.16-7.37,0-6.28-1.42-7.35-3.21-7.35Z" fill="#fff"/><path d="M89.6,53.44c.49-3.54,1.71-5.66,6.2-8.95,2.91-2.12,3.78-3.21,3.78-4.95,0-1.88-1.31-3.29-3.1-3.29-2.75,0-2.83,2.86-2.86,4.33h-3.46c.05-1.77.27-7.35,6.42-7.35,4.08,0,6.72,2.83,6.72,6.31,0,3.18-2.26,4.98-4.84,6.77-2.67,1.85-3.35,2.61-4.19,4.27h9.2v2.86h-13.88Z" fill="#fff"/><path d="M113.58,53.82c-3.97,0-6.47-2.5-6.75-5.77h3.56c.11,1.33,1.25,2.67,3.1,2.67s3.21-1.47,3.21-3.67c0-2.8-2.01-3.78-3.43-3.78-.44,0-1.88,0-2.56,1.77l-3.35-.3,1.42-11.15h10.99v2.94h-8.54l-.49,3.92-.3,1.41c.46-.54,1.41-1.61,3.7-1.61,2.94,0,6.31,2.2,6.31,6.56,0,3.07-1.88,7.02-6.88,7.02Z" fill="#fff"/><path d="M139.75,49.47v5.36h-3.43v-5.36h-11.59v-2.88h3.92v-6.48h7.67v-3.26h-6.26c-1.55,2.48-2.39,3.37-3.05,4.08l-2.94-1.55c2.53-2.56,4.3-5.52,5.28-8.27l3.35,1.25c.14.05.19.16.19.24s-.05.19-.14.24c-.08.03-.52.14-.57.22-.05,0-.54.92-.6,1.03h15.07v2.75h-7.02v3.26h4.73v2.8h-4.73v3.67h8.33v2.88h-8.22ZM136.32,42.91h-4.38v3.67h4.38v-3.67Z" fill="#fff"/><path d="M170.18,35.48v1.58h4.49v2.42h-4.49v3.94h-10.04v-3.94h-2.86c-.05,2.64-.08,5.74-.82,9.47-.57,2.97-1.17,4.19-1.82,5.52l-2.99-.79c.6-1.06,1.01-1.82,1.47-3.51.82-2.91,1.17-6.09,1.17-10.23,0-2.23-.05-4.68-.22-6.88h8.38v-1.74l3.62.24c.05,0,.52.05.52.33,0,.22-.11.27-.27.35-.16.08-.3.22-.3.3v.52h9.66v2.42h-5.5ZM173.34,54.91c-3.46-.49-5.6-1.14-8.46-2.67-2.1,1.03-3.81,1.69-7.07,2.45l-1.61-2.39c2.07-.35,3.89-.82,6.15-1.74-.65-.54-1.58-1.28-2.88-2.8l2.48-.84h-4.24v-2.5h13.6l1.2,1.22c-1.5,2.09-2.72,3.35-4.79,4.87,1.52.6,3.35,1.25,7.18,1.66l-1.55,2.75ZM160.14,35.48h-2.86v1.58h2.86v-1.58ZM162.59,46.91c.74.95,1.42,1.61,2.48,2.23,1.47-1.03,2.12-1.77,2.53-2.23h-5.01ZM167.22,35.48h-4.16v1.58h4.16v-1.58ZM167.22,39.48h-4.16v1.66h4.16v-1.66Z" fill="#fff"/><path d="M35.63,80.44v5.36h-3.43v-5.36h-11.59v-2.88h3.92v-6.48h7.67v-3.26h-6.26c-1.55,2.48-2.39,3.37-3.05,4.08l-2.94-1.55c2.53-2.56,4.3-5.52,5.28-8.27l3.35,1.25c.14.05.19.16.19.24s-.05.19-.14.24c-.08.03-.52.14-.57.22-.05,0-.54.92-.6,1.03h15.07v2.75h-7.02v3.26h4.73v2.8h-4.73v3.67h8.32v2.88h-8.22ZM32.2,73.89h-4.38v3.67h4.38v-3.67Z" fill="#fff"/><path d="M65.9,85.78l-1.12-3.13c.33.05.9.11,1.85.11.84,0,1.31-.08,1.31-.87v-12.08h-6.5c.73,3.24,2.18,6.09,6.37,8.11l-2.39,2.2c-2.45-1.47-3.92-2.91-5.44-5.93-1.39,2.67-2.94,4.3-5.31,6.15l-2.42-2.2c3.73-2.26,5.22-4.79,5.88-8.33h-5.99v15.67h-3.07v-18.64h9.28c0-2.88-.03-3.4-.08-4.38l3.65.14c.16,0,.33.11.33.27,0,.22-.22.33-.33.41-.33.19-.41.38-.41.52-.03.16-.03,2.56-.03,3.05h9.44v16.13c0,2.42-1.12,2.8-5.01,2.8Z" fill="#fff"/><path d="M76.62,68.45v-2.31h8.57v2.31h-8.57ZM82.52,85.26v-1.06h-2.75v1.55h-2.72v-8.84h8.05v8.35h-2.58ZM77.52,65.15v-2.34h6.77v2.34h-6.77ZM77.65,72.15v-2.26h6.75v2.26h-6.75ZM77.65,75.65v-2.29h6.75v2.29h-6.75ZM82.39,79.33h-2.61v2.48h2.61v-2.48ZM92.73,82.4c-2.12.76-2.53.93-5.17,1.8-.54.19-.6.19-.68.38-.16.3-.22.44-.38.44-.25,0-.35-.38-.46-.68l-.84-2.61c.98-.19,1.01-.19,1.85-.44v-5.9h-1.63v-2.78h5.93v2.78h-1.44v5.14c.73-.19,1.66-.46,2.83-.9v2.78ZM99.77,83.68c-.35,1.06-.87,1.69-1.8,1.69-2.45,0-4.16-5.06-4.6-6.5-1.12-3.56-1.28-6.07-1.44-9.01h-6.04v-2.75h5.9c-.03-1.61-.05-2.88-.03-5.2l2.67.03c.79,0,.98.08.98.33,0,.16-.11.3-.33.49-.3.22-.38.33-.38.49v3.86h5.36v2.75h-5.28c.03,1.88.05,4.27,1.25,8.08.22.73.87,2.69,1.44,2.69.49,0,.54-1.22.6-2.45l2.45,1.33c-.11.82-.33,2.86-.76,4.16ZM97.49,66.3c-.84-1.31-1.33-1.88-2.31-2.88l2.18-1.25c.57.63,1.22,1.36,2.37,2.86l-2.23,1.28Z" fill="#fff"/><path d="M107.24,77.97c0,.19-.16.27-.35.35,0,.27.03,1.25.03,2.07-.03,1.9-.05,2.48-.14,2.99l-2.01-.11c.38-1.33.46-4.33.35-5.69l1.5.08c.35.03.63.08.63.3ZM127.42,69.83c-.44-.08-.79-.24-1.14-.41v1.39h-2.67c0,.3,0,.71-.03,1.09h4.71v6.8h-4.38c.9,1.85,3.05,3.48,5.17,4.52l-2.31,2.45c-2.39-1.8-3.32-2.86-4.95-5.63-1.44,2.61-2.58,3.89-5.47,5.88l-2.37-2.34c2.64-.95,4.33-2.53,5.58-4.87h-3.84v-6.8h4.62c.03-.22.03-.87.03-1.09h-2.94v-1.33c-.41.27-.71.49-1.22.76l-1.5-1.61v.3h-2.45v1.44h2.39v2.29h-2.39v1.58h2.97c0,1.55,0,4.19-.52,6.61-.93,4.3-2.42,4.49-5.31,4.54l-.98-3.05c.3.05,1.03.19,1.61.19,1.55,0,1.96-1.44,2.18-2.72l-1.01.16c-.05-.9-.22-1.85-.46-2.69l1.06-.3c.35.79.49,1.47.54,1.85.11-.98.14-1.31.16-2.31h-4.27v.57h-2.64v-14.53h10.28v2.72h-3.62v1.39h2.45v.9c2.8-1.33,4.41-3.51,5.44-5.31l2.5.49c.33.05.54.14.54.33,0,.11-.08.22-.14.24,1.5,1.9,3.92,3.26,6.23,3.97l-1.88,2.53ZM108.92,81.8l-1.41.41c.05-.73-.05-2.91-.3-4.65l1.36-.05c.33,1.25.44,2.75.44,3.48,0,.27-.03.6-.08.82ZM109.79,65.29h-1.55v1.39h1.55v-1.39ZM109.79,68.93h-1.55v1.44h1.55v-1.44ZM109.79,72.66h-1.55v1.58h1.55v-1.58ZM109.52,80.88v-.3c0-.16-.03-1.58-.46-3.13l1.2-.16c.41.92.52,2.48.43,3.18l-1.17.41ZM118.45,74.24v2.12h1.74c.05-.49.08-1.09.14-2.12h-1.88ZM121.6,65.53c-.87,1.09-1.52,1.82-2.72,2.83h5.71c-1.39-.84-2.37-1.96-2.99-2.83ZM125.49,74.24h-1.96c-.05,1.03-.14,1.8-.16,2.12h2.12v-2.12Z" fill="#fff"/><path d="M154.88,85.69c-1.22-.95-3.56-2.75-5.79-6.23-2.18-3.43-2.86-6.34-3.24-7.94-2.07,6.39-4.98,11.05-9.69,14.31l-2.91-2.07c1.47-.95,4.24-2.78,6.61-6.5,2.48-3.94,2.91-7.51,3.13-9.33l2.39.6c-.08-.82-.11-1.33-.14-2.42h-5.5v-3.24h8.73c-.08.84-.11,1.88-.11,2.75,0,2.88.49,6.58,2.5,10.34,2.48,4.6,5.63,6.42,7.1,7.24l-3.1,2.5Z" fill="#fff"/><path d="M180.37,73.89v-3.26h-16.13v3.4h-2.94v-5.93h13.49c1.31-1.58,2.5-3.24,3.32-5.11l2.69.9c.16.05.46.24.46.46,0,.11-.05.14-.11.16-.08.08-.68.22-.79.33-.57,1.06-1.12,1.93-2.12,3.26h5.12v5.79h-2.99ZM174.01,79.68v4.11c0,1.9-1.58,2.37-3.24,2.37h-1.71l-1.2-2.88c.33.03,1.85.16,2.18.16.46,0,.65-.41.65-.82v-2.94h-9.39v-2.67h9.39v-1.69l1.31.22c.6-.52.82-.82,1.03-1.14h-7.26v-2.53h12.32l.76,1.2c-1.22,1.12-3.37,2.88-4.84,3.94h9.22v2.67h-9.22ZM165.46,67.85c-.65-1.33-1.28-2.34-2.34-3.62l2.5-1.52c.9,1.03,1.69,2.07,2.42,3.51l-2.58,1.63ZM171.64,67.3c-.68-1.39-1.39-2.53-2.53-3.92l2.48-1.47c1.28,1.5,2.04,2.75,2.67,4l-2.61,1.39Z" fill="#fff"/><path d="M203.48,72.04c-.54.52-1.28,1.2-2.72,2.29h8.05v11.37h-2.99v-.57h-9.22v.71h-2.94v-7.7c-1.22.52-1.93.79-3.51,1.39l-1.69-2.64c3.54-1.01,6.69-2.26,10.42-4.84h-10.34v-2.64h9.39v-2.07h-7.1v-2.56h7.1v-2.34l3.48.14c.25,0,.38.11.38.22,0,.19-.16.27-.27.35-.16.08-.38.19-.38.35v1.28h3.1v1.96c1.14-1.58,1.79-2.69,2.5-4.08l3.05,1.8c.08.05.22.16.22.33,0,.22-.22.27-.76.33-.38.05-.46.08-1.33,1.55-.19.3-1.17,1.69-2.04,2.75h5.82v2.64h-8.22ZM205.82,76.66h-9.22v1.77h9.22v-1.77ZM205.82,80.77h-9.22v1.93h9.22v-1.93ZM201.14,67.33v2.07h.84c.95-.98,1.42-1.61,1.77-2.07h-2.61Z" fill="#fff"/><path d="M69.31,192.22c0,13.26-10.61,23.75-27.97,23.75s-27.97-10.49-27.97-23.75c0-9.28,5.42-17.12,14.35-20.01-6.15-3.01-11.57-8.92-11.57-17.84,0-11.69,8.44-22.42,25.2-22.42s25.2,10.73,25.2,22.42c0,8.92-5.42,14.83-11.57,17.84,8.92,2.89,14.35,10.73,14.35,20.01ZM53.63,191.14c0-7.35-5.3-12.54-12.3-12.54s-12.3,5.18-12.3,12.54,5.3,12.54,12.3,12.54,12.3-5.18,12.3-12.54ZM52.55,154.49c0-6.63-4.58-11.21-11.21-11.21s-11.21,4.58-11.21,11.21,4.58,11.21,11.21,11.21,11.21-4.58,11.21-11.21Z" fill="none" stroke="#222" stroke-linecap="round" stroke-linejoin="round" stroke-width="12.3"/><path d="M113.96,147.25h-37.37v-13.5h61.97l-48.34,82.82-13.26-5.91,37.01-63.41Z" fill="none" stroke="#222" stroke-linecap="round" stroke-linejoin="round" stroke-width="12.3"/><path d="M127.88,204.49c2.79,0,4.94,2.15,4.94,4.94s-2.15,4.94-4.94,4.94-4.94-2.15-4.94-4.94,2.15-4.94,4.94-4.94Z" fill="none" stroke="#222" stroke-linecap="round" stroke-linejoin="round" stroke-width="12.3"/><path d="M166.92,178.41h-14.05l-1.52,6.65c.82-.13,1.77-.25,2.85-.25,4.49,0,8.48,1.77,10.89,4.24,3.35,3.42,3.73,7.6,3.73,10.13,0,4.56-1.39,8.1-4.3,11.01-3.35,3.35-7.09,4.3-11.58,4.3-2.28,0-5.89-.19-9.11-1.77-1.71-.82-3.61-2.15-5.13-3.61l2.72-7.09c1.14,1.52,2.47,2.78,4.37,3.8,2.09,1.14,4.11,1.58,6.14,1.58,3.48,0,5.44-1.46,6.46-2.53,1.2-1.27,2.21-3.42,2.21-6.14,0-2.41-.7-4.24-2.47-5.82-2.15-1.9-4.56-2.15-6.58-2.15-2.97,0-5.95.82-9.11,2.72l5-22.15h19.49v7.09Z" fill="none" stroke="#222" stroke-linecap="round" stroke-linejoin="round" stroke-width="12.3"/><path d="M193.79,180.82c0,5.76-4.05,10-10.63,10s-10.63-4.24-10.63-10,4.05-10,10.63-10,10.63,4.24,10.63,10ZM188.47,180.82c0-3.16-2.21-5.44-5.32-5.44s-5.32,2.28-5.32,5.44,2.21,5.44,5.32,5.44,5.32-2.28,5.32-5.44ZM206.01,169.93l3.35,1.9-25.13,43.48-3.35-1.96,25.13-43.42ZM217.72,204.17c0,5.76-4.05,10-10.63,10s-10.63-4.24-10.63-10,4.05-10,10.63-10,10.63,4.24,10.63,10ZM212.4,204.17c0-3.16-2.21-5.44-5.32-5.44s-5.32,2.28-5.32,5.44,2.21,5.44,5.32,5.44,5.32-2.28,5.32-5.44Z" fill="none" stroke="#222" stroke-linecap="round" stroke-linejoin="round" stroke-width="12.3"/><path d="M69.31,192.22c0,13.26-10.61,23.75-27.97,23.75s-27.97-10.49-27.97-23.75c0-9.28,5.42-17.12,14.35-20.01-6.15-3.01-11.57-8.92-11.57-17.84,0-11.69,8.44-22.42,25.2-22.42s25.2,10.73,25.2,22.42c0,8.92-5.42,14.83-11.57,17.84,8.92,2.89,14.35,10.73,14.35,20.01ZM53.63,191.14c0-7.35-5.3-12.54-12.3-12.54s-12.3,5.18-12.3,12.54,5.3,12.54,12.3,12.54,12.3-5.18,12.3-12.54ZM52.55,154.49c0-6.63-4.58-11.21-11.21-11.21s-11.21,4.58-11.21,11.21,4.58,11.21,11.21,11.21,11.21-4.58,11.21-11.21Z" fill="#dd9200"/><path d="M113.96,147.25h-37.37v-13.5h61.97l-48.34,82.82-13.26-5.91,37.01-63.41Z" fill="#dd9200"/><path d="M127.88,204.49c2.79,0,4.94,2.15,4.94,4.94s-2.15,4.94-4.94,4.94-4.94-2.15-4.94-4.94,2.15-4.94,4.94-4.94Z" fill="#dd9200"/><path d="M166.92,178.41h-14.05l-1.52,6.65c.82-.13,1.77-.25,2.85-.25,4.49,0,8.48,1.77,10.89,4.24,3.35,3.42,3.73,7.6,3.73,10.13,0,4.56-1.39,8.1-4.3,11.01-3.35,3.35-7.09,4.3-11.58,4.3-2.28,0-5.89-.19-9.11-1.77-1.71-.82-3.61-2.15-5.13-3.61l2.72-7.09c1.14,1.52,2.47,2.78,4.37,3.8,2.09,1.14,4.11,1.58,6.14,1.58,3.48,0,5.44-1.46,6.46-2.53,1.2-1.27,2.21-3.42,2.21-6.14,0-2.41-.7-4.24-2.47-5.82-2.15-1.9-4.56-2.15-6.58-2.15-2.97,0-5.95.82-9.11,2.72l5-22.15h19.49v7.09Z" fill="#dd9200"/><path d="M193.79,180.82c0,5.76-4.05,10-10.63,10s-10.63-4.24-10.63-10,4.05-10,10.63-10,10.63,4.24,10.63,10ZM188.47,180.82c0-3.16-2.21-5.44-5.32-5.44s-5.32,2.28-5.32,5.44,2.21,5.44,5.32,5.44,5.32-2.28,5.32-5.44ZM206.01,169.93l3.35,1.9-25.13,43.48-3.35-1.96,25.13-43.42ZM217.72,204.17c0,5.76-4.05,10-10.63,10s-10.63-4.24-10.63-10,4.05-10,10.63-10,10.63,4.24,10.63,10ZM212.4,204.17c0-3.16-2.21-5.44-5.32-5.44s-5.32,2.28-5.32,5.44,2.21,5.44,5.32,5.44,5.32-2.28,5.32-5.44Z" fill="#dd9200"/><rect x="13.75" y="93.75" width="204.14" height="29.49" rx="5" ry="5" fill="#fff"/><path d="M26.7,117.23c-3.65.02-5.65-2.27-5.65-5.01,0-2.49,1.67-3.58,2.58-4.16-1.96-.87-2.11-2.58-2.11-3.34,0-2.25,1.82-4.34,5.18-4.34s5.16,2.09,5.16,4.34c0,.8-.16,2.47-2.11,3.34.93.58,2.6,1.67,2.6,4.16,0,2.74-2.02,5.01-5.65,5.01ZM26.7,109.44c-2.02,0-2.65,1.62-2.65,2.69,0,1.27.82,2.69,2.65,2.69s2.65-1.42,2.65-2.69c0-1.07-.65-2.69-2.65-2.69ZM26.7,102.9c-1.49,0-2.25,1.09-2.25,2.2,0,1.05.62,2.18,2.25,2.18s2.22-1.13,2.22-2.18c0-1.11-.73-2.2-2.22-2.2Z" fill="#222"/><path d="M45.35,118.05l-1.09-2.91c.38.07.89.13,1.76.13.65,0,.82-.18.82-.67v-3.67h-6.7c-.73,3.16-1.71,4.89-4.27,6.85l-2.2-1.82c1.58-1.27,4.14-3.29,4.14-8.25v-8.3h11.61v16.4c0,2.09-1.8,2.25-4.07,2.25ZM46.84,106.28h-6.32c0,1.25-.04,1.82-.09,2.31h6.41v-2.31ZM46.84,101.75h-6.32v2.31h6.32v-2.31Z" fill="#222"/><path d="M67.59,116.38c-1.45-1.02-2.42-1.56-4.07-2.2-.09,2.27-.62,3.16-3.47,3.16-3.07,0-4.98-1.09-4.98-2.89,0-.65.22-3.23,5.23-3.05l.62.02-.04-2.14c-.4.02-1.62.07-2.27.07-2.05,0-3.07-.73-3.07-1.6,0-1.09,1.51-2.14,2.38-2.76l1.27,1.09c-.4.29-.73.53-.73.82,0,.31.47.31.84.31.73,0,1.02,0,1.54-.04l-.04-2.78c-2.56.11-3.83.2-5.74.42l-.04-2.4c2.54,0,3.74-.04,5.72-.09l-.07-2.96,2.71.27c.42.04.56.11.56.27,0,.09-.04.11-.29.31-.09.07-.25.2-.29.4,0,.02-.02.44-.04,1.6,2.85-.13,3.6-.18,5.7-.33l-.09,2.36c-2.47,0-4.54.04-5.65.07v2.63c1.94-.24,2.76-.38,4.81-.76v2.42c-.96.16-2.14.36-4.76.56.04,1.11.04,1.33.11,2.65,1.85.51,3.31,1.05,5.63,2.51l-1.45,2.07ZM59.89,113.47c-1.45,0-2.16.38-2.16.96,0,.76,1.42.76,1.69.76,1.45,0,1.54-.4,1.51-1.65-.24-.04-.53-.07-1.05-.07Z" fill="#222"/><path d="M82.98,105.48c-1.65,1.65-2.71,3.65-2.71,5.34,0,1.54.98,2.45,1.6,2.89,1.45,1.02,3,1.09,3.92,1.13l-.87,2.71c-1.18-.2-3.67-.67-5.47-2.47-1.07-1.05-1.65-2.49-1.65-4s.56-2.98,1.51-4.43c1.05-1.62,2.16-2.67,2.94-3.38-2.98.24-6.25.51-8.48.82l-.38-2.49c4.81.04,11.7-.49,15.91-1.78v2.58c-1.05.07-3.49.22-6.32,3.07ZM87.63,109.29c-.49-.6-.96-1.05-1.82-1.71l.91-1.07c.73.56,1.29,1.02,1.85,1.71l-.93,1.07ZM89.43,107.26c-.58-.67-1.11-1.16-1.85-1.69l.93-1.07c.93.69,1.38,1.16,1.85,1.69l-.93,1.07Z" fill="#222"/><path d="M109.73,113.16c-1.67,2.47-3.98,3.43-5.18,3.92l-1.65-2.29c1-.29,2.65-.76,4-2.38,1.36-1.6,1.6-3.45,1.6-4.43,0-1.22-.36-2.71-1.6-3.89-1.4-1.33-2.96-1.42-3.78-1.49-.71,5.29-2.03,8.41-2.76,9.9-.67,1.38-1.69,3.25-2.85,3.25-.8,0-4.45-2-4.45-5.98,0-4.94,4.07-9.43,9.81-9.43,4.63,0,8.28,3.14,8.28,8.1,0,1.96-.6,3.52-1.42,4.74ZM97.76,104.59c-1.58,1.51-2.22,3.58-2.22,4.94,0,1.8,1.02,2.74,1.42,2.74,1.16,0,3.07-5.81,3.52-9.28-.65.22-1.65.56-2.71,1.6Z" fill="#222"/><path d="M121.63,117.45c-4.81,0-8.12-3.43-8.12-8.65s3.34-8.65,8.12-8.65,8.14,3.4,8.14,8.65-3.34,8.65-8.14,8.65ZM121.63,102.86c-2.78,0-4.96,2.09-4.96,5.94s2.16,5.96,4.96,5.96,4.98-2.27,4.98-5.96-2.07-5.94-4.98-5.94Z" fill="#222"/><path d="M139.36,117.45c-5.38,0-7.76-4.05-7.76-8.5s2.2-8.81,7.99-8.81c4.63,0,6.63,3.07,6.9,5.65h-3.18c-.62-3-3.2-3-3.65-3-2.54,0-4.87,2.05-4.87,6.12,0,3.8,2.05,5.92,4.54,5.92,1.07,0,2.14-.4,2.96-1.2.73-.71.89-1.27,1.02-2.18h3.18c-.29,2.71-2.36,6.01-7.12,6.01Z" fill="#222"/><path d="M156.17,107.22c-1.09,1.33-1.82,2.05-2.94,2.94,2.18-.4,3.74-.93,5.7-2.36l1.49,1.45c.09.07.16.18.16.24,0,.11-.13.18-.2.18-.09,0-.18-.02-.27-.07-.09.02-.16.07-.31.16-2.62,1.58-4.47,2.11-6.03,2.42l-.93-1.74c-.98.71-1.62,1.11-2.51,1.58l-1.74-1.65c1.76-.89,2.94-1.74,4.4-3.16h-4.25v-2.11h5.94c.42-.69.56-.96.64-1.25l-4.05.13c-.47.02-.51.02-.58.11-.13.2-.16.24-.25.24-.04,0-.16-.02-.2-.18l-.62-2.47c1.49.07,2.83.09,4.27.09.69-1.33,1-1.96,1.38-2.96l2.91.33c.16.02.27.11.27.2,0,.13-.11.2-.18.22-.07.04-.33.16-.49.22-.16.29-.85,1.69-1,2,.87,0,3.47-.02,4.85-.04-.44-.36-.71-.51-1.47-1l1.49-1.45c2.62,1.67,3.85,2.87,4.83,3.98l-1.58,1.6c-.27-.31-.51-.62-1.38-1.47-1.94.16-4.69.33-5.81.31.51.13.71.18.71.38,0,.24-.33.29-.49.31-.16.29-.22.4-.38.67h9.74v2.11h-4.25c1.02,1.49,2.89,2.29,4.81,2.94l-1.78,1.87c-2.54-1.11-4.27-2.42-6.07-4.81h-3.85ZM149.78,116.03c7.76-.07,11.1-1.49,14.28-3.65l2.14,1.51c.09.07.13.11.13.22,0,.09-.09.16-.18.16-.09.02-.62.09-.73.11-5.16,2.87-7.54,3.65-14.48,3.76l-1.16-2.11ZM151.5,113.27c4.23-.33,6.81-1.2,9.68-3.18l1.74,1.29c.11.07.18.13.18.27s-.18.18-.27.18c-.42.02-.47.02-.56.09-1.96,1.62-5.96,2.98-9.88,3.25l-.89-1.89Z" fill="#222"/><path d="M178.74,113.83c-.49,3.34-1.31,3.96-4.12,4.07l-.89-2.42c.51.09.85.11,1.16.11.98,0,1.33-.31,1.65-2.34.44-2.8.56-5.63.58-8.48h-2.05c-.16,2.45-.51,8.25-3.65,12.5l-2.71-.89c2.67-3.36,3.58-6.72,4.07-11.61h-2.78v-2.18h2.8c0-1.11-.02-2-.11-3.58l2.4.09c.22,0,.51.04.51.29,0,.16-.07.22-.25.38-.24.2-.27.27-.27.49v2.34h4.34c-.02,2.8-.04,6.96-.69,11.23ZM186.15,117.36v-1.11h-3.18v1.2h-2.23v-15.8h7.63v15.71h-2.22ZM186.15,103.97h-3.18v9.97h3.18v-9.97Z" fill="#222"/><path d="M192.61,110.64c-.24.11-.33.16-.44.33-.07.13-.13.24-.27.24-.18,0-.27-.27-.29-.33l-.69-1.89c1.91-.56,3.8-1.42,4.58-1.78l.2,1.94c-1,.58-2.05,1.05-3.09,1.49ZM202.22,114.23v3.85h-2.6v-3.85h-8.23v-2.29h8.23v-1.65c-.16.02-1.94.22-2.2.27-.22.02-.36.04-.47.13-.22.27-.27.31-.36.31-.16,0-.2-.2-.22-.33l-.24-2.16c1.38-.02,1.54-.02,2.2-.04.11-.13.22-.22.58-.65-.82-.85-2-1.69-3.05-2.25l1.45-1.71c.18.11.51.33.96.65.38-.49.87-1.25,1.11-1.87h-7.83v-2.09h8.01v-1.8l2.8.11c.18,0,.51.07.51.31,0,.11-.07.18-.13.22-.2.18-.31.27-.31.38v.78h7.9v2.09h-9.05l.33.27c.07.04.29.22.29.38,0,.18-.16.22-.31.24-.24.04-.29.07-.36.18-.73.98-1.4,1.69-1.54,1.82.16.11.58.42.76.56.47-.53,1.13-1.31,1.76-2.07l1.6.93c.07.04.22.16.22.29s-.11.16-.2.18c-.36.09-.4.09-.65.36-.82.89-1.67,1.78-2.54,2.65.58-.02,1.36-.04,2.25-.09-.33-.58-.42-.71-.6-1l1.65-.8c.67.93,1.56,2.47,1.98,3.78l-1.78.78c-.13-.36-.29-.8-.53-1.29-.47.07-.93.11-1.38.18v1.96h8.39v2.29h-8.39ZM194.1,107.11c-.82-.87-1.67-1.6-2.49-2.18l1.65-1.67c.91.67,1.65,1.33,2.49,2.22l-1.65,1.62ZM209.63,104.73c-.11,0-.38,0-.42.04-.42.6-1.02,1.38-2.11,2.34l-1.54-1.22c1.02-.96,1.71-1.76,2.38-2.8l1.69,1.07c.25.16.33.27.33.38,0,.16-.11.2-.33.2ZM209.36,111c-.89-.65-2.31-1.38-3.4-1.8l1.02-1.87c1,.38,2.6,1.2,3.56,1.87l-1.18,1.8Z" fill="#222"/></g></svg>