<?xml version="1.0" encoding="UTF-8"?><svg id="_レイヤー_2" xmlns="http://www.w3.org/2000/svg" viewBox="0 0 16 20"><defs><style>.cls-1{fill:#fff;stroke-width:0px;}</style></defs><g id="_レイヤー_1-2"><path class="cls-1" d="M8,0h.12c.46.06.82.42.88.88v.12s0,4,0,4v.15c.08.98.86,1.77,1.84,1.84h.16s4,0,4,0h.12c.46.06.82.42.88.88v.12s0,9,0,9c0,1.59-1.24,2.9-2.82,2.99h-.18s-10,0-10,0c-1.59,0-2.9-1.24-2.99-2.82v-.18S0,3,0,3C0,1.41,1.24.1,2.82,0h.18S8,0,8,0ZM11,14h-6c-.55,0-1,.45-1,1s.45,1,1,1h6c.55,0,1-.45,1-1s-.45-1-1-1M11,10h-6c-.55,0-1,.45-1,1s.45,1,1,1h6c.55,0,1-.45,1-1s-.45-1-1-1M6,6h-1c-.55,0-1,.45-1,1s.45,1,1,1h1c.55,0,1-.45,1-1s-.45-1-1-1M15,5h-4V1s4,4,4,4Z"/></g></svg>