<?xml version="1.0" encoding="UTF-8"?><svg id="_レイヤー_2" xmlns="http://www.w3.org/2000/svg" viewBox="0 0 19 19"><defs><style>.cls-1{fill:#fff;stroke-width:0px;}</style></defs><g id="_レイヤー_1-2"><path class="cls-1" d="M14.83,0c.73,0,1.43.26,1.98.74l.15.14,1.17,1.17c1.12,1.12,1.18,2.91.14,4.1l-.14.14-1.71,1.71,2.29,2.29c.36.36.39.92.08,1.32l-.08.09-4,4c-.39.39-1.02.39-1.41,0-.35-.36-.39-.92-.08-1.32l.08-.09,3.29-3.29-1.59-1.59-7.46,7.46c-.66.66-1.54,1.06-2.47,1.11h-.23c-.67,0-1.33-.17-1.9-.5l-1.22,1.21c-.39.39-1.02.39-1.41,0-.35-.36-.39-.92-.08-1.32l.08-.09,1.21-1.22c-.82-1.42-.63-3.21.45-4.44l.16-.17L12.71.88C13.22.36,13.9.05,14.63,0,14.63,0,14.83,0,14.83,0ZM14.83,2c-.22,0-.43.07-.61.21l-.1.09-1.71,1.71,2.59,2.59,1.71-1.71c.16-.16.26-.36.28-.58v-.13c0-.22-.06-.43-.2-.61l-.09-.1-1.17-1.17c-.19-.19-.44-.29-.71-.29Z"/></g></svg>