<?xml version="1.0" encoding="UTF-8"?><svg id="_レイヤー_2" xmlns="http://www.w3.org/2000/svg" xmlns:xlink="http://www.w3.org/1999/xlink" viewBox="0 0 320.21 68.03"><defs><style>.cls-1{fill:#000;}.cls-1,.cls-2,.cls-3,.cls-4,.cls-5{stroke-width:0px;}.cls-2{fill:#5b86c4;}.cls-3{fill:#76b0e0;}.cls-4{fill:#fff;}.cls-5{fill:url(#_名称未設定グラデーション_7);}</style><linearGradient id="_名称未設定グラデーション_7" x1="111.32" y1="56.17" x2="320.21" y2="56.17" gradientUnits="userSpaceOnUse"><stop offset="0" stop-color="#76b0e0"/><stop offset="1" stop-color="#5b86c4"/></linearGradient></defs><g id="_レイヤー_1-2"><path class="cls-2" d="M29.01,5.14c.8,3.01-.99,6.1-3.99,6.91-3.01.81-6.1-.98-6.91-3.99-.8-3.02.98-6.11,3.99-6.91,3.01-.81,6.1.97,6.91,3.99"/><path class="cls-2" d="M54.38,43.41c-1.12.28-2.26.52-3.4.72-1.34,2.99-2.42,6.07-3.16,9.2-2.18-2.68-4.22-5.48-6.08-8.37-3.61,0-7.23-.37-10.78-1.13,4.54,8.22,10.24,15.8,16.95,22.51,1.69,1.7,4.44,1.7,6.14,0,.6-.59.99-1.33,1.16-2.1l.04-.13h0s.08-.72.08-.72v-.14c-.02-5.68,1.08-11.08,3.07-16.07-3,3.73-7.04,9.56-7.04,9.56-.15-4.45,1-9,3.04-13.34M102.54,15.14c-.57-2.11-2.26-3.62-4.26-4.05-15.2-3.89-36.54,11.26-46.35,31.02,1.09-.05,2.19-.15,3.24-.3,7.95-15.14,26.41-27.22,37.93-22.74,0,0-5.27,2.79-9.86,6.94l.33-.22c4.46-1.83,8.34-3.22,13.69-3.55h0c.38,0,.81-.05,1.29-.18,3.01-.81,4.8-3.9,3.99-6.91M29.78,17.35c-.57-2.33-2.92-3.75-5.25-3.17-2.33.57-3.75,2.93-3.17,5.26,1.15,4.64,2.63,9.17,4.42,13.58,2.29,1.89,6.97,5.3,13.3,7.57-4.13-7.26-7.27-15.08-9.29-23.23M39.1,40.63h0s-.04-.01-.04-.01h.04"/><path class="cls-3" d="M11.1,15.15c.8,3.01-.98,6.09-3.99,6.9-3.01.81-6.1-.98-6.91-3.99-.8-3.01.98-6.1,4-6.91,3.01-.81,6.1.98,6.91,4"/><path class="cls-3" d="M65.85,39.04h.02s.02-.02.02-.02l-.04.02M25.29,49.57c-2.25-3.12-4.29-6.37-6.11-9.73,2.2,1.06,4.47,1.95,6.76,2.67-.37,2.32-.59,4.68-.65,7.06M39.15,40.64c-6.55-1.83-13.54-5.45-21.14-11.41-1.88-1.23-3.71-2.61-5.44-4.16l-.39-.32c-1.02-.79-2.38-1.13-3.72-.8-2.33.58-3.75,2.93-3.17,5.26.21.85.43,1.7.67,2.55l.19-.07-.16.15c4.9,12.81,12.41,24.66,22.22,34.5,1.12,1.12,2.7,1.5,4.13,1.13h.04c.72-.2,1.41-.57,1.97-1.13,1.15-1.15,1.52-2.79,1.11-4.26h0s-.01-.06-.01-.06c-1.16-4.36-1.61-8.75-1.43-13.04-1.07-1.69-2.08-3.4-3.05-5.15,11.76,2.49,24.13.86,34.91-4.79-8.34,3.16-17.05,4.31-26.7,1.6M64.5,0l-.29.06c-14.19,3.8-25.45,13.1-32.16,24.99,1.09,3.15,2.34,6.24,3.76,9.26,3.91-17.78,15-29.96,28.68-34.3"/><path class="cls-1" d="M142.34,20.64v6.16h-3.55v-1.21h-2.48v5.36c0,2.11-3.42,2.18-5.16,2.18l-1.34-3.78c.74.07.97.1,1.51.1,1.04,0,1.31-.13,1.31-.8v-3.05h-3.65v-3.22h3.65v-1.74h-4.89v-3.22h4.89v-1.77h-2.98v-1.37l-2.68-1.98v.57h-3.48v1.24h4.59v2.88h-13.23v-2.88h4.59v-1.24h-3.28v-2.45h3.28v-1.24h-4.45v-2.85h4.45v-2.21l3.55.23c.2,0,1.21.07,1.21.54,0,.13-.23.33-.37.4-.2.07-.33.13-.33.3v.74h4.76v2.85h-4.76v1.24h3.48v1.37c1.17-1.14,3.32-3.32,4.86-7.27l3.25.7c.17.03.84.17.84.57,0,.13-.1.2-.37.33-.2.13-.27.23-.74,1.07h6.4l1.27,1.21c-1.21,1.51-2.55,2.88-3.89,4.29h3.75v4.72h1.24v3.22h-1.24ZM121.44,33.13l-1.17-3.55c1.21.13,1.98.13,2.08.13.8,0,1.1-.33,1.1-1v-1.07h-4.92v5.36h-3.08v-14.87h11.15v12.23c0,2.44-2.41,2.75-5.16,2.78ZM123.45,20.57h-4.92v1.17h4.92v-1.17ZM123.45,24.06h-4.92v1.24h4.92v-1.24ZM133.06,9.89c-.6.97-1.17,1.77-2.04,2.81h3.35c.84-.87,1.74-1.94,2.38-2.81h-3.68ZM138.79,15.65h-2.48v1.77h2.48v-1.77ZM138.79,20.64h-2.48v1.74h2.48v-1.74Z"/><path class="cls-1" d="M171.6,33.13l-1.44-3.52c.47.07.97.1,1.47.1.9,0,1.31-.2,1.31-.9V8.42h-5.39l2.38,1.04c.2.1.57.27.57.57,0,.27-.27.33-.37.37-.2.07-.54.17-.6.23-.07.1-1.14,2.34-1.34,2.68h3.82v3.12h-6.53v8.67h2.11v-7.1l3.32.2c.27,0,.64.07.64.44,0,.17-.13.3-.2.37-.4.4-.5.54-.5.74v8.51h-11.66v1.51h-3.45v-11.56l3.32.07c.64,0,.77.2.77.44,0,.17-.07.27-.17.37-.4.4-.47.5-.47.7v5.33h2.61v-8.67h-6.77v-3.12h4.29c-.57-1.31-1.34-2.44-2.24-3.55l1.81-1.34h-4.89v24.15h-3.78V4.9h26.56v25.35c0,2.08-1.27,2.85-5.16,2.88ZM160.18,8.42c1.14,1.51,1.74,2.71,2.11,3.42l-2.14,1.47h4.42c.94-1.61,1.61-3.01,2.34-4.89h-6.73Z"/><path class="cls-1" d="M192.21,17.96c.8.94,1.57,1.81,3.42,3.32l-2.31,2.58c-.57-.47-.94-.77-1.81-1.64v10.82h-3.72v-10.18c-.44.44-.84.84-2.38,1.98l-3.05-2.45c4.32-2.98,7.33-6.23,8.84-9.38h-6.97v-3.25h3.78v-5.56l3.42.17c.74.03,1.11.13,1.11.4,0,.23-.23.44-.37.57-.47.44-.54.5-.54.67v3.75h3.18l1.37,1.34c-1.21,2.65-1.81,3.62-3.99,6.87ZM195.22,8.28v-3.05h17.65v3.05h-17.65ZM209.12,32.97v-1h-10.15v1h-3.32v-13.23h16.78v13.23h-3.32ZM197.44,18.06v-8.24h13.7v8.24h-13.7ZM202.22,22.35h-3.25v2.08h3.25v-2.08ZM202.22,27.04h-3.25v2.31h3.25v-2.31ZM207.85,12.57h-7.13v2.75h7.13v-2.75ZM209.12,22.35h-3.35v2.08h3.35v-2.08ZM209.12,27.04h-3.35v2.31h3.35v-2.31Z"/><path class="cls-1" d="M229.02,24.32c-1.27-.94-1.94-1.74-2.34-2.24v11.19h-3.62v-10.28c-.9.9-1.54,1.37-2.11,1.81l-3.28-2.58c3.08-1.94,5.76-3.85,8.84-9.28h-7.47v-3.52h4.45v-5.33l2.75.13c1.67.07,1.67.33,1.67.6,0,.2-.1.37-.37.6-.3.3-.44.44-.44.7v3.28h2.95l1.67,1.47c-1.47,3.11-2.41,4.79-4.02,7,1.17,1.37,2.34,2.41,4.05,3.55l-2.75,2.88ZM228.21,32.33v-3.48h3.85v-15.57l3.75.17c.4.03,1.04.2,1.04.4,0,.33-.23.57-.5.87-.44.44-.47.57-.47.74v13.4h2.48V4.6l3.78.17c.23,0,1,.03,1,.4,0,.44-.44.8-.97,1.41v8.64h5.53v3.68h-5.53v9.95h6.83v3.48h-20.8Z"/><path class="cls-1" d="M280.82,33.3c-6.73-4.12-9.11-7.17-11.46-12.43-3.11,6.53-6.26,9.81-12.09,12.66l-3.28-2.95c7.74-3.11,10.82-7.57,12.53-14.6h-11.62v-3.62h12.02c.13-1.47.13-3.18.13-3.68,0-1.94-.07-3.38-.13-4.45l4.45.23c.23,0,.57.03.57.4,0,.27-.33.57-.64.84-.07.7-.07.27-.07,1.94,0,.3-.07,3.15-.13,4.72h12.59v3.62h-12.26c2.04,6.43,4.66,10.15,12.83,14.1l-3.45,3.22Z"/><path class="cls-1" d="M313.45,18.43v-4.02h-19.86v4.19h-3.62v-7.3h16.61c1.61-1.94,3.08-3.99,4.09-6.3l3.32,1.11c.2.07.57.3.57.57,0,.13-.07.17-.13.2-.1.1-.84.27-.97.4-.7,1.31-1.37,2.38-2.61,4.02h6.3v7.13h-3.68ZM305.61,25.56v5.06c0,2.34-1.94,2.91-3.99,2.91h-2.11l-1.47-3.55c.4.03,2.28.2,2.68.2.57,0,.8-.5.8-1v-3.62h-11.56v-3.28h11.56v-2.08l1.61.27c.74-.64,1-1,1.27-1.41h-8.94v-3.11h15.17l.94,1.47c-1.51,1.37-4.15,3.55-5.96,4.86h11.35v3.28h-11.35ZM295.1,10.99c-.8-1.64-1.57-2.88-2.88-4.45l3.08-1.88c1.1,1.27,2.08,2.55,2.98,4.32l-3.18,2.01ZM302.7,10.32c-.84-1.71-1.71-3.12-3.11-4.82l3.05-1.81c1.57,1.84,2.51,3.38,3.28,4.92l-3.22,1.71Z"/><rect class="cls-5" x="111.32" y="44.31" width="208.89" height="23.72" rx="11.86" ry="11.86"/><path class="cls-4" d="M133.7,54.88v-1.74h6.23v-2.75l1.92.12c.16.01.27.05.27.15,0,.12-.15.19-.27.24v2.23h2.96v1.74h-2.96v5.79c0,1.35-.69,1.82-3.11,1.79-.19-.95-.24-1.14-.68-1.96.18.04.72.15,1.17.15.71,0,.71-.29.71-1.02v-3.02c-1.9,2.54-3.89,3.71-5.25,4.41-.1-.16-.54-.95-1.24-1.48,2.64-1.09,4.64-3.05,5.61-4.66h-5.36Z"/><path class="cls-4" d="M158.96,55.53v1.93h-11.73v-1.93h11.73Z"/><path class="cls-4" d="M169.43,51.98c.27,0,.68-.03.94-.1l1.36,1.13c-.22.3-.27.42-.79,1.59-1.52,3.48-2.83,5.52-7.19,7.8-.35-.49-.79-.91-1.41-1.41,1.88-.86,5.22-2.38,6.91-7.31h-8.55v-1.7h8.74ZM173.1,51.04c0,.69-.57,1.25-1.26,1.25s-1.26-.56-1.26-1.25.57-1.26,1.26-1.26,1.26.57,1.26,1.26ZM171.21,51.04c0,.34.27.63.63.63s.63-.29.63-.63-.29-.64-.63-.64-.63.29-.63.64Z"/><path class="cls-4" d="M176.3,50.74c2,1.01,2.92,1.77,3.56,2.34-.29.33-.49.6-1.13,1.58-1.6-1.4-2.92-2.03-3.58-2.31l1.14-1.6ZM175.33,60.3c3.26-.69,7.42-2.86,10.21-7.38.49.78.65,1.03,1.18,1.59-.88,1.36-3.44,5.21-9.86,7.52-.03.14-.04.3-.23.3-.1,0-.18-.11-.24-.23l-1.06-1.79Z"/><path class="cls-4" d="M192.53,50.64l1.85-.24c.07-.01.27-.04.27.12,0,.11-.08.19-.2.29l.27,1.85,3.25-.41.19,1.69-3.2.42.27,1.79,4.66-.6.19,1.71-4.61.6.64,4.38-1.84.33-.65-4.46-4.91.64-.22-1.74,4.87-.61-.26-1.79-3.48.46-.2-1.74,3.43-.42-.33-2.26Z"/><path class="cls-4" d="M205.53,52.81l1.6-.19c.12-.01.29-.04.29.14,0,.1-.1.16-.19.24l.39,2.04,3.52-.69c.24-.05.49-.18.65-.35l1.14.86c-.46.56-2.12,3.32-2.47,3.86-.5-.31-1.29-.64-1.51-.73.14-.18.44-.6.76-1.06.22-.33.48-.71.58-.9l-2.38.52,1.07,5.48-1.56.37-1.1-5.49-2.87.63-.44-1.56,3-.6-.5-2.54Z"/><path class="cls-4" d="M216,50.74c2,1.01,2.92,1.77,3.56,2.34-.29.33-.49.6-1.13,1.58-1.6-1.4-2.92-2.03-3.58-2.31l1.14-1.6ZM215.04,60.3c3.26-.69,7.42-2.86,10.21-7.38.49.78.65,1.03,1.18,1.59-.88,1.36-3.44,5.21-9.86,7.52-.03.14-.04.3-.23.3-.1,0-.18-.11-.24-.23l-1.06-1.79Z"/><path class="cls-4" d="M232.3,52.34c.2.05.26.1.26.19,0,.07-.04.18-.29.23-.86,4.35-2.23,6.96-3.79,8.73-.53-.39-1.43-.72-1.74-.83,2.5-2.79,3.25-5.71,3.68-8.76l1.88.44ZM235.7,51.56c1.63,2.18,3.25,4.94,4.12,8.5-.54.27-1.67.94-1.84,1.05-.88-4.34-2.56-6.99-3.78-8.44l1.5-1.1ZM239.82,51.79c0,.71-.57,1.26-1.25,1.26s-1.26-.56-1.26-1.26.58-1.26,1.26-1.26,1.25.54,1.25,1.26ZM237.93,51.79c0,.35.29.63.62.63s.64-.29.64-.63-.29-.63-.63-.63-.64.27-.64.63Z"/><path class="cls-4" d="M243.06,52.99v-1.73h6.91c.22,0,.72-.03.94-.11l.92.99c-.27.35-.42.67-.52.87-.57,1.33-.88,2.05-1.75,3.47,1.03.77,3.17,2.62,4.24,3.93-.48.52-1.24,1.36-1.4,1.55-.73-1.02-1.86-2.5-3.86-4.05-.94,1.18-3.14,3.26-5.44,4.24-.42-.73-.65-1.05-1.29-1.59.82-.29,2.8-1.02,4.81-3.18,1.47-1.56,1.98-2.84,2.57-4.39h-6.13Z"/><path class="cls-4" d="M264.97,60.07v1.58h-9.04c.15-2.31,1.22-3.03,4.58-5.26,2-1.33,2.28-1.7,2.28-2.52,0-1.14-1.11-1.51-2.11-1.51-2.04,0-2.42,1.22-2.49,2.46h-2.09c.05-.94.26-4.19,4.58-4.19,2.77,0,4.19,1.45,4.19,3.22,0,1.52-.84,2.39-2.83,3.64-2.07,1.31-2.62,1.74-3.32,2.57h6.24Z"/><path class="cls-4" d="M276.09,56.29c0,1.92-.5,5.66-4.51,5.66s-4.51-3.73-4.51-5.66.46-5.66,4.51-5.66,4.51,3.74,4.51,5.66ZM269.16,56.29c0,.58,0,3.94,2.42,3.94s2.41-3.36,2.41-3.94,0-3.94-2.41-3.94-2.42,3.3-2.42,3.94Z"/><path class="cls-4" d="M287.14,60.07v1.58h-9.04c.15-2.31,1.22-3.03,4.58-5.26,2-1.33,2.28-1.7,2.28-2.52,0-1.14-1.11-1.51-2.11-1.51-2.04,0-2.42,1.22-2.49,2.46h-2.09c.05-.94.26-4.19,4.58-4.19,2.77,0,4.19,1.45,4.19,3.22,0,1.52-.84,2.39-2.83,3.64-2.07,1.31-2.62,1.74-3.32,2.57h6.24Z"/><path class="cls-4" d="M297.47,50.93v1.58h-5.14l-.53,2.76c.67-.53,1.58-.72,2.42-.72,2.23,0,3.86,1.37,3.86,3.53,0,.84-.34,3.86-4.5,3.86-3.92,0-4.35-2.5-4.47-3.25h2.15c.29,1.52,1.9,1.52,2.34,1.52,1.65,0,2.41-.97,2.41-2.07,0-.82-.48-2-2.31-2-1.26,0-1.81.44-2.08.67h-2.13l1.13-5.89h6.87Z"/></g></svg>